<?xml version="1.0" encoding="utf-8" ?><svg xmlns="http://www.w3.org/2000/svg" xmlns:xlink="http://www.w3.org/1999/xlink" width="572" height="770" viewBox="0 0 572 770"><clipPath id="cl_8"><rect width="572" height="770"/></clipPath><g clip-path="url(#cl_8)"><defs><linearGradient id="gradient_0" gradientUnits="userSpaceOnUse" x1="274.18668" y1="360.9649" x2="790.8595" y2="830.36914"><stop offset="0" stop-color="#FF8E1B"/><stop offset="1" stop-color="#F5206A"/></linearGradient></defs><path fill="url(#gradient_0)" transform="translate(-325 -231)" d="M414.336 240.286C431.663 239.461 455.476 240.122 473.114 240.133L583.919 240.184L651.307 240.168C707.866 240.157 705.632 239.509 745.828 279.5L794.885 328.729L844.141 377.915C855.816 389.535 875.308 406.45 882.086 420.839C885.08 427.29 886.954 434.204 887.628 441.284C888.355 448.77 888.028 459.546 888.013 467.385L887.933 511.552L887.903 653.92C887.918 676.204 887.026 708.974 888.479 730.567C876.707 712.042 868.05 702.022 847.031 693.684C848.087 634.981 847.344 573.098 847.193 514.163L847.136 473.618C847.131 465.905 847.599 449.303 845.835 442.738C838.347 436.224 744.143 443.814 724.932 439.04C717.36 437.15 710.345 433.489 704.465 428.357C684.923 411.226 688.809 384.894 688.814 360.607L688.9 303.538C688.911 298.85 689.669 288.895 687.162 284.899C686.038 283.108 676.908 282.745 674.487 282.745C615.087 282.736 555.641 282.742 496.244 282.736L444.746 282.738C423.576 282.743 406.748 280.572 390.117 296.915C373.751 312.996 375.683 330.217 375.7 351.31L375.709 731.504L375.705 838.591C375.687 851.576 374.78 881.59 376.245 892.659C377.707 903.508 382.695 913.576 390.44 921.313C402.339 933.366 415.748 935.914 432.001 935.713C445.064 935.552 458.299 935.669 471.371 935.663L592.394 935.694C603.513 945.119 622.814 965.552 633.427 976.212C619.454 976.861 602.762 976.283 588.558 976.253L504.39 976.122L446.989 976.067C415.883 976.04 393.956 978.118 367.814 957.561C349.114 943.053 337.057 921.615 334.372 898.1C333.223 887.656 333.714 871.822 333.734 860.792L333.77 800.699L333.823 597.61L333.761 407.719L333.708 351.139C333.667 321.027 333.077 297.631 353.647 272.469C369.497 253.08 389.5 242.858 414.336 240.286Z"/><defs><linearGradient id="gradient_1" gradientUnits="userSpaceOnUse" x1="666.05383" y1="774.57928" x2="796.45825" y2="876.56653"><stop offset="0" stop-color="#FF6E32"/><stop offset="1" stop-color="#F52A60"/></linearGradient></defs><path fill="url(#gradient_1)" transform="translate(-325 -231)" d="M677.852 982.393C676.58 981.445 674.906 979.806 673.77 978.685C650.684 955.959 627.483 933.775 604.442 910.957C588.94 895.605 588.152 871.938 602.016 855.257C603.859 853.04 606.156 850.708 608.211 848.612C646.323 809.741 684.933 771.34 723.339 732.761C729.252 726.822 735.225 720.784 742.189 716.065C759.447 705.807 779.576 709.803 798.478 710.391C820.014 711.371 840.94 709.909 857.215 726.257C874.635 743.539 873.809 762.566 873.869 785.274C874.559 792.611 874.372 800.125 874.596 807.26C875.17 825.516 874.691 841.696 861.848 856.087C854.014 864.864 844.83 873.482 836.406 882.04C818.649 900.182 800.797 918.231 782.85 936.185L752.864 966.313C739.776 979.62 731.111 991.737 711.185 993.606C699.286 994.785 687.436 990.941 678.494 983.002C678.28 982.799 678.066 982.596 677.852 982.393ZM803.041 809.292C817.123 806.969 826.638 793.646 824.265 779.572C821.892 765.499 808.535 756.032 794.47 758.455C780.476 760.866 771.067 774.141 773.428 788.144C775.789 802.146 789.03 811.602 803.041 809.292Z"/><path fill="#F32367" transform="translate(-325 -231)" d="M677.852 982.393L681.264 983.356C680.826 983.607 700.176 964.968 700.303 964.822C721.162 940.943 741.722 917.203 764.821 895.496C771.47 889.248 778.711 881.648 784.239 874.619C783.347 875.754 785.587 871.613 785.455 871.826C792.514 868.853 789.085 867.087 792.773 863.729C800.482 855.878 814.608 845.52 820.411 836.389C832.555 817.279 846.073 803.459 862.816 788.347C864.989 786.386 869.272 780.694 871.249 779.682L872.587 780.489L872.561 780.468C873.896 784.404 873.447 790.735 873.267 794.962C873.639 792.594 873.739 787.882 873.869 785.274C874.559 792.611 874.372 800.125 874.596 807.26C875.17 825.516 874.691 841.696 861.848 856.087C854.014 864.864 844.83 873.482 836.406 882.04C818.649 900.182 800.797 918.231 782.85 936.185L752.864 966.313C739.776 979.62 731.111 991.737 711.185 993.606C699.286 994.785 687.436 990.941 678.494 983.002C678.28 982.799 678.066 982.596 677.852 982.393Z"/><defs><linearGradient id="gradient_2" gradientUnits="userSpaceOnUse" x1="467.17035" y1="395.5564" x2="595.06024" y2="512.55121"><stop offset="0" stop-color="#FD742D"/><stop offset="1" stop-color="#FD5145"/></linearGradient></defs><path fill="url(#gradient_2)" transform="translate(-325 -231)" d="M578.033 346.135C587.324 344.931 594.757 347.293 599.524 355.787C603.59 363.031 602.227 375.597 602.222 383.895L602.281 416.709C602.329 442.728 602.472 468.77 602.208 494.782C602.086 506.819 595.991 517.94 585.07 523.444C577.376 527.331 568.444 527.969 560.276 525.215C551.9 522.29 545.08 516.075 541.391 508.006C538.174 500.909 538.06 492.792 541.076 485.608C547.65 469.583 566.235 461.789 582.152 468.699L582.866 469.018L582.929 427.651C582.934 420.628 583.998 411.494 582.258 404.762C581.967 403.635 581.903 403.377 580.843 402.879C574.587 399.942 514.908 417.17 505.706 419.801C504.306 420.617 502.067 422.281 501.817 423.904C500.803 430.494 501.051 437.885 501.047 444.537L500.987 492.826C500.996 500.3 501.499 516.44 500.2 523.082C498.603 531.451 493.603 538.781 486.394 543.321C479.144 547.949 470.351 549.503 461.953 547.642C453.707 545.865 446.536 540.816 442.082 533.652C438.022 526.977 437.027 518.479 438.941 510.956C440.958 502.866 446.286 495.998 453.621 492.033C462.936 486.924 472.226 487.489 481.937 490.507L481.946 418.39C481.95 413.011 481.935 407.487 481.878 402.117C481.718 386.939 479.838 371.834 497.264 365.541C505.333 362.628 513.466 360.807 521.82 358.742C540.441 354.036 559.185 349.833 578.033 346.135Z"/><path fill="#FA4E48" transform="translate(-325 -231)" d="M445.58 603.405L601.302 603.406L661.536 603.342C669.979 603.332 697.679 602.239 703.63 605.432C707.867 607.688 710.966 611.614 712.174 616.259C715.106 627.411 708.15 635.608 697.514 637.995C687.039 638.653 669.39 638.041 658.389 638.022L583.731 638.013L494.786 638.046C479.327 638.072 464.164 638.039 448.301 638.028C431.912 638.017 423.175 624.917 431.85 610.187C434.415 605.833 440.674 604.012 445.58 603.405Z"/><path fill="#FA4E48" transform="translate(-325 -231)" d="M446.727 683.629L581.707 683.634L625.785 683.5C633.428 683.48 644.404 683.032 651.789 683.894C671.897 686.239 673.377 716.762 649.846 718.342C633.702 717.925 616.127 718.256 599.891 718.279L503.246 718.486L465.642 718.507C457.233 718.506 442.1 719.916 435.448 714.94C431.585 712.063 429.084 707.718 428.538 702.933C427.202 691.109 435.763 684.39 446.727 683.629Z"/><path fill="#FA4E48" transform="translate(-325 -231)" d="M446.639 763.763C469.497 762.86 500.827 763.721 524.352 763.771L552.844 763.835C560.292 763.803 576.511 762.495 582.044 767.201C596.566 779.554 589.009 797.247 570.833 798.878C528.504 797.112 485.269 799.948 442.884 798.347C440.255 798.248 437.371 796.87 435.299 795.327C431.405 792.396 428.942 787.947 428.524 783.091C427.412 771.161 435.552 764.72 446.639 763.763Z"/><path fill="#FA4E48" transform="translate(-325 -231)" d="M442.738 844.568C449.9 844.094 458.65 844.245 465.92 844.305C474.361 844.375 489.483 842.677 496.236 847.981C507.878 857.125 503.652 876.971 487.85 878.816C475.734 879.643 458.417 878.894 445.934 878.923C425.67 878.971 420.398 851.749 442.738 844.568Z"/></g></svg>