<?xml version="1.0" encoding="utf-8" ?><svg xmlns="http://www.w3.org/2000/svg" xmlns:xlink="http://www.w3.org/1999/xlink" width="640" height="628" viewBox="0 0 640 628"><clipPath id="cl_6"><rect x="-4.5776367e-05" y="3.8146973e-06" width="639.52557" height="627.54938"/></clipPath><g clip-path="url(#cl_6)"><defs><linearGradient id="gradient_0" gradientUnits="userSpaceOnUse" x1="269.40698" y1="260.21564" x2="655.96063" y2="643.48608"><stop offset="0" stop-color="#FE9E00"/><stop offset="1" stop-color="#FE662C"/></linearGradient></defs><path fill="url(#gradient_0)" transform="matrix(0.598807 0 0 0.598807 -54.4915 -55.0902)" d="M246.017 942.54C76.5499 746.281 83.6539 453.463 262.439 265.654C441.223 77.8444 733.337 56.3409 937.696 215.946C1088.89 334.03 1159.94 527.713 1120.96 715.555C1081.98 903.397 939.735 1052.82 754.038 1101C568.341 1149.17 371.398 1087.74 246.017 942.54Z"/><defs><linearGradient id="gradient_1" gradientUnits="userSpaceOnUse" x1="584.10559" y1="570.04706" x2="979.93585" y2="972.15271"><stop offset="0" stop-color="#FF6C26"/><stop offset="1" stop-color="#FD285E"/></linearGradient></defs><path fill="url(#gradient_1)" transform="matrix(0.598807 0 0 0.598807 -54.4915 -55.0902)" d="M937.696 215.946C1088.89 334.03 1159.94 527.713 1120.96 715.555C1081.98 903.397 939.735 1052.82 754.038 1101C568.341 1149.17 371.398 1087.74 246.017 942.54C250.953 944.321 254.491 951.584 259.209 950.66C261.952 948.514 262.99 941.798 263.959 938.158C265.676 935.989 274.94 934.46 278.812 932.919C280.305 930.757 278.731 927.65 280.382 925.73C284.132 921.368 289.528 918.35 293.704 914.426C301.92 906.706 309.529 898.246 317.973 890.808C322.183 887.074 327.076 886.07 330.423 882.971C333.841 879.806 338.284 872.974 341.91 869.73C344.871 867.693 350.712 866.905 353.348 864.679C356.021 862.377 358.463 858.943 361.319 856.886C373.204 848.327 384.336 838.915 394.996 828.873C396.018 827.91 400.972 827.216 402.521 826.936C402.802 825.072 402.919 823.195 403.764 821.546C406.162 821.676 407.842 821.707 410.24 821.615C412.167 819.085 410.271 819.191 411.659 815.902C418.387 813.032 420.455 810.465 425.655 805.738C426.58 804.897 430.981 808.513 431.327 808.388C436.458 806.526 440.756 801.997 445.767 799.694C447.572 798.838 453.9 798.635 454.318 798.267C460.305 792.995 460.142 782.813 463.176 775.765C464.001 773.85 464.718 771.614 466.213 769.978C467.898 768.517 478.008 760.758 479.216 760.678C484.575 760.318 490.504 762.212 495.609 760.051C502.145 757.283 501.515 755.813 504.28 750.461C506.109 751.802 505.513 752.257 507.732 752.848C508.008 749.911 512.129 744.844 514.099 742.668C531.815 743.964 531.907 734.65 538.632 734.93C542.097 737.804 542.08 737.829 546.685 737.51C550.99 737.212 554.214 737.98 556.881 734.026C556.581 729.64 559.812 721.866 562.3 718.322L563.061 719.206C563.239 720.992 563.201 721.526 563.818 723.227L565.127 722.189C568.432 726.661 564.04 823.722 566.974 827.611C568.527 852.573 563.641 870.238 584.229 891.634C595.227 903.218 610.476 909.813 626.45 909.894C652.864 910.222 680.404 891.429 685.669 864.432C689.321 845.699 687.628 818.066 687.607 798.341L687.511 685.387L804.075 685.492C822.8 685.496 849.019 686.724 866.896 683.884C891.95 679.905 912.281 652.842 913.58 627.687C914.463 610.649 908.516 593.962 897.057 581.322C889.495 572.981 879.706 566.976 868.844 564.013C857.207 560.868 840.249 561.963 827.954 561.783C808.041 561.493 786.918 562.502 767.047 561.546C765.325 560.309 743.761 560.873 739.836 560.898C739.049 559.945 739.392 560.222 739.229 558.565C740.604 556.826 741.161 557.1 743.648 556.182C744.769 554.735 744.58 553.531 744.691 551.627L744.735 550.783C745.431 549.741 749.27 544.029 749.473 543.296C751.049 537.615 751.125 531.629 754.682 526.462C760.118 518.565 769.355 516.078 775.928 510.33C778.85 507.775 780.295 496.152 782.64 492.845C783.504 491.626 790.868 490.145 793.607 488.246C794.157 485.935 794.293 484.442 794.548 482.065C806.34 474.396 798.356 476.626 802.021 467.853C807.698 460.855 805.852 454.56 811.543 447.925C819.36 438.81 825.006 425.831 833.526 417.66C835.103 413.709 830.78 413.407 834.444 409.464C846.059 396.968 853.254 395.721 853.935 378.359C859.764 372.527 857.331 373.703 860.603 366.911C860.846 366.408 866.013 363.428 866.704 362.645C869.293 359.712 874.19 353.497 875.99 350.323C883.309 337.421 877.844 340.086 874.669 330.181C873.734 327.264 882.279 315.858 884.584 312.682L882.796 308.071C883.199 307.33 883.607 306.64 884.235 306.08C888.849 301.964 889.259 297.476 891.848 292.361C892.068 291.926 893.952 290.981 894.385 290.849C901.32 289.308 896.018 283.692 898.275 281.546C904.9 275.246 911.602 269.453 916.273 261.413C918.068 258.324 919.825 255.921 922.899 253.942C923.046 253.847 924.133 247.13 924.942 246.591C927.882 244.475 931.585 244.888 933.22 241.074C934.413 238.486 936.004 237.152 938.757 236.691C940.132 236.462 938.496 233.65 939.261 231.512C940.899 232.056 940.674 232.139 941.979 233.329L942.61 232.938C939.98 227.72 940.737 228.02 941.5 222.246C941.489 222.331 938.132 216.693 937.696 215.946Z"/><defs><linearGradient id="gradient_2" gradientUnits="userSpaceOnUse" x1="479.19772" y1="428.87186" x2="771.50159" y2="814.01489"><stop offset="0" stop-color="#FB3851"/><stop offset="1" stop-color="#F61777"/></linearGradient></defs><path fill="url(#gradient_2)" transform="matrix(0.598807 0 0 0.598807 -54.4915 -55.0902)" d="M567.091 561.976L567.169 443.561C567.132 429.731 566.148 390.379 568.656 378.699C571.175 367.397 576.757 357.007 584.791 348.667C595.713 337.281 610.802 330.834 626.58 330.811C642.951 330.638 657.453 336.428 669.112 347.978C677.641 356.457 683.565 367.2 686.184 378.939C688.101 387.816 687.654 398.933 687.646 408.162L687.606 440.961L687.568 561.959C713.614 561.287 741.424 562.885 767.047 561.546C786.918 562.502 808.041 561.493 827.954 561.783C840.249 561.963 857.207 560.868 868.844 564.013C879.706 566.976 889.495 572.981 897.057 581.322C908.516 593.962 914.463 610.649 913.58 627.687C912.281 652.842 891.95 679.905 866.896 683.884C849.019 686.724 822.8 685.496 804.075 685.492L687.511 685.387L687.607 798.341C687.628 818.066 689.321 845.699 685.669 864.432C680.404 891.429 652.864 910.222 626.45 909.894C610.476 909.813 595.227 903.218 584.229 891.634C563.641 870.238 568.527 852.573 566.974 827.611C567.853 817.014 567.126 793.089 567.124 781.28L567.222 685.302C560.974 685.675 554.638 685.55 548.378 685.541C499.804 685.476 451.228 685.571 402.656 685.517C385.316 685.497 369.358 678.95 357.452 666.225C346.296 654.304 340.385 638.408 341.042 622.094C341.574 605.071 348.932 588.978 361.458 577.439C369.393 570.103 379.21 565.116 389.814 563.035C398.44 561.324 411.719 561.72 420.816 561.729L461.067 561.771L527.225 561.781C540.13 561.772 554.265 561.487 567.091 561.976Z"/></g></svg>