<?xml version="1.0" encoding="utf-8" ?><svg xmlns="http://www.w3.org/2000/svg" xmlns:xlink="http://www.w3.org/1999/xlink" width="651" height="616" viewBox="0 0 651 616"><clipPath id="cl_d"><rect x="-7.6293945e-06" width="650.56451" height="615.98083"/></clipPath><g clip-path="url(#cl_d)"><defs><linearGradient id="gradient_0" gradientUnits="userSpaceOnUse" x1="451.27576" y1="243.00502" x2="910.91364" y2="872.12036"><stop offset="0" stop-color="#FF7609"/><stop offset="1" stop-color="#F80D58"/></linearGradient></defs><path fill="url(#gradient_0)" transform="matrix(0.652522 0 0 0.652522 -84.1754 -93.9632)" d="M226.356 702.402C224.345 700.446 221.922 697.223 220.117 694.988C193.111 661.538 170.829 622.244 157.796 581.312C133.419 503.304 140.583 418.848 177.752 346.061C213.343 277.399 272.413 224.486 346.549 201.151C391.258 186.698 439.18 185.404 484.604 197.424C493.091 199.598 507.921 203.943 515.397 207.845C559.28 223.59 596.461 254.322 629.702 285.971C662.885 254.053 692.213 231.256 734.198 212.344C928.095 125.008 1123.74 297.311 1115.58 496.712C1110.65 617.164 1050.55 688.397 968.511 770.055L893.848 843.63L782.837 952.627C765.692 969.471 748.823 986.607 731.521 1003.29C712.778 1021.16 690.571 1034.74 666.033 1042.98C626.616 1056.2 585.144 1046.48 551.418 1023.57C530.49 1009.36 512.57 989.87 494.623 972.048L431.684 909.668L314.799 794.709C287.062 767.234 259.066 740.064 233.346 710.678C231.532 708.605 227.66 704.666 226.356 702.402ZM364.959 322.481C359.289 325.754 352.665 328.449 346.348 332.176C324.853 345.052 306.598 362.687 292.986 383.724C265.746 425.269 256.278 479.393 266.516 527.865C283.308 607.368 351.662 667.969 407.187 722.711L529.439 842.519L575.712 887.704C584.73 896.492 596.18 908.607 606.439 915.532C620.889 925.285 644.014 923.225 656.985 911.541C667.633 901.951 678.287 891.46 688.765 881.28L750.237 821.313C785.783 786.796 821.116 752.059 856.232 717.104C910.85 662.767 975.074 606.359 992.482 528.043C1008.86 454.341 979.762 372.836 914.083 332.687C897.388 322.446 878.686 315.915 859.246 313.537C802.672 306.317 752.217 333.216 711.777 370.329C703.704 377.773 695.891 385.494 688.351 393.477C674.168 408.592 663.79 423.044 642.513 427.829C618.3 433.429 598.051 424.804 581.933 406.501C535.795 354.109 473.909 303.143 399.089 313.583C389.739 314.887 382.246 317.287 373.332 319.447C371.829 320.19 366.496 322.317 364.959 322.481Z"/><path fill="#FE8A0A" transform="matrix(0.652522 0 0 0.652522 -84.1754 -93.9632)" d="M226.356 702.402C224.345 700.446 221.922 697.223 220.117 694.988C193.111 661.538 170.829 622.244 157.796 581.312C133.419 503.304 140.583 418.848 177.752 346.061C213.343 277.399 272.413 224.486 346.549 201.151C391.258 186.698 439.18 185.404 484.604 197.424C493.091 199.598 507.921 203.943 515.397 207.845C518.86 211.289 521.798 210.861 525.004 213.899C524.605 218.353 511.111 222.08 507.122 223.084C506.285 223.295 505.623 225.915 505.486 226.619L504.578 225.508C501.948 226.597 499.881 232.018 497.343 233.726C495.131 233.724 492.193 233.404 490.796 235.044C488.422 237.832 487.796 243.519 484.377 245.567C480.246 247.919 475.1 246.701 472.272 251.249C469.626 255.504 464.626 252.781 461.378 255.115C452.798 261.279 446.266 269.377 435.399 271.168C434.128 271.378 432.807 277.297 431.015 277.66C427.628 279.605 422.575 280.937 419.963 283.785C416.399 287.672 414.899 294.265 411.307 298.376C406.592 302.208 400.114 301.352 394.856 306.73C396.353 307.136 396.635 307.028 397.87 307.933C396.193 309.657 395.019 310.559 393.121 312.064C389.861 311.452 389.168 310.702 386.745 313.71C383.973 317.152 375.751 315.817 373.332 319.447C371.829 320.19 366.496 322.317 364.959 322.481C357.394 321.79 344.996 333.618 337.779 335.147C336.89 335.335 335.852 334.057 335.218 333.379L334.325 333.501L333.432 334.853C332.977 333.569 332.929 333.327 332.632 332.016L331.84 331.801C330.952 333.205 331.162 332.786 330.633 334.315C330.214 333.36 330.376 333.943 330.377 332.52L329.101 332.326C326.817 334.519 328.298 338.145 325.395 340.252C318.381 345.342 309.737 349.324 302.208 353.647C291.585 359.803 281.419 366.714 271.787 374.328C216.446 417.844 182.216 481.372 181.3 552.207C180.74 595.456 194.823 640.529 214.957 678.535C217.473 683.285 225.095 695.277 227.207 700.77C226.924 701.314 226.64 701.858 226.356 702.402Z"/></g></svg>