<?xml version="1.0" encoding="utf-8" ?><svg xmlns="http://www.w3.org/2000/svg" xmlns:xlink="http://www.w3.org/1999/xlink" width="842" height="828" viewBox="0 0 842 828"><clipPath id="cl_4"><rect x="-7.6293945e-05" y="3.8146973e-05" width="842.00867" height="827.7373"/></clipPath><g clip-path="url(#cl_4)"><path fill="#000B25" transform="matrix(3.56783 0 0 3.56783 -82.0602 -89.1958)" d="M87.3334 249.614C75.533 248.639 61.4516 245.894 50.0884 242.699C44.0783 241.01 32.3627 236.415 29.537 230.521C25.7039 222.525 29.7922 206.513 32.3928 198.224C37.0391 183.416 43.3385 167.552 50.0617 153.533C66.811 118.758 85.8847 84.3303 109.507 53.7169C115.193 46.3471 132.865 24.1336 143.32 28.642C157.252 34.6496 169.533 52.4735 178.53 64.3361C180.42 66.8269 184.225 71.9912 185.654 74.756C189.866 80.0386 193.521 86.7248 197.077 92.5172C213.392 119.095 255.385 195.594 252.067 225.898C251.636 229.834 249.955 232.609 246.868 235.051C239.197 241.119 227.269 243.795 217.789 245.747C188.494 251.781 158.08 252.816 128.249 252.183C115.249 251.908 102.17 251.457 89.2498 249.906C88.6456 249.834 87.9045 249.802 87.3334 249.614ZM103.392 181.269C104.021 181.93 105.007 182.958 105.801 183.364C113.574 187.337 127.504 188.245 136.203 188.466C137.662 188.511 139.122 188.526 140.581 188.51C148.799 188.448 170.412 187.68 176.075 181.917C177.083 180.891 177.291 179.635 177.262 178.246C176.968 164.104 156.158 127.167 145.622 117.202C144.129 115.789 142.002 113.952 139.843 113.993C139.799 113.994 139.756 113.997 139.712 113.999C127.639 118.116 99.6306 169.875 103.392 181.269Z"/><defs><linearGradient id="gradient_0" gradientUnits="userSpaceOnUse" x1="67.550522" y1="119.69688" x2="138.46667" y2="160.56894"><stop offset="0" stop-color="#AC5CC3"/><stop offset="1" stop-color="#6A77CD"/></linearGradient></defs><path fill="url(#gradient_0)" transform="matrix(3.56783 0 0 3.56783 -82.0602 -89.1958)" d="M87.3334 249.614C75.533 248.639 61.4516 245.894 50.0884 242.699C44.0783 241.01 32.3627 236.415 29.537 230.521C25.7039 222.525 29.7922 206.513 32.3928 198.224C37.0391 183.416 43.3385 167.552 50.0617 153.533C66.811 118.758 85.8847 84.3303 109.507 53.7169C115.193 46.3471 132.865 24.1336 143.32 28.642C157.252 34.6496 169.533 52.4735 178.53 64.3361C180.42 66.8269 184.225 71.9912 185.654 74.756C185.294 75.7137 185.672 75.9261 185.581 76.2574C185.32 77.2086 183.289 78.3025 182.959 79.1573C180.823 84.6861 177.27 89.3284 174.531 94.5446C173.542 96.4277 172.363 98.1428 171.72 100.147C171.088 100.23 168.691 100.425 168.296 100.554C162.879 93.4733 150.161 73.8809 140.919 72.5567C138.017 72.141 135.208 74.0878 133.019 75.7785C110.604 93.0883 70.5272 167.325 66.9396 196.187C66.5395 199.406 66.3031 203.384 68.3786 206.093C74.6116 214.232 94.5195 215.754 104.322 217.504C104.082 217.586 101.825 218.378 101.778 218.439C100.633 219.949 99.856 222.02 99.1067 223.753C95.8082 231.382 90.4406 238.068 88.4511 246.265C88.2838 246.954 87.0541 247.602 87.0935 248.352L87.7606 248.638C87.8774 249.268 87.9427 248.999 87.6629 249.486L87.3334 249.614Z"/><defs><linearGradient id="gradient_1" gradientUnits="userSpaceOnUse" x1="134.1705" y1="160.85132" x2="251.59392" y2="227.76416"><stop offset="0" stop-color="#6E76CC"/><stop offset="1" stop-color="#01A3DC"/></linearGradient></defs><path fill="url(#gradient_1)" transform="matrix(3.56783 0 0 3.56783 -82.0602 -89.1958)" d="M185.654 74.756C189.866 80.0386 193.521 86.7248 197.077 92.5172C213.392 119.095 255.385 195.594 252.067 225.898C251.636 229.834 249.955 232.609 246.868 235.051C239.197 241.119 227.269 243.795 217.789 245.747C188.494 251.781 158.08 252.816 128.249 252.183C115.249 251.908 102.17 251.457 89.2498 249.906C88.6456 249.834 87.9045 249.802 87.3334 249.614L87.6629 249.486C87.9427 248.999 87.8774 249.268 87.7606 248.638L87.0935 248.352C87.0541 247.602 88.2838 246.954 88.4511 246.265C90.4406 238.068 95.8082 231.382 99.1067 223.753C99.856 222.02 100.633 219.949 101.778 218.439C101.825 218.378 104.082 217.586 104.322 217.504C106.453 217.464 108.737 217.835 110.864 218.023C115.779 218.457 120.732 218.997 125.663 219.193C145.435 219.977 191.806 219.278 208.422 209.125C210.894 207.615 212.648 205.704 213.299 202.831C214.449 197.756 212.544 191.207 211.178 186.317C204.891 163.813 190.897 136.968 178.77 116.938C175.408 111.384 171.769 106.034 168.296 100.554C168.691 100.425 171.088 100.23 171.72 100.147C172.363 98.1428 173.542 96.4277 174.531 94.5446C177.27 89.3284 180.823 84.6861 182.959 79.1573C183.289 78.3025 185.32 77.2086 185.581 76.2574C185.672 75.9261 185.294 75.7137 185.654 74.756Z"/></g></svg>