<?xml version="1.0" encoding="utf-8" ?><svg xmlns="http://www.w3.org/2000/svg" xmlns:xlink="http://www.w3.org/1999/xlink" width="815" height="558" viewBox="0 0 815 558"><clipPath id="cl_9"><rect width="815" height="558"/></clipPath><g clip-path="url(#cl_9)"><defs><linearGradient id="gradient_0" gradientUnits="userSpaceOnUse" x1="591.62988" y1="344.95673" x2="702.30432" y2="571.29828"><stop offset="0" stop-color="#FF6616"/><stop offset="1" stop-color="#F7112D"/></linearGradient></defs><path fill="url(#gradient_0)" transform="translate(-197 -325)" d="M491.23 422.179C573.641 421.554 656.056 421.6 738.466 422.316L813.147 422.14C828.647 422.059 843.893 421.851 859.377 422.84C888.897 424.727 900.323 464.779 879.902 484.428C875.403 488.686 869.885 491.717 863.877 493.229C855.083 495.486 817.189 494.662 805.487 494.652L545.533 494.647L475.737 494.68C463.781 494.729 442.462 496.018 431.221 493.75C403.778 488.213 395.906 451.162 414.873 432.623C419.362 428.232 424.944 425.122 431.04 423.616C438.683 421.686 452.253 422.258 460.626 422.276L491.23 422.179Z"/><defs><linearGradient id="gradient_1" gradientUnits="userSpaceOnUse" x1="571.30029" y1="524.54083" x2="629.90186" y2="691.00189"><stop offset="0" stop-color="#FF3326"/><stop offset="1" stop-color="#E7163E"/></linearGradient></defs><path fill="url(#gradient_1)" transform="translate(-197 -325)" d="M437.874 572.086C451.181 570.896 477.75 571.818 492.199 571.885L589.589 572.006L704.539 571.948C724.459 571.937 744.983 571.637 764.88 572.37C772.356 572.646 776.842 574.059 782.799 578.623C790.812 584.718 796.053 593.765 797.356 603.747C798.545 613.534 795.738 623.387 789.57 631.077C782.567 639.839 774.697 642.625 764.174 643.918C755.883 645.013 729.44 644.272 719.765 644.237L632.949 644.196L502.917 644.22L461.628 644.231C453.808 644.229 443.371 644.463 435.738 643.829C429.639 643.277 423.818 641.02 418.941 637.315C410.93 631.195 405.725 622.104 404.504 612.097C401.94 590.903 417.502 574.527 437.874 572.086Z"/><defs><linearGradient id="gradient_2" gradientUnits="userSpaceOnUse" x1="564.93481" y1="684.22296" x2="606.89447" y2="829.25232"><stop offset="0" stop-color="#F22142"/><stop offset="1" stop-color="#AF1D53"/></linearGradient></defs><path fill="url(#gradient_2)" transform="translate(-197 -325)" d="M434.092 721.463C446.343 720.422 470.476 721.18 483.14 721.228L568.673 721.264L678.367 721.248C696.764 721.24 715.504 720.869 733.864 721.331C739.91 721.859 745.496 721.995 750.659 725.52C777.558 743.887 772.67 784.444 739.554 792.314C729.816 793.792 708.614 792.95 697.723 792.908L624.408 792.873L500.938 792.914C480.846 792.919 457.619 793.783 437.937 792.639C397.551 790.292 390.633 731.608 434.092 721.463Z"/><defs><linearGradient id="gradient_3" gradientUnits="userSpaceOnUse" x1="863.8902" y1="630.69812" x2="914.96503" y2="781.56439"><stop offset="0" stop-color="#EE264D"/><stop offset="1" stop-color="#9E1C56"/></linearGradient></defs><path fill="url(#gradient_3)" transform="translate(-197 -325)" d="M827.794 638.366C828.522 622.328 844.367 612.711 859.289 617.27C864.495 618.86 868.944 621.842 873.521 624.704C895.648 638.782 917.539 653.227 939.186 668.034C950.179 675.531 973.147 688.647 976.788 701.757C980.083 713.624 973.447 727.383 963.31 733.709C932.318 754.445 902.033 776.453 870.559 796.422C866.835 798.785 859.267 802.883 855.026 803.211C824.111 805.597 827.17 777.732 827.273 758.602L827.413 718.655L827.274 666.792C827.234 660.424 826.573 643.62 827.794 638.366Z"/><path fill="#F12B33" transform="translate(-197 -325)" d="M827.794 638.366C828.522 622.328 844.367 612.711 859.289 617.27C864.495 618.86 868.944 621.842 873.521 624.704C874.571 627.465 874.629 626.201 873.936 628.617C872.846 629.642 860.232 632.758 857.567 633.562C848.285 636.271 839.376 640.124 831.045 645.033L829.023 644.368C828.091 645.799 828.348 646.094 828.438 647.883C827.68 646.129 828.219 641.174 827.794 638.366Z"/><path fill="#FE6512" transform="translate(-197 -325)" d="M312.483 421.543C332.595 419.484 350.568 434.119 352.626 454.231C354.684 474.344 340.047 492.316 319.934 494.372C299.824 496.427 281.855 481.792 279.798 461.683C277.74 441.573 292.374 423.602 312.483 421.543Z"/><path fill="#F12B33" transform="translate(-197 -325)" d="M313.971 719.819C334.053 718.598 351.343 733.844 352.645 753.921C353.947 773.999 338.771 791.35 318.699 792.733C298.512 794.124 281.04 778.842 279.731 758.65C278.421 738.457 293.773 721.047 313.971 719.819Z"/><path fill="#F12B33" transform="translate(-197 -325)" d="M314.243 570.894C334.262 569.815 351.403 585.088 352.63 605.098C353.857 625.109 338.711 642.361 318.71 643.736C298.499 645.125 281.026 629.785 279.786 609.565C278.546 589.345 294.015 571.985 314.243 570.894Z"/></g></svg>