<?xml version="1.0" encoding="utf-8" ?><svg xmlns="http://www.w3.org/2000/svg" xmlns:xlink="http://www.w3.org/1999/xlink" width="656" height="652" viewBox="0 0 656 652"><clipPath id="cl_7"><rect x="3.0517578e-05" y="1.5258789e-05" width="655.78857" height="651.62042"/></clipPath><g clip-path="url(#cl_7)"><defs><linearGradient id="gradient_0" gradientUnits="userSpaceOnUse" x1="305.3446" y1="310.78497" x2="671.16705" y2="651.29364"><stop offset="0" stop-color="#FF9B00"/><stop offset="1" stop-color="#FF4D3A"/></linearGradient></defs><path fill="url(#gradient_0)" transform="matrix(0.694691 0 0 0.694691 -122.266 -100.036)" d="M361.242 964.647C357.021 962.509 350.324 956.258 346.509 953.038C231.376 855.856 176.412 714.071 191.479 564.556C204.088 445.775 263.27 336.837 356.057 261.614C445.471 189.401 559.859 155.565 674.169 167.517C791.107 179.659 892.788 237.216 966.483 328.132C1043.8 424.88 1078.55 548.865 1062.76 671.703C1047.66 787.532 987.325 892.676 894.944 964.163C803.748 1035.3 688.01 1067.26 573.232 1053.01C508.154 1044.43 445.783 1021.54 390.596 986.004C384.652 982.155 366.024 969.371 361.242 964.647ZM908.098 367.652C891.361 348.971 876.465 333.772 856.803 317.883C795.554 269.042 720.497 240.698 642.253 236.862C548.472 231.675 450.908 269.867 381.376 332.201C306.669 400.062 261.709 494.627 256.24 595.406C251.204 695.397 286.283 793.262 353.693 867.286C371.408 886.96 391.171 904.688 412.647 920.169C462.857 957.397 529.697 982.677 591.744 988.657C688.537 998.072 785.088 968.494 859.999 906.477C938.116 842.848 987.543 750.62 997.268 650.338C1007.3 545.986 974.44 448.005 908.098 367.652Z"/><defs><linearGradient id="gradient_1" gradientUnits="userSpaceOnUse" x1="541.65778" y1="532.01959" x2="713.74652" y2="694.49371"><stop offset="0" stop-color="#FF7811"/><stop offset="1" stop-color="#FE0574"/></linearGradient></defs><path fill="url(#gradient_1)" transform="matrix(0.694691 0 0 0.694691 -122.266 -100.036)" d="M557.852 514.42C606.775 479.833 673.678 486.441 714.89 529.93C756.102 573.42 759.105 640.581 721.938 687.575C684.772 734.568 618.725 747.12 566.911 717.037C515.096 686.953 493.252 623.373 515.637 567.797C516.817 564.869 518.11 561.989 519.516 559.162C519.733 558.725 519.953 558.289 520.176 557.855C529.046 540.549 541.973 525.647 557.852 514.42Z"/><path fill="#FF7710" transform="matrix(0.694691 0 0 0.694691 -122.266 -100.036)" d="M520.176 557.855C529.046 540.549 541.973 525.647 557.852 514.42L558.763 516.63C559.838 516.085 559.632 516.153 560.558 515.337L560.961 515.578C561.556 524.228 545.521 540.629 539.247 546.087C534.662 550.076 530.848 560.876 523.927 561.468C520.961 560.431 521.378 561.088 520.176 557.855Z"/><path fill="#FF7710" transform="matrix(0.694691 0 0 0.694691 -122.266 -100.036)" d="M515.637 567.797C516.817 564.869 518.11 561.989 519.516 559.162C520.193 562.9 520.594 564.517 518.511 567.607C516.915 568.024 517.37 567.895 515.637 567.797Z"/><defs><linearGradient id="gradient_2" gradientUnits="userSpaceOnUse" x1="651.95209" y1="635.04803" x2="945.37183" y2="915.8429"><stop offset="0" stop-color="#FF4E36"/><stop offset="1" stop-color="#FD0873"/></linearGradient></defs><path fill="url(#gradient_2)" transform="matrix(0.694691 0 0 0.694691 -122.266 -100.036)" d="M966.483 328.132C1043.8 424.88 1078.55 548.865 1062.76 671.703C1047.66 787.532 987.325 892.676 894.944 964.163C803.748 1035.3 688.01 1067.26 573.232 1053.01C508.154 1044.43 445.783 1021.54 390.596 986.004C384.652 982.155 366.024 969.371 361.242 964.647C366.948 964.945 363.792 966.32 367.11 966.276C367.972 965.543 368.811 964.733 368.937 963.706C367.723 959.354 381.485 953.546 381.547 952.037C381.812 945.512 384.79 943.096 389.265 937.799C390.95 935.804 393.336 932.052 396.622 932.022C401.513 931.978 400.828 928.619 403.569 925.998C404.546 925.115 405.072 924.685 406.02 923.682C406.122 921.508 405.789 922.153 406.755 920.468C409.511 922.219 407.361 922.893 409.706 924.342C411.57 922.811 411.653 922.312 412.647 920.169C462.857 957.397 529.697 982.677 591.744 988.657C688.537 998.072 785.088 968.494 859.999 906.477C938.116 842.848 987.543 750.62 997.268 650.338C1007.3 545.986 974.44 448.005 908.098 367.652C905.293 369.777 908.382 367.122 909.325 366.93C912.329 366.319 914.979 374.764 919.411 375.859C923.196 376.795 925.06 375.688 928.316 374.233C930.565 373.228 932.357 371.716 932.644 369.642C932.945 367.472 934.509 365.689 936.715 364.821C942.052 362.721 945.026 350.432 948.36 347.082C954.903 340.504 959.503 343.367 963.822 331.645C964.27 330.43 964.545 329.68 965.594 328.848C965.89 328.609 966.187 328.371 966.483 328.132Z"/></g></svg>