<?xml version="1.0" encoding="utf-8" ?><svg xmlns="http://www.w3.org/2000/svg" xmlns:xlink="http://www.w3.org/1999/xlink" width="780" height="686" viewBox="0 0 780 686"><clipPath id="cl_5"><rect width="780" height="686"/></clipPath><g clip-path="url(#cl_5)"><defs><linearGradient id="gradient_0" gradientUnits="userSpaceOnUse" x1="557.68701" y1="533.23859" x2="775.38757" y2="1021.731"><stop offset="0" stop-color="#FF792C"/><stop offset="1" stop-color="#EA0763"/></linearGradient></defs><path fill="url(#gradient_0)" transform="translate(-236 -262)" d="M239.401 499.253C238.401 465.375 239.316 427.297 239.273 393.14L239.233 354.661C239.231 346.109 238.885 335.031 240.268 326.844C242.133 315.471 246.597 304.681 253.313 295.315C278.336 259.963 312.653 264.467 350.572 264.475L429.267 264.481L494.254 264.471C527.509 264.481 549.302 261.86 576.05 287.788C589.665 300.986 606.881 333.144 619.726 342.455C638.503 353.448 652.462 351.191 673.518 351.144L723.637 351.091L888.884 351.207C911.346 351.204 945.406 348.681 966.3 355.009C986.44 361.109 1007.18 384.085 1011.82 404.286C1015.42 419.558 1014.52 433.15 1014.48 448.866C1014.35 465.692 1014.34 482.519 1014.43 499.346C1014.9 595.565 1014.8 691.785 1014.13 788.003C1013.9 806.687 1014.22 825.39 1014.06 844.057C1013.96 855.12 1014.95 868.904 1012.87 879.57C1006.6 911.773 980.274 938.939 947.482 943.967C938.209 945.388 928.616 944.999 919.375 944.991L883.759 944.953L760.125 945.158L327.823 945.287C315.407 945.236 303.714 944.914 291.89 940.388C268.313 931.397 249.106 911.059 242.506 886.578C238.673 872.362 239.271 857.439 239.258 842.85C239.233 812.582 239.277 782.301 239.255 752.032C239.252 747.504 239.127 742.788 239.393 738.278C238.739 732.409 239.24 713.33 239.256 706.735L239.267 643.28L239.308 545.606C239.329 531.946 238.647 512.364 239.401 499.253Z"/><defs><linearGradient id="gradient_1" gradientUnits="userSpaceOnUse" x1="613.82965" y1="595.82251" x2="520.04187" y2="351.37189"><stop offset="0" stop-color="#FE6E2C"/><stop offset="1" stop-color="#FFA636"/></linearGradient></defs><path fill="url(#gradient_1)" transform="translate(-236 -262)" d="M239.401 499.253C238.401 465.375 239.316 427.297 239.273 393.14L239.233 354.661C239.231 346.109 238.885 335.031 240.268 326.844C242.133 315.471 246.597 304.681 253.313 295.315C278.336 259.963 312.653 264.467 350.572 264.475L429.267 264.481L494.254 264.471C527.509 264.481 549.302 261.86 576.05 287.788C589.665 300.986 606.881 333.144 619.726 342.455C638.503 353.448 652.462 351.191 673.518 351.144L723.637 351.091L888.884 351.207C911.346 351.204 945.406 348.681 966.3 355.009C986.44 361.109 1007.18 384.085 1011.82 404.286C1015.42 419.558 1014.52 433.15 1014.48 448.866C1014.35 465.692 1014.34 482.519 1014.43 499.346C1012.34 496.96 1011.93 491.606 1010.73 487.836C1006.29 474.071 998.064 461.836 986.992 452.533C986.191 453.266 986.32 453.581 985.3 453.483C979.103 452.893 975.246 449.401 970.344 446.082C969.769 445.692 962.061 441.726 961.675 441.728C955.417 441.763 949.155 442.291 942.874 442.364L891.073 443.46C879.729 443.655 868.383 443.724 857.038 443.669C848.497 443.559 840.291 442.517 831.715 443.566C820.294 444.963 808.054 444.348 796.478 446.122C790.508 446.736 786.125 445.014 780.421 447.187C769.686 451.277 755.191 448.969 744.492 453.544C728.476 460.392 711.249 464.136 696.815 473.842C685.429 481.498 670.032 483.065 659.21 491.895C657.084 493.553 651.371 494.647 648.599 496.072C637.691 501.68 625.394 507.508 615.664 514.834C615.451 514.995 613.263 514.655 612.228 514.912C613.316 516.3 612.676 515.693 614.539 516.385C615.704 516.161 616.14 515.946 617.312 516.125C616.088 517.588 616.087 517.188 615.705 519.015L614.737 519.928C612.845 519.522 607.067 517.557 606.394 517.694C601.189 518.755 596.716 522.01 591.327 522.597C585.365 523.497 581.698 528.558 577.602 531.791C576.028 533.033 568.603 534.781 566.413 535.922C551.713 543.577 536.313 549.482 520.91 555.592L519.751 554.424C517.438 556.861 521.232 556.448 519.113 557.319C514.277 559.308 510.938 558.147 505.841 560.926C504.52 559.636 504.594 559.272 504.085 557.498C503.814 559.038 503.85 560.808 502.627 561.522C495.496 565.681 489.365 571.415 481.931 574.884C481.046 575.297 479.384 577.714 478.732 578.605C471.798 581.144 462.385 578.037 459.928 586.73C459.441 588.452 456.398 591.201 454.57 591.669C453.698 589.064 456.773 590.222 454.289 588.84C450.704 589.432 449.814 592.829 447.197 592.703C444.984 593.957 440.461 596.355 438.63 597.814L438.649 599.916C434.402 601.194 430.658 601.348 426.536 603.968C423.802 605.707 423.228 606.423 420.927 604.417C416.987 605.586 412.556 606.242 412.614 610.635C406.768 615.122 390.076 627.056 382.71 627.668C373.949 628.397 376.719 628.048 368.56 633.753C367.525 634.477 362.802 634.071 362.652 634.178C357.611 637.797 350.561 642.156 346.098 646.316C345.097 647.25 343.921 650.783 342.056 652.229L341.169 652.285C324.519 653.449 317.998 659.406 310.148 672.274C308.761 674.547 294.663 678.119 291.57 679.773C285.452 682.725 281.656 686.273 276.029 689.636C269.973 692.624 263.049 694.073 257.306 697.921C246.662 705.217 248.597 726.875 242.798 735.664L241.62 736.164C241.162 735.725 240.707 735.294 240.259 734.843C240.12 737.471 240.611 736.501 239.393 738.278C238.739 732.409 239.24 713.33 239.256 706.735L239.267 643.28L239.308 545.606C239.329 531.946 238.647 512.364 239.401 499.253Z"/><defs><linearGradient id="gradient_2" gradientUnits="userSpaceOnUse" x1="475.06262" y1="483.61255" x2="419.42844" y2="239.27531"><stop offset="0" stop-color="#FE5D26"/><stop offset="1" stop-color="#FFA832"/></linearGradient></defs><path fill="url(#gradient_2)" transform="translate(-236 -262)" d="M239.401 499.253C238.401 465.375 239.316 427.297 239.273 393.14L239.233 354.661C239.231 346.109 238.885 335.031 240.268 326.844C242.133 315.471 246.597 304.681 253.313 295.315C278.336 259.963 312.653 264.467 350.572 264.475L429.267 264.481L494.254 264.471C527.509 264.481 549.302 261.86 576.05 287.788C589.665 300.986 606.881 333.144 619.726 342.455C619.53 346.271 636.077 368.575 639.424 373.192C659.127 400.367 671.942 427.331 708.496 433.383C614.852 434.524 519.629 433.849 425.917 433.753L349.736 433.787C338.322 433.791 314.4 433.2 303.855 435.095C287.655 437.973 272.768 445.864 261.293 457.655C253.63 465.561 247.141 475.639 243.599 486.176C242.474 489.524 241.099 496.688 239.401 499.253Z"/><path fill="#F53825" transform="translate(-236 -262)" d="M619.726 342.455C638.503 353.448 652.462 351.191 673.518 351.144L723.637 351.091L888.884 351.207C911.346 351.204 945.406 348.681 966.3 355.009C986.44 361.109 1007.18 384.085 1011.82 404.286C1015.42 419.558 1014.52 433.15 1014.48 448.866C1014.35 465.692 1014.34 482.519 1014.43 499.346C1012.34 496.96 1011.93 491.606 1010.73 487.836C1006.29 474.071 998.064 461.836 986.992 452.533C967.418 434.638 944.876 433.71 920.177 433.76L885.261 433.812L771.826 433.802C752.056 433.8 727.803 434.479 708.496 433.383C671.942 427.331 659.127 400.367 639.424 373.192C636.077 368.575 619.53 346.271 619.726 342.455Z"/><path fill="#FE7B31" transform="translate(-236 -262)" d="M617.312 516.125C619.647 516.55 618.863 515.946 620.134 517.426C619.917 518.268 619.753 518.936 619.477 519.762L616.933 519.515C616.79 517.598 616.855 518.1 617.312 516.125Z"/></g></svg>