<?xml version="1.0" encoding="utf-8" ?><svg xmlns="http://www.w3.org/2000/svg" xmlns:xlink="http://www.w3.org/1999/xlink" width="709" height="711" viewBox="0 0 709 711"><clipPath id="cl_7"><rect width="709" height="711"/></clipPath><g clip-path="url(#cl_7)"><defs><linearGradient id="gradient_0" gradientUnits="userSpaceOnUse" x1="458.03473" y1="216.78815" x2="709.46704" y2="608.43909"><stop offset="0" stop-color="#FF8900"/><stop offset="1" stop-color="#FE3D39"/></linearGradient></defs><path fill="url(#gradient_0)" transform="translate(-277 -248)" d="M337.355 411.196C346.87 398.189 356.016 385.772 366.614 373.632C412.216 320.47 472.641 282.122 540.159 263.493C628.633 238.99 723.211 250.559 803.17 295.664C855.298 324.711 899.093 366.658 930.362 417.484C933.77 422.945 944.851 441.254 946.415 446.905C952.502 456.544 960.258 477.684 964.167 488.635L962.698 491.208C961.363 490.158 960.671 489.246 958.734 489.517C949.576 490.797 933.547 513.698 924.767 510.609C923.14 506.809 924.255 507.699 921.21 506.18C920.012 503.908 918.791 500.425 917.938 497.951C912.941 483.46 906.077 470.328 899.112 456.685C892.373 446.932 886.84 436.405 879.491 426.14C854.994 392.545 824.032 364.185 788.421 342.725C719.706 300.871 637.166 288.065 559 307.131C477.834 326.677 410.865 379.463 367.525 450.156C384.425 450.632 401.497 449.862 418.415 450.175C428.485 450.362 443.149 448.704 452.083 453.614C465.667 461.08 469.429 478.345 460.896 491.219C452.324 504.153 438.616 502.629 425.209 502.603L388.943 502.543L338.467 502.601C325.806 502.637 306.805 504.827 296.358 497.105C282.843 487.115 286.003 466.92 286.002 451.697L286.033 401.475L286.025 360.655C286.024 347.723 283.824 333.397 292.774 323.095C297.37 317.761 303.965 314.564 310.999 314.26C321.565 313.811 333.823 321.426 336.231 332.117C338.268 341.161 337.389 354.824 337.375 364.397L337.355 411.196Z"/><path fill="#FA393F" transform="translate(-277 -248)" d="M946.415 446.905C952.502 456.544 960.258 477.684 964.167 488.635L962.698 491.208C961.363 490.158 960.671 489.246 958.734 489.517C949.576 490.797 933.547 513.698 924.767 510.609C923.14 506.809 924.255 507.699 921.21 506.18C920.012 503.908 918.791 500.425 917.938 497.951C912.941 483.46 906.077 470.328 899.112 456.685C903.454 458.988 908.179 472.053 914.526 474.006C915.309 474.247 916.514 472.995 917.395 472.332C923.511 473.378 932.768 462.725 936.744 458.371C937.881 458.889 937.305 458.521 938.386 459.598C939.06 457.9 938.702 458.367 939.837 457.039L941.175 458.303C942.166 456.134 942.12 453.755 943.921 452.352C946.462 452.898 945.037 454.133 947.874 454.722L948.009 453.664C946.592 450.688 946.062 450.152 946.415 446.905Z"/><defs><linearGradient id="gradient_1" gradientUnits="userSpaceOnUse" x1="743.59991" y1="622.02228" x2="892.17444" y2="853.39838"><stop offset="0" stop-color="#F9383B"/><stop offset="1" stop-color="#F30179"/></linearGradient></defs><path fill="url(#gradient_1)" transform="translate(-277 -248)" d="M964.167 488.635C969.038 503.692 973.096 517.123 976.301 532.667C992.646 612.126 981.17 694.79 943.798 766.793C902.638 847.448 825.15 912.7 738.737 940.46C656.298 966.944 557.076 961.405 478.955 922.719C477.765 922.13 476.191 921.261 475.084 920.569C468.153 918.721 447.052 905.196 440.625 901.202C385.944 867.216 341.932 817.475 313.399 759.834C298.239 729.054 287.679 696.216 282.054 662.369C280.714 654.291 278.409 641.917 281.396 635.203C293.264 610.727 326.254 616.398 328.109 645.674C329.743 671.453 340.113 704.609 350.172 728.212C377.064 789.773 423.524 840.737 482.341 873.194C494.496 879.847 507.298 886.106 520.127 891.366C526.571 894.008 533.421 896.039 539.952 898.676C602.778 916.477 659.312 919.777 722.706 900.133C799.913 875.774 864.404 821.961 902.196 750.365C934.54 689.052 945.287 618.63 932.702 550.461C929.775 534.542 925.981 521.58 921.21 506.18C924.255 507.699 923.14 506.809 924.767 510.609C933.547 513.698 949.576 490.797 958.734 489.517C960.671 489.246 961.363 490.158 962.698 491.208L964.167 488.635Z"/><path fill="#FA393F" transform="translate(-277 -248)" d="M475.084 920.569C468.153 918.721 447.052 905.196 440.625 901.202C385.944 867.216 341.932 817.475 313.399 759.834C298.239 729.054 287.679 696.216 282.054 662.369C280.714 654.291 278.409 641.917 281.396 635.203C293.264 610.727 326.254 616.398 328.109 645.674C329.743 671.453 340.113 704.609 350.172 728.212C377.064 789.773 423.524 840.737 482.341 873.194C494.496 879.847 507.298 886.106 520.127 891.366C526.571 894.008 533.421 896.039 539.952 898.676C542.802 901.403 551.617 903.177 555.658 904.251C600.763 916.24 648.884 917.647 694.628 908.403C698.563 907.608 711.451 904.139 714.799 904.229L715.707 904.976C713.783 912.972 702.825 919.394 696.425 924.34C694.788 925.605 686.093 929.083 685.536 929.589C682.253 932.574 665.044 942.013 663.728 945.033C663.881 949.381 665.555 948.099 664.838 951.834C661.565 954.717 658.092 951.426 653.542 952.59L652.697 953.323L653.665 954.897C650.995 955.699 644.711 954.861 641.165 955.001C599.442 956.834 557.743 950.884 518.199 937.456C509.075 934.371 500.113 930.827 491.346 926.84C487.809 925.272 478.347 920.345 475.084 920.569Z"/><defs><linearGradient id="gradient_2" gradientUnits="userSpaceOnUse" x1="563.20605" y1="463.87012" x2="776.42523" y2="715.17133"><stop offset="0" stop-color="#FF5E19"/><stop offset="1" stop-color="#F72854"/></linearGradient></defs><path fill="url(#gradient_2)" transform="translate(-277 -248)" d="M624.754 415.3L625.296 415.274C644.398 414.504 652.098 426.263 651.714 443.666C651.45 455.611 651.666 468.166 651.647 480.164L651.563 574.499C665.797 584.03 671.639 596.742 672.013 613.571C699.202 636.432 729.089 657.294 756.801 679.574C763.072 684.615 772.422 690.478 774.704 698.604C780.996 721.011 758.734 739.456 737.853 727.283C727.725 720.419 711.105 706.481 701.201 698.681L641.83 652.264C635.115 653.875 629.735 654.955 622.777 654.111C611.024 652.715 600.339 646.616 593.16 637.207C586.132 628.1 583.056 616.552 584.622 605.155C586.552 591.554 593.779 582.489 604.351 574.42C603.573 529.032 604.455 482.637 604.541 437.178C604.563 425.474 613.849 417.807 624.754 415.3Z"/></g></svg>