<?xml version="1.0" encoding="UTF-8"?>
<svg xmlns="http://www.w3.org/2000/svg" xmlns:xlink="http://www.w3.org/1999/xlink" width="24px" height="24px" viewBox="0 0 24 24" version="1.1">
<defs>
<linearGradient id="linear0" gradientUnits="userSpaceOnUse" x1="451.275757" y1="243.00502" x2="910.913635" y2="872.120361" gradientTransform="matrix(0.0191388,0,0,0.0191388,0,0)">
<stop offset="0" style="stop-color:rgb(100%,46.27451%,3.529412%);stop-opacity:1;"/>
<stop offset="1" style="stop-color:rgb(97.254902%,5.098039%,34.509804%);stop-opacity:1;"/>
</linearGradient>
</defs>
<g id="surface1">
<path style=" stroke:none;fill-rule:nonzero;fill:url(#linear0);" d="M 4.332031 13.441406 C 4.292969 13.40625 4.246094 13.34375 4.210938 13.300781 C 3.695312 12.660156 3.269531 11.910156 3.019531 11.125 C 2.554688 9.632812 2.691406 8.015625 3.402344 6.625 C 4.082031 5.308594 5.214844 4.296875 6.632812 3.851562 C 7.488281 3.574219 8.40625 3.546875 9.273438 3.777344 C 9.4375 3.820312 9.722656 3.902344 9.863281 3.976562 C 10.703125 4.277344 11.414062 4.867188 12.050781 5.472656 C 12.6875 4.863281 13.25 4.425781 14.050781 4.0625 C 17.761719 2.390625 21.507812 5.691406 21.351562 9.507812 C 21.257812 11.8125 20.105469 13.175781 18.535156 14.738281 L 17.105469 16.144531 L 14.984375 18.230469 C 14.65625 18.554688 14.332031 18.882812 14 19.203125 C 13.640625 19.542969 13.214844 19.804688 12.746094 19.960938 C 11.992188 20.214844 11.199219 20.027344 10.554688 19.589844 C 10.152344 19.316406 9.808594 18.945312 9.464844 18.605469 L 8.261719 17.410156 L 6.023438 15.210938 C 5.492188 14.683594 4.957031 14.164062 4.464844 13.601562 C 4.429688 13.5625 4.355469 13.488281 4.332031 13.441406 Z M 6.984375 6.171875 C 6.875 6.234375 6.75 6.285156 6.628906 6.359375 C 6.21875 6.605469 5.867188 6.941406 5.605469 7.34375 C 5.085938 8.140625 4.90625 9.175781 5.101562 10.101562 C 5.421875 11.625 6.730469 12.785156 7.792969 13.832031 L 10.132812 16.125 L 11.019531 16.988281 C 11.191406 17.15625 11.410156 17.390625 11.605469 17.523438 C 11.882812 17.707031 12.324219 17.667969 12.574219 17.445312 C 12.777344 17.261719 12.980469 17.0625 13.183594 16.867188 L 14.359375 15.71875 C 15.039062 15.058594 15.714844 14.394531 16.386719 13.722656 C 17.433594 12.683594 18.660156 11.605469 18.996094 10.105469 C 19.308594 8.695312 18.75 7.136719 17.496094 6.367188 C 17.175781 6.171875 16.816406 6.046875 16.445312 6 C 15.363281 5.863281 14.398438 6.378906 13.621094 7.085938 C 13.46875 7.230469 13.320312 7.378906 13.175781 7.53125 C 12.902344 7.820312 12.703125 8.097656 12.296875 8.1875 C 11.832031 8.296875 11.445312 8.128906 11.136719 7.78125 C 10.253906 6.777344 9.070312 5.800781 7.636719 6 C 7.460938 6.027344 7.316406 6.074219 7.144531 6.113281 C 7.117188 6.128906 7.015625 6.167969 6.984375 6.171875 Z M 6.984375 6.171875 "/>
<path style=" stroke:none;fill-rule:nonzero;fill:rgb(99.607843%,54.11765%,3.921569%);fill-opacity:1;" d="M 4.332031 13.441406 C 4.292969 13.40625 4.246094 13.34375 4.210938 13.300781 C 3.695312 12.660156 3.269531 11.910156 3.019531 11.125 C 2.554688 9.632812 2.691406 8.015625 3.402344 6.625 C 4.082031 5.308594 5.214844 4.296875 6.632812 3.851562 C 7.488281 3.574219 8.40625 3.546875 9.273438 3.777344 C 9.4375 3.820312 9.722656 3.902344 9.863281 3.976562 C 9.929688 4.042969 9.988281 4.035156 10.046875 4.09375 C 10.039062 4.179688 9.78125 4.25 9.707031 4.269531 C 9.691406 4.273438 9.675781 4.324219 9.675781 4.335938 L 9.65625 4.316406 C 9.605469 4.335938 9.566406 4.441406 9.519531 4.472656 C 9.476562 4.472656 9.421875 4.46875 9.394531 4.5 C 9.347656 4.550781 9.335938 4.660156 9.269531 4.699219 C 9.191406 4.746094 9.09375 4.722656 9.039062 4.808594 C 8.988281 4.890625 8.890625 4.839844 8.832031 4.882812 C 8.664062 5 8.539062 5.15625 8.332031 5.191406 C 8.308594 5.195312 8.285156 5.308594 8.25 5.3125 C 8.183594 5.351562 8.085938 5.375 8.039062 5.429688 C 7.96875 5.503906 7.941406 5.632812 7.871094 5.710938 C 7.78125 5.785156 7.65625 5.765625 7.558594 5.871094 C 7.585938 5.878906 7.589844 5.875 7.613281 5.894531 C 7.582031 5.925781 7.558594 5.945312 7.523438 5.972656 C 7.460938 5.960938 7.449219 5.945312 7.402344 6.003906 C 7.347656 6.070312 7.191406 6.042969 7.144531 6.113281 C 7.117188 6.128906 7.015625 6.167969 6.984375 6.171875 C 6.839844 6.160156 6.601562 6.386719 6.464844 6.414062 C 6.449219 6.417969 6.429688 6.394531 6.414062 6.378906 L 6.398438 6.382812 L 6.382812 6.410156 C 6.371094 6.382812 6.371094 6.378906 6.367188 6.355469 L 6.351562 6.351562 C 6.335938 6.378906 6.339844 6.367188 6.328125 6.398438 C 6.320312 6.378906 6.324219 6.390625 6.324219 6.363281 L 6.296875 6.359375 C 6.253906 6.402344 6.285156 6.472656 6.226562 6.511719 C 6.09375 6.609375 5.929688 6.6875 5.785156 6.769531 C 5.582031 6.886719 5.386719 7.019531 5.203125 7.164062 C 4.140625 7.996094 3.488281 9.210938 3.46875 10.570312 C 3.460938 11.394531 3.730469 12.257812 4.113281 12.984375 C 4.164062 13.078125 4.308594 13.308594 4.347656 13.410156 C 4.34375 13.421875 4.335938 13.433594 4.332031 13.441406 Z M 4.332031 13.441406 "/>
</g>
</svg>
