<?xml version="1.0" encoding="UTF-8"?>
<svg xmlns="http://www.w3.org/2000/svg" xmlns:xlink="http://www.w3.org/1999/xlink" width="24px" height="24px" viewBox="0 0 24 24" version="1.1">
<defs>
<linearGradient id="linear0" gradientUnits="userSpaceOnUse" x1="438.199615" y1="230.093933" x2="832.121399" y2="545.986389" gradientTransform="matrix(0.0191388,0,0,0.0191388,0,0)">
<stop offset="0" style="stop-color:rgb(100%,61.960784%,0%);stop-opacity:1;"/>
<stop offset="1" style="stop-color:rgb(100%,25.490196%,27.058824%);stop-opacity:1;"/>
</linearGradient>
<linearGradient id="linear1" gradientUnits="userSpaceOnUse" x1="194.835037" y1="626.256348" x2="580.331848" y2="984.768433" gradientTransform="matrix(0.0191388,0,0,0.0191388,0,0)">
<stop offset="0" style="stop-color:rgb(100%,59.607843%,0%);stop-opacity:1;"/>
<stop offset="1" style="stop-color:rgb(99.215686%,15.686275%,32.941176%);stop-opacity:1;"/>
</linearGradient>
<linearGradient id="linear2" gradientUnits="userSpaceOnUse" x1="739.46106" y1="684.442749" x2="988.299377" y2="949.994324" gradientTransform="matrix(0.0191388,0,0,0.0191388,0,0)">
<stop offset="0" style="stop-color:rgb(100%,33.333333%,20%);stop-opacity:1;"/>
<stop offset="1" style="stop-color:rgb(97.647059%,3.529412%,41.960784%);stop-opacity:1;"/>
</linearGradient>
<linearGradient id="linear3" gradientUnits="userSpaceOnUse" x1="372.314545" y1="474.377625" x2="557.647583" y2="601.803833" gradientTransform="matrix(0.0191388,0,0,0.0191388,0,0)">
<stop offset="0" style="stop-color:rgb(100%,70.196078%,21.960784%);stop-opacity:1;"/>
<stop offset="1" style="stop-color:rgb(100%,70.588235%,51.764706%);stop-opacity:1;"/>
</linearGradient>
<linearGradient id="linear4" gradientUnits="userSpaceOnUse" x1="592.682434" y1="610.135559" x2="635.96521" y2="653.097717" gradientTransform="matrix(0.0191388,0,0,0.0191388,0,0)">
<stop offset="0" style="stop-color:rgb(100%,52.941176%,0%);stop-opacity:1;"/>
<stop offset="1" style="stop-color:rgb(99.607843%,26.666667%,34.117647%);stop-opacity:1;"/>
</linearGradient>
<linearGradient id="linear5" gradientUnits="userSpaceOnUse" x1="664.720337" y1="682.84613" x2="632.348572" y2="641.975403" gradientTransform="matrix(0.0191388,0,0,0.0191388,0,0)">
<stop offset="0" style="stop-color:rgb(98.431373%,0%,40.392157%);stop-opacity:1;"/>
<stop offset="1" style="stop-color:rgb(98.823529%,23.921569%,28.235294%);stop-opacity:1;"/>
</linearGradient>
</defs>
<g id="surface1">
<path style=" stroke:none;fill-rule:nonzero;fill:url(#linear0);" d="M 11.945312 2.980469 C 12.050781 2.972656 12.3125 2.992188 12.421875 3.003906 C 13.808594 3.113281 15.097656 3.777344 15.992188 4.847656 C 16.730469 5.734375 17.160156 6.839844 17.210938 7.992188 C 17.226562 8.355469 17.203125 8.621094 17.171875 8.976562 C 16.84375 8.867188 16.621094 8.777344 16.269531 8.691406 C 15.179688 8.421875 14.035156 8.496094 12.988281 8.902344 C 12.632812 9.042969 12.367188 9.1875 12.042969 9.386719 L 12.007812 9.402344 C 11.9375 9.386719 11.742188 9.25 11.664062 9.207031 C 10.101562 8.351562 8.488281 8.355469 6.835938 8.972656 C 6.816406 8.796875 6.804688 8.621094 6.796875 8.445312 C 6.738281 7.046875 7.238281 5.683594 8.183594 4.652344 C 8.929688 3.84375 9.914062 3.292969 10.992188 3.082031 C 11.339844 3.015625 11.597656 2.996094 11.945312 2.980469 Z M 11.945312 2.980469 "/>
<path style=" stroke:none;fill-rule:nonzero;fill:url(#linear1);" d="M 10.214844 19.539062 C 9.214844 19.824219 8.148438 19.800781 7.15625 19.472656 C 5.789062 19.015625 4.65625 18.039062 4.007812 16.75 C 3.363281 15.488281 3.253906 14.015625 3.710938 12.671875 C 4.082031 11.566406 4.8125 10.613281 5.785156 9.964844 C 6.019531 9.808594 6.242188 9.6875 6.496094 9.5625 C 6.523438 9.703125 6.554688 9.84375 6.589844 9.980469 C 6.929688 11.257812 7.679688 12.390625 8.722656 13.199219 C 8.980469 13.398438 9.214844 13.535156 9.496094 13.699219 C 9.480469 13.847656 9.46875 13.996094 9.464844 14.148438 C 9.425781 15.449219 9.832031 16.722656 10.621094 17.761719 C 10.824219 18.03125 10.996094 18.21875 11.226562 18.460938 C 11.386719 18.601562 11.503906 18.722656 11.679688 18.855469 C 11.257812 19.136719 10.707031 19.398438 10.214844 19.539062 Z M 10.214844 19.539062 "/>
<path style=" stroke:none;fill-rule:nonzero;fill:rgb(99.215686%,17.647059%,32.941177%);fill-opacity:1;" d="M 11.226562 18.460938 C 11.386719 18.601562 11.503906 18.722656 11.679688 18.855469 C 11.257812 19.136719 10.707031 19.398438 10.214844 19.539062 C 10.300781 19.398438 10.636719 19.433594 10.675781 19.308594 C 10.667969 19.289062 10.644531 19.238281 10.648438 19.226562 C 10.691406 19.117188 10.886719 19.039062 10.964844 18.957031 C 11.023438 18.894531 11.070312 18.847656 11.105469 18.789062 C 11.152344 18.707031 11.164062 18.601562 11.234375 18.546875 C 11.261719 18.546875 11.253906 18.550781 11.277344 18.542969 C 11.25 18.507812 11.242188 18.5 11.226562 18.460938 Z M 11.226562 18.460938 "/>
<path style=" stroke:none;fill-rule:nonzero;fill:url(#linear2);" d="M 17.511719 9.570312 C 17.625 9.613281 17.84375 9.726562 17.941406 9.800781 C 19.066406 10.402344 19.976562 11.609375 20.34375 12.824219 C 20.753906 14.179688 20.605469 15.648438 19.921875 16.890625 C 19.257812 18.125 18.089844 19.105469 16.746094 19.507812 C 15.414062 19.921875 13.964844 19.773438 12.738281 19.101562 C 12.613281 19.035156 12.449219 18.9375 12.332031 18.855469 C 13.558594 17.878906 14.34375 16.457031 14.515625 14.898438 C 14.5625 14.433594 14.535156 14.140625 14.515625 13.691406 C 15.886719 12.945312 16.90625 11.6875 17.351562 10.191406 C 17.367188 10.144531 17.382812 10.085938 17.394531 10.042969 C 17.4375 9.886719 17.472656 9.726562 17.511719 9.570312 Z M 17.511719 9.570312 "/>
<path style=" stroke:none;fill-rule:nonzero;fill:rgb(99.607843%,33.725491%,20.784314%);fill-opacity:1;" d="M 17.511719 9.570312 C 17.625 9.613281 17.84375 9.726562 17.941406 9.800781 C 17.910156 9.832031 17.894531 9.941406 17.855469 9.976562 C 17.785156 10.042969 17.660156 10.089844 17.597656 10.152344 L 17.574219 10.175781 L 17.558594 10.125 C 17.503906 10.09375 17.503906 10.164062 17.4375 10.117188 C 17.429688 10.09375 17.425781 10.070312 17.417969 10.050781 L 17.394531 10.042969 C 17.4375 9.886719 17.472656 9.726562 17.511719 9.570312 Z M 17.511719 9.570312 "/>
<path style=" stroke:none;fill-rule:nonzero;fill:rgb(99.607843%,58.039218%,51.372552%);fill-opacity:1;" d="M 9.914062 13.902344 C 10.046875 13.957031 10.183594 14.007812 10.320312 14.058594 C 11.511719 14.488281 12.933594 14.4375 14.082031 13.894531 C 14.171875 15.144531 13.878906 16.203125 13.207031 17.253906 C 12.851562 17.789062 12.492188 18.164062 12.007812 18.582031 C 10.59375 17.445312 9.796875 15.722656 9.914062 13.902344 Z M 9.914062 13.902344 "/>
<path style=" stroke:none;fill-rule:nonzero;fill:rgb(99.607843%,58.039218%,51.372552%);fill-opacity:1;" d="M 14.761719 8.945312 C 15.613281 8.914062 16.320312 9.054688 17.101562 9.375 C 17.09375 9.445312 17.078125 9.515625 17.066406 9.582031 C 16.761719 11.042969 15.886719 12.320312 14.632812 13.128906 L 14.445312 13.238281 C 14.429688 13.125 14.40625 13.007812 14.382812 12.894531 C 14.125 11.671875 13.40625 10.378906 12.34375 9.683594 C 13.082031 9.21875 13.894531 8.996094 14.761719 8.945312 Z M 14.761719 8.945312 "/>
<path style=" stroke:none;fill-rule:nonzero;fill:url(#linear3);" d="M 8.808594 8.945312 C 9.832031 8.878906 10.769531 9.175781 11.644531 9.671875 C 11.445312 9.851562 11.269531 9.972656 11.0625 10.175781 C 10.496094 10.742188 10.070312 11.425781 9.808594 12.179688 C 9.707031 12.488281 9.644531 12.765625 9.578125 13.078125 C 9.570312 13.128906 9.5625 13.183594 9.558594 13.234375 C 9.429688 13.175781 9.285156 13.082031 9.171875 13 C 7.96875 12.136719 7.152344 10.835938 6.894531 9.375 C 7.496094 9.117188 8.160156 8.980469 8.808594 8.945312 Z M 8.808594 8.945312 "/>
<path style=" stroke:none;fill-rule:nonzero;fill:url(#linear4);" d="M 12 10.953125 C 12.140625 11.453125 12.15625 11.710938 12.597656 12.0625 C 12.769531 12.164062 12.914062 12.242188 13.105469 12.289062 C 13.171875 12.304688 13.289062 12.316406 13.34375 12.339844 C 13.324219 12.375 13.101562 12.398438 13.046875 12.417969 C 12.660156 12.527344 12.347656 12.769531 12.179688 13.136719 C 12.132812 13.238281 12.097656 13.332031 12.070312 13.441406 C 12.050781 13.515625 12.042969 13.613281 12.007812 13.683594 C 11.972656 13.652344 11.945312 13.46875 11.929688 13.410156 C 11.867188 13.1875 11.742188 12.945312 11.582031 12.777344 C 11.269531 12.472656 11.023438 12.429688 10.613281 12.34375 C 10.910156 12.269531 11.078125 12.273438 11.359375 12.089844 C 11.792969 11.808594 11.898438 11.421875 12 10.953125 Z M 12 10.953125 "/>
<path style=" stroke:none;fill-rule:nonzero;fill:url(#linear5);" d="M 12.597656 12.0625 C 12.769531 12.164062 12.914062 12.242188 13.105469 12.289062 C 13.171875 12.304688 13.289062 12.316406 13.34375 12.339844 C 13.324219 12.375 13.101562 12.398438 13.046875 12.417969 C 12.660156 12.527344 12.347656 12.769531 12.179688 13.136719 C 12.132812 13.238281 12.097656 13.332031 12.070312 13.441406 C 12.050781 13.515625 12.042969 13.613281 12.007812 13.683594 C 11.972656 13.652344 11.945312 13.46875 11.929688 13.410156 C 11.867188 13.1875 11.742188 12.945312 11.582031 12.777344 L 11.621094 12.769531 L 11.65625 12.796875 C 11.78125 12.796875 11.992188 12.453125 12.027344 12.335938 C 12.105469 12.304688 12.21875 12.332031 12.292969 12.292969 C 12.402344 12.238281 12.460938 12.144531 12.570312 12.09375 C 12.597656 12.082031 12.589844 12.085938 12.597656 12.0625 Z M 12.597656 12.0625 "/>
</g>
</svg>
