<svg xmlns="http://www.w3.org/2000/svg" width="24" height="24" viewBox="0 0 24 24">
<defs>
<linearGradient id="g0" x1="635.5" y1="568.76" x2="958.36" y2="762.83" gradientTransform="scale(0.01914)">
<stop offset="0" stop-color="#FF5C1C"/><stop offset="1" stop-color="#D10569"/>
</linearGradient>
<linearGradient id="g1" x1="376.92" y1="490.47" x2="647.2" y2="661.57" gradientTransform="scale(0.01914)">
<stop offset="0" stop-color="#FF6A18"/><stop offset="1" stop-color="#FF2445"/>
</linearGradient>
<linearGradient id="g4" x1="470.79" y1="292.28" x2="621.58" y2="420.84" gradientTransform="scale(0.01914)">
<stop offset="0" stop-color="#FF6819"/><stop offset="1" stop-color="#FF393B"/>
</linearGradient>
<linearGradient id="g5" x1="498.09" y1="360.75" x2="594.25" y2="444.88" gradientTransform="scale(0.01914)">
<stop offset="0" stop-color="#FF5628"/><stop offset="1" stop-color="#FF343B"/>
</linearGradient>
</defs>
<path fill="url(#g0)" d="M17.5 7.5c.3 0 .5.1.6.3 0 .1 0 .3 0 .4v3.5l-.1 4.2c-.1.5.1 1.2-.3 1.6-.2.9-1.3 1.5-2.2 1.2-.3-.1-.6-.4-.8-.7-.2-.4-.2-.7 0-1.1.1-.5.5-.8.9-1 .5-.3.9-.2 1.4 0 0-.8 0-1.7 0-2.6 0-.3 0-.7 0-1 0 0-.2 0-.4 0-.2.1-2.7.7-2.8.7-.1.1 0 .3 0 .4v4.3l-.1 1.1c-.2.8-1.2 1.4-2 .1-.1-.2-.4-.5-.6-.9l.2-1.1.8-1c.5-.2.9-.2 1.4-.1v-4.5l-.1-1c0-.3 0-.5 0-.7.1-.6.5-.6 1-.7l1 .3 1.4-.4c.3 0 .7-.2.9-.2z"/>
<path fill="url(#g1)" d="M6.9 9.7H8.2l2.3.1 1.4-.1h.3c.4 0 .7 0 .7.5v1.1l-.1.8c-.1 0-.9 0-1.1 0l-4 .1H7l-.1-.3v-1.3c0-.2 0-.5 0-.7.1-.2.3-.3.4-.3zm.5 1.6c.1 0 .2-.1.3-.3 0-.1 0-.3-.1-.4l-.4-.1c-.2.1-.3.3-.3.5.1.2.3.3.5.3z"/>
<path fill="#FE6C15" d="M6.1 11l.1-.3c0-.2 0-.6 0-.8.1-.1.3-.2.4-.3.3 0 .5 0 .8 0 0 0 .1 0 .2 0l-.1.3c-.2.3-.4.6-.6.9l-.1.1h-.1c-.1.1-.2.2-.2.3zm0 0z"/>
<path fill="url(#g4)" d="M10.2 5.6c.1 0 .2 0 .3 0 .7 0 1.4.3 1.9.7l.4.5c0 .2-.2.3-.3.3-.2-.1-.3-.2-.4-.3-.4-.4-.9-.6-1.5-.6-.6 0-1.4.2-1.9.6l-.7-.3c.1-.1.3-.4.5-.4.5-.5 1.1-.6 1.8-.7zm.1 1.3c.5 0 1.3.2 1.6.6.2.1.1.4 0 .5-.3.1-.5-.3-.7-.4-.2-.1-.3-.1-.6-.2-.5 0-.9.2-1.2.5l-.2.1c-.3 0-.4-.3-.2-.5.3-.4.8-.6 1.3-.6z"/>
<circle cx="10.4" cy="8" r="1" fill="#FE3938"/>
</svg>