<svg xmlns="http://www.w3.org/2000/svg" width="24" height="24" viewBox="0 0 24 24">
<defs>
<linearGradient id="g0" x1="436.95" y1="455.65" x2="842.6" y2="810.52" gradientTransform="scale(0.01914)">
<stop offset="0" stop-color="#FF6C1B"/><stop offset="1" stop-color="#DC095E"/>
</linearGradient>
</defs>
<path fill="url(#g0)" d="M15.9 6.3c.2 0 .4.1.5.4 0 0 0 .2 0 .3v7l.1 2.4c-.1.5-.4.8-.8 1-.4.3-.9.3-1.3.2-.4-.1-.8-.4-1-.8-.2-.4-.3-.9-.1-1.4.1-.4.4-.8.8-1 .4-.3.9-.3 1.4-.1h.1c0-.1 0-1.9 0-2.2v-1.2-.8c0-.1 0-.3 0-.3h-.1c-.2 0-1.5.2-1.8.3l-2.5.5-2.3.5h-.5c-.1 0-.2 0-.3.2 0 .6 0 1.2 0 1.7v3.9c0 .6-.1 1-.5 1.4-.3.3-.8.5-1.2.5-.5 0-.9-.2-1.2-.5-.3-.3-.5-.8-.5-1.2 0-.5.2-.9.5-1.2.4-.4 1-.5 1.5-.4l.4.1v-.7L9 8.9l-.1-1c0-.4 0-.9.2-1.1l.7-.2c.1 0 .3 0 .5 0l1.6-.3 2.6-.6.8-.1c.1 0 .3 0 .5-.1z"/>
<path fill="#FE6031" d="M10.8 8.9c0 0 .1 0 .1 0 0 0-.1 0-.1.1 0 0 0 0 0 0 0 0 0 0 0 0z"/>
</svg>