<?xml version="1.0" encoding="UTF-8"?>
<svg xmlns="http://www.w3.org/2000/svg" xmlns:xlink="http://www.w3.org/1999/xlink" width="24px" height="24px" viewBox="0 0 24 24" version="1.1">
<defs>
<linearGradient id="linear0" gradientUnits="userSpaceOnUse" x1="305.344604" y1="310.784973" x2="671.167053" y2="651.29364" gradientTransform="matrix(0.0191388,0,0,0.0191388,0,0)">
<stop offset="0" style="stop-color:rgb(100%,60.784314%,0%);stop-opacity:1;"/>
<stop offset="1" style="stop-color:rgb(100%,30.196078%,22.745098%);stop-opacity:1;"/>
</linearGradient>
<linearGradient id="linear1" gradientUnits="userSpaceOnUse" x1="541.657776" y1="532.019592" x2="713.746521" y2="694.493713" gradientTransform="matrix(0.0191388,0,0,0.0191388,0,0)">
<stop offset="0" style="stop-color:rgb(100%,47.058824%,6.666667%);stop-opacity:1;"/>
<stop offset="1" style="stop-color:rgb(99.607843%,1.960784%,45.490196%);stop-opacity:1;"/>
</linearGradient>
<linearGradient id="linear2" gradientUnits="userSpaceOnUse" x1="651.952087" y1="635.048035" x2="945.371826" y2="915.842896" gradientTransform="matrix(0.0191388,0,0,0.0191388,0,0)">
<stop offset="0" style="stop-color:rgb(100%,30.588235%,21.176471%);stop-opacity:1;"/>
<stop offset="1" style="stop-color:rgb(99.215686%,3.137255%,45.098039%);stop-opacity:1;"/>
</linearGradient>
</defs>
<g id="surface1">
<path style=" stroke:none;fill-rule:nonzero;fill:url(#linear0);" d="M 6.914062 18.460938 C 6.832031 18.421875 6.703125 18.300781 6.632812 18.238281 C 4.429688 16.378906 3.375 13.667969 3.664062 10.804688 C 3.90625 8.53125 5.039062 6.445312 6.816406 5.007812 C 8.527344 3.625 10.714844 2.976562 12.902344 3.207031 C 15.140625 3.4375 17.085938 4.539062 18.496094 6.28125 C 19.976562 8.132812 20.640625 10.503906 20.339844 12.855469 C 20.050781 15.074219 18.894531 17.085938 17.128906 18.453125 C 15.382812 19.8125 13.167969 20.425781 10.972656 20.152344 C 9.726562 19.988281 8.53125 19.550781 7.476562 18.871094 C 7.363281 18.796875 7.003906 18.550781 6.914062 18.460938 Z M 17.378906 7.035156 C 17.058594 6.679688 16.773438 6.386719 16.398438 6.082031 C 15.226562 5.148438 13.789062 4.605469 12.292969 4.535156 C 10.496094 4.433594 8.628906 5.164062 7.300781 6.359375 C 5.871094 7.65625 5.007812 9.464844 4.902344 11.394531 C 4.808594 13.308594 5.480469 15.183594 6.769531 16.597656 C 7.109375 16.976562 7.488281 17.316406 7.898438 17.609375 C 8.859375 18.324219 10.136719 18.808594 11.324219 18.921875 C 13.179688 19.101562 15.027344 18.535156 16.460938 17.347656 C 17.953125 16.132812 18.898438 14.367188 19.085938 12.445312 C 19.277344 10.449219 18.648438 8.574219 17.378906 7.035156 Z M 17.378906 7.035156 "/>
<path style=" stroke:none;fill-rule:nonzero;fill:url(#linear1);" d="M 10.675781 9.84375 C 11.613281 9.183594 12.894531 9.308594 13.683594 10.140625 C 14.472656 10.972656 14.527344 12.261719 13.816406 13.160156 C 13.105469 14.058594 11.839844 14.300781 10.851562 13.722656 C 9.859375 13.148438 9.441406 11.929688 9.867188 10.867188 C 9.890625 10.8125 9.914062 10.753906 9.941406 10.703125 C 9.945312 10.691406 9.953125 10.683594 9.957031 10.675781 C 10.125 10.34375 10.371094 10.058594 10.675781 9.84375 Z M 10.675781 9.84375 "/>
<path style=" stroke:none;fill-rule:nonzero;fill:rgb(100%,46.666667%,6.27451%);fill-opacity:1;" d="M 9.957031 10.675781 C 10.125 10.34375 10.371094 10.058594 10.675781 9.84375 L 10.695312 9.886719 C 10.714844 9.878906 10.710938 9.878906 10.726562 9.863281 L 10.734375 9.867188 C 10.746094 10.03125 10.441406 10.347656 10.320312 10.453125 C 10.234375 10.527344 10.160156 10.734375 10.027344 10.746094 C 9.96875 10.726562 9.980469 10.738281 9.957031 10.675781 Z M 9.957031 10.675781 "/>
<path style=" stroke:none;fill-rule:nonzero;fill:rgb(100%,46.666667%,6.27451%);fill-opacity:1;" d="M 9.867188 10.867188 C 9.890625 10.8125 9.914062 10.753906 9.941406 10.703125 C 9.957031 10.773438 9.964844 10.804688 9.921875 10.863281 C 9.894531 10.871094 9.902344 10.867188 9.867188 10.867188 Z M 9.867188 10.867188 "/>
<path style=" stroke:none;fill-rule:nonzero;fill:url(#linear2);" d="M 18.496094 6.28125 C 19.976562 8.132812 20.640625 10.503906 20.339844 12.855469 C 20.050781 15.074219 18.894531 17.085938 17.128906 18.453125 C 15.382812 19.8125 13.167969 20.425781 10.972656 20.152344 C 9.726562 19.988281 8.53125 19.550781 7.476562 18.871094 C 7.363281 18.796875 7.003906 18.550781 6.914062 18.460938 C 7.023438 18.46875 6.960938 18.496094 7.027344 18.492188 C 7.042969 18.480469 7.058594 18.464844 7.0625 18.445312 C 7.039062 18.359375 7.300781 18.25 7.300781 18.222656 C 7.308594 18.097656 7.363281 18.050781 7.449219 17.949219 C 7.480469 17.910156 7.527344 17.839844 7.589844 17.835938 C 7.683594 17.835938 7.671875 17.773438 7.722656 17.722656 C 7.742188 17.707031 7.753906 17.699219 7.769531 17.679688 C 7.773438 17.636719 7.765625 17.648438 7.785156 17.617188 C 7.835938 17.648438 7.796875 17.664062 7.839844 17.691406 C 7.875 17.660156 7.878906 17.652344 7.898438 17.609375 C 8.859375 18.324219 10.136719 18.808594 11.324219 18.921875 C 13.179688 19.101562 15.027344 18.535156 16.460938 17.347656 C 17.953125 16.132812 18.898438 14.367188 19.085938 12.445312 C 19.277344 10.449219 18.648438 8.574219 17.378906 7.035156 C 17.328125 7.078125 17.386719 7.027344 17.402344 7.023438 C 17.460938 7.011719 17.511719 7.171875 17.597656 7.195312 C 17.667969 7.210938 17.703125 7.191406 17.765625 7.164062 C 17.808594 7.144531 17.84375 7.113281 17.851562 7.074219 C 17.855469 7.03125 17.886719 7 17.925781 6.980469 C 18.03125 6.941406 18.085938 6.707031 18.152344 6.644531 C 18.277344 6.515625 18.363281 6.570312 18.445312 6.347656 C 18.453125 6.324219 18.460938 6.308594 18.480469 6.292969 C 18.484375 6.289062 18.492188 6.285156 18.496094 6.28125 Z M 18.496094 6.28125 "/>
</g>
</svg>
