<?xml version="1.0" encoding="utf-8" ?><svg xmlns="http://www.w3.org/2000/svg" xmlns:xlink="http://www.w3.org/1999/xlink" width="24" height="24" viewBox="0 0 800 678"><clipPath id="cl_b"><rect width="24" height="24"/></clipPath><g clip-path="url(#cl_b)"><defs><linearGradient id="gradient_0" gradientUnits="userSpaceOnUse" x1="533.58392" y1="532.97559" x2="818.06238" y2="964.68323"><stop offset="0" stop-color="#F8553A"/><stop offset="1" stop-color="#D81175"/></linearGradient></defs><path fill="url(#gradient_0)" transform="translate(-219 -288)" d="M454.51 408.521C461.731 408.814 468.991 408.398 476.209 408.751C500.124 410.027 517.947 406.262 535.477 425.713C546.819 438.299 559.497 461.93 576.911 464.378C600.566 467.702 627.752 465.038 651.844 466.015C673.322 465.473 696.345 465.867 717.924 465.863L848.119 465.861C873.685 465.876 900.157 466.229 925.625 465.712C965.085 472.623 963.979 496.827 963.811 530.174L963.682 570.439L963.692 703.774L963.746 796.648C963.786 813.877 964.51 835.079 962.356 851.974C960.667 865.226 949.159 880.034 938.114 887.559C930.53 892.838 921.64 895.927 912.417 896.49C898.358 897.463 880.94 896.801 866.627 896.73L797.221 896.734L562.522 896.703L413.476 896.731L376.351 896.83C346.29 897.021 318.385 898.241 299.828 870.045C288.692 853.125 288.889 833.545 289.359 814.012C290.407 770.528 288.708 726.679 289.702 683.219C288.821 667.775 289.622 649.491 289.626 633.846L289.631 537.177L289.544 490.695C289.431 476.549 288.695 459.992 291.136 446.224C292.671 437.12 296.949 428.702 303.398 422.095C319.181 406.236 340.013 409.207 360.29 408.999C382.04 408.522 405.117 409.787 426.983 409.175C435.233 408.944 446.548 409.426 454.51 408.521ZM612.924 733.062C587.242 728.668 557.084 738.276 552.042 766.931C550.594 775.52 552.671 784.331 557.802 791.37C578.9 820.906 636.082 805.124 639.086 768.166C640.105 755.641 639.328 740.71 639.315 727.996L639.262 641.135C639.182 636.512 638.439 630.995 640.768 627.199C644.031 625.341 648.059 624.485 651.683 623.614C662.729 620.959 750.908 602.634 756.148 603.832C757.254 604.085 757.27 604.319 757.994 605.091C760.128 612.272 759.347 639.483 759.32 648.362L759.335 706.48C695.336 694.072 675.663 771.352 729.874 779.214C743.611 781.315 757.619 777.86 768.804 769.612C788.708 754.705 785.775 736.695 785.697 714.576L785.699 670.182L785.73 600.596C785.745 588.497 786.253 576.478 785.587 564.393C785.069 554.998 783.498 547.424 772.485 546.449C772.039 546.411 771.591 546.382 771.143 546.361C743.486 550.514 711.028 558.036 683.073 563.454L646.45 570.514C636.697 572.374 622.555 573.245 615.918 581.366C614.133 583.55 613.433 589.305 613.155 592.217C612.825 607.57 612.973 623.282 612.922 638.634C612.686 670.109 612.686 701.586 612.924 733.062Z"/><defs><linearGradient id="gradient_1" gradientUnits="userSpaceOnUse" x1="341.78391" y1="396.75134" x2="475.11221" y2="597.28607"><stop offset="0" stop-color="#FF8521"/><stop offset="1" stop-color="#F84D3C"/></linearGradient></defs><path fill="url(#gradient_1)" transform="translate(-219 -288)" d="M454.51 408.521C461.731 408.814 468.991 408.398 476.209 408.751C500.124 410.027 517.947 406.262 535.477 425.713C546.819 438.299 559.497 461.93 576.911 464.378C600.566 467.702 627.752 465.038 651.844 466.015C647.932 466.93 639.273 467.293 635.424 466.283L634.574 467.163C636.345 467.395 638.969 467.502 640.277 468.493C635.169 475.095 602.454 493.967 594.639 500.304C591.766 502.635 584.346 505.03 581.938 507.168C570.445 517.378 557.605 524.616 544.781 532.894C535.656 538.785 526.951 545.086 518.14 551.164C518.072 551.211 516.498 550.805 516.449 550.793C508.714 555.258 500.903 561.682 493.463 566.893C477.969 577.747 461.647 587.045 446.314 598.106C443.929 599.827 441.233 599.564 438.918 601.087C436.125 604.088 434.037 608.902 432.006 612.226L430.918 611.447L430.819 610.264C430.709 609.033 430.716 608.797 430.191 607.643L429.432 607.592C429.036 610.995 429.568 619.058 428.91 620.719C428.864 613.541 429.791 586.887 427.519 582.302C426.956 537.996 428.048 493.587 427.165 449.306C426.944 438.264 406.912 442.713 402.651 448.293C400.206 451.494 398.691 454.708 398.306 458.866C397.547 471.361 398.024 484.346 398.045 496.866L398.108 565.508C398.146 577.341 398.662 594.897 397.974 606.389C395.81 609.808 398.63 641.854 396.695 649.148C395.967 646.209 395.954 642.443 394.613 640.66C392.92 639.994 392.989 640.067 391.146 640.057L390.622 639.503C389.044 637.866 388.696 637.209 386.474 636.774C382.943 637.103 378.403 643.916 377.019 644.14C366.627 645.823 370.041 651.411 363.334 659.268C361.57 656.618 363.959 654.965 361.882 653.778C360.478 656.253 361.776 662.679 360.964 663.602C360.941 657.641 361.681 631.648 359.539 628.125C358.971 586.592 359.372 544.232 359.42 502.654L359.421 467.965C359.454 463.555 360.067 456.276 359.725 452.211C358.251 434.692 330.899 442.126 330.368 458.846C329.814 476.288 330.005 493.43 330.03 510.86L330.055 594.191C330.056 608.488 330.425 624.672 329.964 638.847C326.439 649.904 329.47 672.146 328.552 684.419C328.304 687.741 329.032 691.843 328.456 695.186C325.427 692.833 325.099 681.498 319 681.863C316.824 682.122 314.682 684.269 313.124 685.675C311.727 686.935 308.229 687.699 307.089 688.737C303.265 692.223 304.423 693.228 298.744 693.443C297.135 695.489 294.613 699.414 292.418 699.998C290.546 695.26 292.041 685.578 289.702 683.219C288.821 667.775 289.622 649.491 289.626 633.846L289.631 537.177L289.544 490.695C289.431 476.549 288.695 459.992 291.136 446.224C292.671 437.12 296.949 428.702 303.398 422.095C319.181 406.236 340.013 409.207 360.29 408.999C382.04 408.522 405.117 409.787 426.983 409.175C435.233 408.944 446.548 409.426 454.51 408.521Z"/><path fill="#515050" transform="translate(-219 -288)" d="M329.964 638.847C330.425 624.672 330.056 608.488 330.055 594.191L330.03 510.86C330.005 493.43 329.814 476.288 330.368 458.846C330.899 442.126 358.251 434.692 359.725 452.211C360.067 456.276 359.454 463.555 359.421 467.965L359.42 502.654C359.372 544.232 358.971 586.592 359.539 628.125C358.529 703.299 360.209 778.733 359.271 853.927C359.171 861.943 356.484 864.191 348.493 863.918C326.304 863.161 329.917 842.643 329.98 826.737L330.018 789.396C330.241 756.085 330.249 722.772 330.04 689.46C330.029 673.225 330.454 654.921 329.964 638.847Z"/><path fill="#515050" transform="translate(-219 -288)" d="M397.974 606.389C398.662 594.897 398.146 577.341 398.108 565.508L398.045 496.866C398.024 484.346 397.547 471.361 398.306 458.866C398.691 454.708 400.206 451.494 402.651 448.293C406.912 442.713 426.944 438.264 427.165 449.306C428.048 493.587 426.956 537.996 427.519 582.302C426.676 646.389 427.463 712.462 427.46 776.693L427.521 824.742C427.583 834.048 427.838 843.399 427.646 852.699C427.248 855.985 427.895 859.454 425.016 861.694C418.946 866.417 406.82 863.184 402.132 857.871C396.642 851.648 397.968 837.995 397.973 829.873L398.035 797.389L397.972 665.737L398.16 625.066C398.164 620.91 398.394 609.829 397.974 606.389Z"/><defs><linearGradient id="gradient_2" gradientUnits="userSpaceOnUse" x1="621.36237" y1="291.41214" x2="766.88824" y2="551.8866"><stop offset="0" stop-color="#FE662A"/><stop offset="1" stop-color="#FE1847"/></linearGradient></defs><path fill="url(#gradient_2)" transform="translate(-219 -288)" d="M540.3 335.234C559.803 334.5 577.518 334.31 592.71 348.184C605.454 359.822 615.979 383.964 632.051 390.232C646.269 395.778 676.09 393.612 691.876 393.597L824.369 393.582L864.966 393.516C878.414 393.486 892.997 391.996 905.266 398.168C930.332 410.779 925.826 442.226 925.625 465.712C900.157 466.229 873.685 465.876 848.119 465.861L717.924 465.863C696.345 465.867 673.322 465.473 651.844 466.015C627.752 465.038 600.566 467.702 576.911 464.378C559.497 461.93 546.819 438.299 535.477 425.713C517.947 406.262 500.124 410.027 476.209 408.751C468.991 408.398 461.731 408.814 454.51 408.521C446.548 409.426 435.233 408.944 426.983 409.175C405.117 409.787 382.04 408.522 360.29 408.999C360.061 406.105 359.874 403.208 359.73 400.309C358.994 382.818 359.871 363.307 372.432 349.72C389.838 330.894 419.081 336.034 442.263 335.498C474.739 334.749 507.85 336.523 540.3 335.234Z"/><path fill="#FE701E" transform="translate(-219 -288)" d="M360.29 408.999C360.061 406.105 359.874 403.208 359.73 400.309C358.994 382.818 359.871 363.307 372.432 349.72C389.838 330.894 419.081 336.034 442.263 335.498C474.739 334.749 507.85 336.523 540.3 335.234C541.114 337.155 541.824 338.678 541.168 340.771C539.43 346.317 502.215 368.99 495.086 374.637C493.406 375.969 475.459 391.142 474.766 392.078C473.807 393.375 474.537 394.319 472.935 395.714C467.332 400.592 460.351 403.952 454.51 408.521C446.548 409.426 435.233 408.944 426.983 409.175C405.117 409.787 382.04 408.522 360.29 408.999Z"/></g></svg>