<?xml version="1.0" encoding="utf-8" ?><svg xmlns="http://www.w3.org/2000/svg" xmlns:xlink="http://www.w3.org/1999/xlink" width="24" height="24" viewBox="0 0 754 702"><clipPath id="cl_5"><rect x="5.3405762e-05" y="1.5258789e-05" width="24" height="24"/></clipPath><g clip-path="url(#cl_5)"><defs><linearGradient id="gradient_0" gradientUnits="userSpaceOnUse" x1="438.19962" y1="230.09393" x2="832.1214" y2="545.98639"><stop offset="0" stop-color="#FF9E00"/><stop offset="1" stop-color="#FF4145"/></linearGradient></defs><path fill="url(#gradient_0)" transform="matrix(0.756269 0 0 0.756269 -114.197 -102.853)" d="M624.243 155.789C629.655 155.405 643.299 156.388 648.962 156.88C721.575 162.663 788.821 197.379 835.588 253.226C874.226 299.598 896.613 357.348 899.325 417.646C900.132 436.504 898.895 450.452 897.235 469.037C880.078 463.235 868.372 458.515 850.133 454.095C793.191 440.144 733.339 444.006 678.661 465.158C660.161 472.513 646.152 480.147 629.188 490.464L627.358 491.369C623.806 490.388 613.55 483.365 609.52 481.156C527.845 436.39 443.584 436.574 357.136 468.729C356.178 459.586 355.485 450.417 355.057 441.233C352.13 368.218 378.187 297.005 427.549 243.123C466.567 200.887 518.007 172.155 574.43 161.082C592.504 157.579 606.026 156.608 624.243 155.789Z"/><defs><linearGradient id="gradient_1" gradientUnits="userSpaceOnUse" x1="194.83504" y1="626.25635" x2="580.33185" y2="984.76843"><stop offset="0" stop-color="#FF9800"/><stop offset="1" stop-color="#FD2854"/></linearGradient></defs><path fill="url(#gradient_1)" transform="matrix(0.756269 0 0 0.756269 -114.197 -102.853)" d="M533.767 1020.92C481.381 1035.88 425.702 1034.69 374.001 1017.51C302.5 993.653 243.343 942.474 209.445 875.149C175.711 809.17 170.087 732.353 193.852 662.164C213.256 604.271 251.369 554.479 302.186 520.631C314.524 512.411 326.235 506.244 339.481 499.632C340.84 506.961 342.479 514.235 344.395 521.438C362.073 588.199 401.175 647.313 455.697 689.703C469.176 700.013 481.545 707.261 496.162 715.75C495.318 723.528 494.786 731.338 494.567 739.159C492.514 807.136 513.809 873.766 554.906 927.952C565.475 942.058 574.592 951.837 586.656 964.558C594.998 971.992 601.151 978.201 610.205 985.151C588.134 999.921 559.358 1013.64 533.767 1020.92Z"/><path fill="#FD2D54" transform="matrix(0.756269 0 0 0.756269 -114.197 -102.853)" d="M586.656 964.558C594.998 971.992 601.151 978.201 610.205 985.151C588.134 999.921 559.358 1013.64 533.767 1020.92C538.138 1013.48 555.704 1015.38 557.761 1008.79C557.358 1007.89 556.086 1005.3 556.405 1004.52C558.716 998.855 568.797 994.757 572.934 990.486C576.014 987.307 578.411 984.83 580.26 981.695C582.711 977.539 583.28 971.974 587.018 969.105C588.384 969.112 587.979 969.182 589.307 968.837C587.878 967.097 587.504 966.621 586.656 964.558Z"/><defs><linearGradient id="gradient_2" gradientUnits="userSpaceOnUse" x1="739.46106" y1="684.44275" x2="988.29938" y2="949.99432"><stop offset="0" stop-color="#F53"/><stop offset="1" stop-color="#F9096B"/></linearGradient></defs><path fill="url(#gradient_2)" transform="matrix(0.756269 0 0 0.756269 -114.197 -102.853)" d="M914.913 499.974C920.92 502.331 932.237 508.222 937.523 512.045C996.234 543.564 1043.84 606.618 1062.92 670.034C1084.46 740.97 1076.55 817.589 1040.97 882.628C1006.29 947.005 945.243 998.223 875.074 1019.28C805.286 1040.9 729.713 1033.24 665.673 998.082C659.142 994.525 650.436 989.558 644.373 985.292C708.349 934.221 749.373 859.793 758.393 778.431C760.925 754.116 759.377 738.832 758.481 715.35C830.152 676.409 883.447 610.624 906.672 532.433C907.386 530.075 908.156 526.912 908.925 524.711C911.045 516.594 912.96 508.155 914.913 499.974Z"/><path fill="#FE5635" transform="matrix(0.756269 0 0 0.756269 -114.197 -102.853)" d="M914.913 499.974C920.92 502.331 932.237 508.222 937.523 512.045C935.879 513.766 934.917 519.39 932.881 521.296C929.279 524.668 922.782 527.149 919.446 530.523L918.758 531.209L918.23 531.749L917.532 529.058C914.503 527.5 914.638 531.126 911.016 528.522C910.753 527.352 910.464 526.221 910.051 525.096L908.925 524.711C911.045 516.594 912.96 508.155 914.913 499.974Z"/><path fill="#FE9483" transform="matrix(0.756269 0 0 0.756269 -114.197 -102.853)" d="M518.024 726.495C525.043 729.282 532.098 731.98 539.186 734.587C601.436 757.004 675.856 754.428 735.767 726.088C740.495 791.247 725.096 846.516 690.1 901.578C671.502 929.485 652.69 949.169 627.481 970.871C553.467 911.432 511.878 821.551 518.024 726.495Z"/><path fill="#FE9483" transform="matrix(0.756269 0 0 0.756269 -114.197 -102.853)" d="M771.313 467.461C815.864 465.674 852.642 473.105 893.626 489.887C893.212 493.428 892.381 497.122 891.634 500.624C875.813 576.939 830.001 643.7 764.488 685.916L754.827 691.695C753.873 685.685 752.776 679.698 751.536 673.739C738.102 609.871 700.399 542.297 644.968 506.044C683.613 481.73 726.009 470.084 771.313 467.461Z"/><defs><linearGradient id="gradient_3" gradientUnits="userSpaceOnUse" x1="372.31454" y1="474.37762" x2="557.64758" y2="601.80383"><stop offset="0" stop-color="#FFB338"/><stop offset="1" stop-color="#FFB484"/></linearGradient></defs><path fill="url(#gradient_3)" transform="matrix(0.756269 0 0 0.756269 -114.197 -102.853)" d="M460.256 467.474C513.631 463.922 562.641 479.376 608.495 505.374C597.928 514.768 588.756 520.985 577.944 531.644C548.517 561.198 526.16 597.028 512.548 636.45C507.11 652.504 503.877 666.929 500.478 683.425C500.058 686.044 499.735 688.76 499.386 691.395C492.77 688.522 485.209 683.512 479.271 679.322C416.383 634.115 373.668 566.106 360.254 489.827C391.607 476.311 426.28 469.297 460.256 467.474Z"/><defs><linearGradient id="gradient_4" gradientUnits="userSpaceOnUse" x1="592.68243" y1="610.13556" x2="635.96521" y2="653.09772"><stop offset="0" stop-color="#FF8700"/><stop offset="1" stop-color="#FE4457"/></linearGradient></defs><path fill="url(#gradient_4)" transform="matrix(0.756269 0 0 0.756269 -114.197 -102.853)" d="M627.099 572.328C634.319 598.479 635.176 611.847 658.226 630.331C667.117 635.632 674.682 639.569 684.862 642.111C688.316 642.973 694.345 643.481 697.168 644.719C696.279 646.613 684.609 647.918 681.611 648.773C661.473 654.515 645.128 667.186 636.363 686.432C633.893 691.667 632.158 696.665 630.677 702.261C629.624 706.237 629.154 711.311 627.466 714.869C625.576 713.248 624.153 703.733 623.302 700.709C620.02 689.045 613.615 676.312 605.079 667.62C588.754 651.669 576.04 649.44 554.59 644.984C570.082 641.128 578.75 641.221 593.502 631.666C616.158 616.99 621.655 596.86 627.099 572.328Z"/><defs><linearGradient id="gradient_5" gradientUnits="userSpaceOnUse" x1="664.72034" y1="682.84613" x2="632.34857" y2="641.9754"><stop offset="0" stop-color="#FB0067"/><stop offset="1" stop-color="#FC3D48"/></linearGradient></defs><path fill="url(#gradient_5)" transform="matrix(0.756269 0 0 0.756269 -114.197 -102.853)" d="M658.226 630.331C667.117 635.632 674.682 639.569 684.862 642.111C688.316 642.973 694.345 643.481 697.168 644.719C696.279 646.613 684.609 647.918 681.611 648.773C661.473 654.515 645.128 667.186 636.363 686.432C633.893 691.667 632.158 696.665 630.677 702.261C629.624 706.237 629.154 711.311 627.466 714.869C625.576 713.248 624.153 703.733 623.302 700.709C620.02 689.045 613.615 676.312 605.079 667.62L607.106 667.266L609.092 668.699C615.525 668.692 626.491 650.614 628.522 644.611C632.568 642.882 638.337 644.308 642.225 642.351C647.97 639.459 651.049 634.487 656.876 631.959C658.21 631.38 657.746 631.487 658.226 630.331Z"/></g></svg>