<svg xmlns="http://www.w3.org/2000/svg" width="24" height="24" viewBox="0 0 24 24">
<defs>
<linearGradient id="g0" x1="533.58" y1="532.97" x2="818.06" y2="964.68" gradientTransform="scale(0.01914)">
<stop offset="0" stop-color="#F8553A"/><stop offset="1" stop-color="#D81175"/>
</linearGradient>
<linearGradient id="g1" x1="341.78" y1="396.75" x2="475.11" y2="597.28" gradientTransform="scale(0.01914)">
<stop offset="0" stop-color="#FF8521"/><stop offset="1" stop-color="#F84D3C"/>
</linearGradient>
<linearGradient id="g2" x1="621.36" y1="291.41" x2="766.88" y2="551.88" gradientTransform="scale(0.01914)">
<stop offset="0" stop-color="#FE662A"/><stop offset="1" stop-color="#FE1847"/>
</linearGradient>
</defs>
<path fill="url(#g0)" d="M8.7 7.8a5 5 0 011.5 0c.5 0 .8 0 1.2.3l.8.8c.4 0 1 0 1.4 0h3.7l1.5-.1c.8.2.8.6.7 1.3v5.1c0 .3 0 .7-.1 1 -.1.3-.3.6-.4.7-.2.1-.3.2-.5.2h-.9l-4.5-.1-2.8.1h-.7c-.6 0-1.1.1-1.5-.5-.2-.3-.2-.7-.2-1 0-.9-.1-1.7 0-2.5 0-.3 0-.7 0-1v-2.7c0-.3 0-.6.1-.9 0-.1.1-.3.2-.4.3-.3.7-.3 1.1-.3h1.3c.1 0 .4 0 .5-.1zm3 6.2c-.5-.1-1 .1-1.2.7 0 .1 0 .3.1.4.4.6 1.5.3 1.6-.4v-.8l-.1-.4c.2 0 .3-.2.4-.2v3.4c0 .3 0 .7-.1 1-.1.2-.3.5-.5.6l-1.2-.1-1.4.1h-3.7l-.8.1c-.4 0-.8.1-1.1-.3-.2-.2-.5-.6-.7-1.2h.2v-.7h-.2v-.3h.4c0-.2 0-.4-.1-.6l.4-.2h-.2l.4.3.1.1c0 .1 0 .3.1.6.3 0 .5 0 .8-.1l2.9.1h3.2c.2 0 .4 0 .6-.1.2-.1.4-.3.5-.6 0-.3 0-.6-.1-.8 0-.3 0-.7 0-1l.1-1.6c0-.4.1-.8 0-1.2 0 0 0 0 0 0zm-7.8-1.9c.3 0 .5.1.7.4v.2l-3 2.1c-.1.1-.1.2-.2.3l.5-.1c.2 0 .4.1.6.3-.5 0-.8.5-1.5.7h-.2l-.5.2h-.3l.2-.2c0-.1 0-.2.1-.3l-.1.1c-.2.2-.7.8-.8.9l-.5-.1-.3.1-.2-.5.1-.7c.2-1.1.4-2.2.7-3.3.3-.6.8-1.2 1.4-1.5zm6.3-.5l.6.2c.3 0 .6-.1 1 0z"/>
<path fill="#515050" d="M6.3 12.2v-1.6l-.1-1a.4.4 0 01.6-.1c0 .1 0 .2 0 .4V12l-.1 4.3-.1.6c0 .2 0 .3-.2.3h-.2v-4.9zm1.3-.6v-1.3l-.1-.7v-.2a.6.6 0 01.6.2c0 .8 0 1.7 0 2.5 0 1.3 0 2.5 0 3.8v.9l-.1.2h-.2c0-.2.1-.4.1-.6z"/>
<path fill="url(#g2)" d="M10.3 6.4c.4 0 .7 0 1 .3.3.2.5.7.8.8.2.1.8.1 1.1.1h3.3l1 .1.1 1.3-1.5-.1h-2.5c-.5 0-1 .1-1.5 0-.3-.1-.5-.5-.8-.7-.3-.4-.7-.3-1.1-.4h-.8c-.2.1-.3.4-.3.8l.2 1c0 .9 0 2.2.2 3.3 0 .2 0 .5-.1.7l-.1.6.2.1c.1 0 0 .1 0 .1h-.6z"/>
<path fill="#FE701E" d="M6.9 7.8c0 0 0 0 0 0l.2-.8.3-1c.3-.4.9-.3 1.3-.3.7 0 1.3 0 1.9 0 .1.1.1.1 0 .2-.1 0-.8.5-.9.6-.1 0-.4.3-.4.3h-.4c-.2.1-.3.2-.5.3h-.8c-.2 0-.4 0-.6.1zm0 0z"/>
</svg>