<svg xmlns="http://www.w3.org/2000/svg" width="24" height="24" viewBox="0 0 24 24">
<defs>
<linearGradient id="g0" x1="67.55" y1="119.7" x2="138.47" y2="160.57" gradientTransform="scale(0.08571)">
<stop offset="0" stop-color="#AC5CC3"/><stop offset="1" stop-color="#6A77CD"/>
</linearGradient>
<linearGradient id="g1" x1="134.17" y1="160.85" x2="251.6" y2="227.76" gradientTransform="scale(0.08571)">
<stop offset="0" stop-color="#6E76CC"/><stop offset="1" stop-color="#01A3DC"/>
</linearGradient>
</defs>
<path fill="#000B25" d="M7.5 21.4c-1-.1-2.2-.3-3.2-.6-.5-.1-1.5-.5-1.8-1-.3-.7 0-2.1.2-2.8.4-1.2 1-2.6 1.5-3.8 1.5-3 3.1-6 5.1-8.6.5-.6 2-2.5 2.9-2.2 1.2.6 2.2 2 3 3l.6.9c.4.5.7 1 1 1.5 1.4 2.3 5 8.8 4.7 11.4 0 .4-.1.6-.4.8-.7.5-1.7.7-2.5.9-2.5.5-5.1.6-7.7.5zm1.4-5.9l.2.2c.6.3 1.8.4 2.6.4.3 0 .5 0 .7.1 0-.4-.7-3.4-2.2-5-.8-.5-1.4-.8-2.2.4-.4 1-.5 3.9-.2 4.9z"/>
<path fill="url(#g0)" d="M7.5 21.4c-1-.1-2.2-.3-3.2-.6-.5-.1-1.5-.5-1.8-1-.3-.7 0-2.1.2-2.8.4-1.2 1-2.6 1.5-3.8 1.5-3 3.1-6 5.1-8.6.5-.6 2-2.5 2.9-2.2 1.2.6 2.2 2 3 3l.6.9v.2c0 .1-.2.2-.2.2l-.7 1.3c-.1.2-.2.3-.3.5 0 0-.3 0-.3 0-.4-.6-1.5-2.3-2.3-2.4-.3 0-.5.2-.7.3-1.9 1.5-5.3 7.8-5.6 10.3 0 .3 0 .6.1.9.5.7 2.2.8 3.1 1l-.2.1c-.1.1-.2.3-.3.5-.2.6-.7 1.2-.9 1.9 0 .1-.1.1-.1.2h.1c0 0 0 .1 0 .1z"/>
<path fill="url(#g1)" d="M15.9 6.4c.4.5.7 1 1 1.5 1.4 2.3 5 8.8 4.7 11.4 0 .4-.1.6-.4.8-.7.5-1.7.7-2.5.9-2.5.5-5.1.6-7.7.5-.3 0-.5-.1-.6-.3l-.2-.3s.1-.1.2-.3c.2-.7.7-1.2.9-1.9.1-.2.2-.3.3-.5 0 0 .2 0 .2 0 .2 0 .4 0 .6.1.4 0 .8.1 1.3.1 1.7 0 5.6 0 7-.8.3-.1.4-.3.5-.5.1-.5 0-1-.1-1.5-.5-1.9-1.7-4.2-2.8-5.9-.3-.5-.6-1-.9-1.4l-.4-.3.5-.6c.2-.4.5-.8.7-1.3v-.2z"/>
</svg>