<?xml version="1.0" encoding="utf-8" ?><svg xmlns="http://www.w3.org/2000/svg" xmlns:xlink="http://www.w3.org/1999/xlink" width="24" height="24" viewBox="0 0 823 823"><path transform="scale(4.1138 4.1138)" d="M90.6616 0L109.155 0C111.158 0.630187 114.436 0.908878 116.634 1.29843C121.064 2.07803 125.442 3.13325 129.741 4.45796C155.176 12.4479 176.409 30.1905 188.79 53.801C193.056 62.0933 196.159 70.9339 198.01 80.0733C198.372 81.9247 199.699 90.5229 200 91.3744L200 108.85C199.511 110.414 199.312 112.222 199.084 113.852C198.324 119.271 197.169 124.346 195.568 129.571C187.587 155.076 169.817 176.375 146.154 188.796C139.114 192.489 130.148 195.704 122.417 197.583C120.465 198.057 110.631 199.551 109.657 200L90.6266 200C89.6416 199.618 82.2922 198.464 80.4747 198.12C75.0394 197.12 69.7167 195.584 64.5845 193.533C31.7854 180.746 8.13802 153.134 1.60762 118.32C1.26243 116.479 0.545448 110.784 0 109.66L0 90.3581C0.82403 88.4185 1.79168 80.7145 2.35496 78.1613C9.93849 43.7875 35.7505 15.3013 69.3726 4.72861C74.1535 3.22611 79.0211 2.01485 83.9487 1.10149C85.7144 0.763054 89.2451 0.53494 90.585 0.0296427L90.6616 0Z"/><path fill="#0085FF" transform="scale(4.1138 4.1138)" d="M96.7916 8.25264C147.422 6.4806 189.914 46.0631 191.733 96.6917C193.551 147.32 154.007 189.849 103.38 191.713C52.6878 193.58 10.0924 153.974 8.27187 103.28C6.45133 52.5863 46.096 10.027 96.7916 8.25264Z"/><path transform="scale(4.1138 4.1138)" d="M97.4749 61.6985C118.65 60.3021 136.936 76.359 138.29 97.5364C139.644 118.714 123.55 136.968 102.37 138.279C81.2502 139.587 63.0589 123.549 61.7091 102.432C60.3593 81.3144 76.3605 63.0909 97.4749 61.6985Z"/><path fill="#FEFEFE" transform="scale(4.1138 4.1138)" d="M99.7511 69.8418C116.381 69.7042 129.983 83.0556 130.156 99.6853C130.328 116.315 117.005 129.945 100.375 130.152C83.697 130.359 70.0181 116.988 69.8455 100.309C69.6729 83.6308 83.0722 69.9797 99.7511 69.8418Z"/><path transform="scale(4.1138 4.1138)" d="M98.7995 88.6262C105.084 87.96 110.717 92.5203 111.373 98.8061C112.03 105.092 107.46 110.717 101.174 111.364C94.9007 112.009 89.2904 107.452 88.6356 101.18C87.9807 94.9083 92.5287 89.2909 98.7995 88.6262Z"/><path fill="#FEFEFE" transform="scale(4.1138 4.1138)" d="M98.7757 97.1284C100.362 96.4531 102.195 97.19 102.873 98.7752C103.551 100.36 102.816 102.195 101.232 102.875C99.6446 103.556 97.8055 102.82 97.1265 101.232C96.4474 99.6431 97.1862 97.805 98.7757 97.1284Z"/><path transform="scale(4.1138 4.1138)" d="M173.077 111.051C180.636 110.598 177.303 119.394 176.003 123.484C172.247 135.692 165.625 146.824 156.688 155.95C142.086 171.048 121.365 179.229 100.489 179.563C94.0741 179.51 95.3051 171.931 98.9696 171.7C109.207 171.057 117.293 169.926 127.015 166.024C143.125 159.559 158.169 145.651 165.037 129.536C166.307 126.547 167.404 123.487 168.324 120.372C169.034 117.931 169.696 115.294 170.599 112.915C171.059 111.704 171.873 111.521 173.077 111.051Z"/><path transform="scale(4.1138 4.1138)" d="M93.7692 20.6017C96.0773 20.4668 98.5027 20.1731 100.795 20.583C105.148 21.3616 105.221 27.3394 100.919 28.226C96.0821 29.1163 91.1408 28.9188 86.2726 29.8951C63.7063 34.4207 44.3765 49.591 34.876 70.6037C32.6852 75.4491 31.2483 80.8916 29.8227 86.1037C28.7015 88.8056 25.9726 90.0479 23.4199 88.1627C20.8134 86.2378 22.8635 80.4575 23.628 77.6574C26.3774 67.5874 32.0701 57.0829 38.782 49.1425C52.5189 32.6112 72.3442 22.3209 93.7692 20.6017Z"/><path transform="scale(4.1138 4.1138)" d="M156.876 95.7332C159.139 95.9579 160.009 97.0649 161.207 98.8047C161.242 99.2572 161.259 99.7388 161.255 100.193C160.987 134.059 134.066 160.924 99.9797 161.281C95.2293 160.724 94.3463 154.824 98.8293 153.32C101.705 152.493 105.15 152.793 108.062 152.378C132.062 148.965 151.937 127.79 152.688 103.377C152.801 99.6905 153.038 97.1277 156.876 95.7332Z"/><path transform="scale(4.1138 4.1138)" d="M96.0645 38.8499C98.0301 38.7131 99.1234 38.6961 101.089 38.8029C103.263 40.2412 105.409 42.4026 103.447 44.9922C101.098 48.0932 94.4561 47.0925 90.8001 47.7376C69.3709 51.5182 52.3242 68.2411 47.9801 89.5362C47.2054 93.3339 47.8366 99.8743 45.8641 102.633C45.2453 103.178 44.0947 104.135 43.2603 104.146C36.713 104.143 38.9483 94.677 39.5419 90.6823C40.8723 81.7299 43.8079 73.7349 48.9016 66.2192C60.315 49.3784 76.1988 40.8089 96.0645 38.8499Z"/><path transform="scale(4.1138 4.1138)" d="M175.024 95.7688C178.936 95.988 180.597 99.5446 179.304 102.992C178.612 104.838 177.6 105.32 175.939 106.069C170.618 105.889 169.272 98.2495 175.024 95.7688Z"/><path transform="scale(4.1138 4.1138)" d="M23.5867 94.0203C29.3327 93.687 30.7337 101.248 25.311 104.118C21.4126 104.547 19.5736 100.744 20.5838 97.4029C21.2024 95.3566 21.8513 94.9864 23.5867 94.0203Z"/></svg>