<svg xmlns="http://www.w3.org/2000/svg" width="24" height="24" viewBox="0 0 24 24">
<defs>
<linearGradient id="g0" x1="393.55" y1="408.33" x2="899.17" y2="880.52" gradientTransform="scale(0.01914)">
<stop offset="0" stop-color="#FF7E18"/><stop offset="1" stop-color="#E70471"/>
</linearGradient>
<linearGradient id="g1" x1="561.35" y1="610.76" x2="684.73" y2="724.88" gradientTransform="scale(0.01914)">
<stop offset="0" stop-color="#FF463C"/><stop offset="1" stop-color="#FD1E53"/>
</linearGradient>
<linearGradient id="g2" x1="575.95" y1="515.66" x2="676.55" y2="633.99" gradientTransform="scale(0.01914)">
<stop offset="0" stop-color="#FF7624"/><stop offset="1" stop-color="#FF3046"/>
</linearGradient>
</defs>
<path fill="url(#g0)" d="M7.9 7.9v-1.1c0-.6 0-1 .5-1.5.4-.4.9-.4 1.4-.4h2.3c1 0 1.9 0 2.7 0h.8c.6 0 1.2 0 1.6.4.4.4.5.7.5 1.3v6.3l-.1 3.5v.7c0 .3 0 .6 0 .8-.1.3-.2.5-.4.8-.4.3-.8.4-1.3.4H13.1c-.2 0-.5 0-.6 0-.1 0-.3 0-.4 0h-.8c-.6 0-1.2 0-1.8 0-.4 0-.9-.1-1.2-.5-.5-.5-.4-1.3-.4-2V10.2zm6.6 9.2c.2 0 .3 0 .4-.2.2-.3.1-.8.1-1.1V8.1c0-.3 0-.7 0-1 0 0 0-.2-.1-.2-.1-.1-.3-.2-.4-.2-.3 0-.5 0-.8 0h-1.3l-1.1.1c-.7.1-.6.7-.6 1.2v1.2l.1 6.7c0 .5-.1.8.2 1 .2.2.7.1 1 .1h3.3zm-2-10.9c.1 0 .3 0 .5-.1.1-.2 0-.4-.1-.5-.2 0-.3 0-.5 0h-.9c-.2 0-.4 0-.5.1-.2.2-.1.5.1.5h1.4zm0 12.2c.1 0 .2-.1.2-.2.1-.3-.3-.4-.5-.4-.2 0-.4 0-.6 0-.3.1-.3.4-.1.5.2.1.8.1 1 .1z"/>
<path fill="#FE8614" d="M7.9 7.9v-1.1c0-.6 0-1 .5-1.5.4-.4.9-.4 1.4-.4h.6c0 0-.2 0-.2 0 0 0 0 0 0 0 0 0-.1.3-.2.3h-.1v-.1c0 0 0 0 0 0 0 .1 0 .3 0 .4 0 .1-.1.2-.2.3l-.2.2-.1-.1c-.1.2 0 .3-.2.4-.1.2-.2.3-.3.6v-.1c-.1 0 0 .1 0 .2zm0 0"/>
<path fill="#D01871" d="M15.4 18.7c.3-.1.5-.5.6-.7.1-.3.1-.8.1-1.1v-3.2h.1c0 .9 0 1.8 0 2.6v.7c0 .3 0 .6 0 .8-.1.3-.2.5-.4.8-.4.3-.8.4-1.3.4H13.1c-.2 0-.5 0-.6 0 .1 0 .2 0 .3 0h1.2c.4 0 1.1 0 1.3-.1zm0 0"/>
<path fill="#D01871" d="M15.4 18.6c0 0 .1-.2.2-.2h.1c0 .1-.2.2-.2.3h-.1v.1l-.1-.1h-.1l.1-.2zm0 0"/>
<path fill="url(#g1)" d="M13.9 12c.4 0 .2.5.1.7-.1.3-.3.6-.5.8-.4.4-1 .6-1.6.6-.6 0-1.2-.3-1.6-.8.1.6-.4.6-.5 0v-.3c0-.2 0-.4.1-.5.1 0 .1 0 .2 0h.8c.1 0 .2 0 .3 0v.3c0 .2-.4.2-.5.2.2.2.4.4.7.5.4.2.9.2 1.3 0 .4-.1.8-.5.9-1 .1-.1.1-.4.3-.5z"/>
<path fill="url(#g2)" d="M11.9 9.7c.1 0 .3 0 .4 0 .6.1 1 .4 1.4.7 0-.1 0-.2 0-.3l.2-.3c0-.1.1-.1.1-.2.1 0 .1 0 .2.1.1.1.1.8.1 1h-.1c0 .1-.1.2-.2.3-.1.1-.2.1-.2.1h-.8c-.1 0-.2 0-.3-.1 0-.2.4-.3.6-.3-.2-.3-.4-.4-.8-.6-.3-.1-.7-.1-1 0-.5.1-1 .5-1.2 1-.1.2-.1.8-.4.5 0-.1 0-.3 0-.4.2-1 1-1.6 2-1.7z"/>
</svg>