<?xml version="1.0" encoding="UTF-8"?>
<svg xmlns="http://www.w3.org/2000/svg" xmlns:xlink="http://www.w3.org/1999/xlink" width="24px" height="24px" viewBox="0 0 24 24" version="1.1">
<defs>
<linearGradient id="linear0" gradientUnits="userSpaceOnUse" x1="269.406982" y1="260.215637" x2="655.960632" y2="643.486084" gradientTransform="matrix(0.0191388,0,0,0.0191388,0,0)">
<stop offset="0" style="stop-color:rgb(99.607843%,61.960784%,0%);stop-opacity:1;"/>
<stop offset="1" style="stop-color:rgb(99.607843%,40%,17.254902%);stop-opacity:1;"/>
</linearGradient>
<linearGradient id="linear1" gradientUnits="userSpaceOnUse" x1="584.105591" y1="570.047058" x2="979.935852" y2="972.15271" gradientTransform="matrix(0.0191388,0,0,0.0191388,0,0)">
<stop offset="0" style="stop-color:rgb(100%,42.352941%,14.901961%);stop-opacity:1;"/>
<stop offset="1" style="stop-color:rgb(99.215686%,15.686275%,36.862745%);stop-opacity:1;"/>
</linearGradient>
<linearGradient id="linear2" gradientUnits="userSpaceOnUse" x1="479.197723" y1="428.871857" x2="771.501587" y2="814.014893" gradientTransform="matrix(0.0191388,0,0,0.0191388,0,0)">
<stop offset="0" style="stop-color:rgb(98.431373%,21.960784%,31.764706%);stop-opacity:1;"/>
<stop offset="1" style="stop-color:rgb(96.470588%,9.019608%,46.666667%);stop-opacity:1;"/>
</linearGradient>
</defs>
<g id="surface1">
<path style=" stroke:none;fill-rule:nonzero;fill:url(#linear0);" d="M 4.707031 18.039062 C 1.464844 14.28125 1.601562 8.679688 5.023438 5.085938 C 8.445312 1.488281 14.035156 1.078125 17.945312 4.132812 C 20.839844 6.394531 22.199219 10.101562 21.453125 13.695312 C 20.707031 17.289062 17.984375 20.148438 14.429688 21.070312 C 10.878906 21.992188 7.109375 20.816406 4.707031 18.039062 Z M 4.707031 18.039062 "/>
<path style=" stroke:none;fill-rule:nonzero;fill:url(#linear1);" d="M 17.945312 4.132812 C 20.839844 6.394531 22.199219 10.101562 21.453125 13.695312 C 20.707031 17.289062 17.984375 20.148438 14.429688 21.070312 C 10.878906 21.992188 7.109375 20.816406 4.707031 18.039062 C 4.804688 18.074219 4.871094 18.210938 4.960938 18.195312 C 5.011719 18.152344 5.035156 18.023438 5.050781 17.957031 C 5.085938 17.914062 5.261719 17.882812 5.335938 17.855469 C 5.363281 17.8125 5.335938 17.753906 5.367188 17.71875 C 5.4375 17.632812 5.542969 17.574219 5.621094 17.5 C 5.777344 17.351562 5.925781 17.191406 6.085938 17.050781 C 6.167969 16.976562 6.261719 16.957031 6.324219 16.898438 C 6.390625 16.839844 6.472656 16.707031 6.542969 16.644531 C 6.601562 16.605469 6.710938 16.589844 6.761719 16.550781 C 6.8125 16.503906 6.859375 16.4375 6.914062 16.398438 C 7.144531 16.234375 7.355469 16.054688 7.558594 15.863281 C 7.578125 15.84375 7.675781 15.832031 7.703125 15.828125 C 7.710938 15.789062 7.710938 15.753906 7.726562 15.722656 C 7.773438 15.726562 7.804688 15.726562 7.851562 15.726562 C 7.886719 15.675781 7.851562 15.679688 7.878906 15.617188 C 8.007812 15.558594 8.046875 15.511719 8.148438 15.421875 C 8.164062 15.40625 8.25 15.472656 8.253906 15.472656 C 8.351562 15.4375 8.433594 15.347656 8.53125 15.304688 C 8.566406 15.289062 8.6875 15.285156 8.695312 15.277344 C 8.808594 15.175781 8.804688 14.980469 8.863281 14.847656 C 8.878906 14.808594 8.894531 14.769531 8.921875 14.738281 C 8.953125 14.707031 9.148438 14.558594 9.171875 14.558594 C 9.273438 14.550781 9.386719 14.585938 9.484375 14.546875 C 9.609375 14.492188 9.597656 14.464844 9.652344 14.363281 C 9.6875 14.386719 9.675781 14.398438 9.71875 14.410156 C 9.722656 14.351562 9.800781 14.253906 9.839844 14.214844 C 10.179688 14.238281 10.179688 14.058594 10.308594 14.066406 C 10.375 14.121094 10.375 14.121094 10.460938 14.113281 C 10.546875 14.109375 10.605469 14.125 10.65625 14.046875 C 10.652344 13.964844 10.714844 13.816406 10.761719 13.746094 L 10.777344 13.765625 C 10.78125 13.800781 10.777344 13.808594 10.789062 13.839844 L 10.816406 13.820312 C 10.878906 13.90625 10.796875 15.765625 10.851562 15.839844 C 10.882812 16.316406 10.789062 16.65625 11.179688 17.066406 C 11.390625 17.285156 11.683594 17.414062 11.988281 17.414062 C 12.496094 17.421875 13.023438 17.0625 13.121094 16.542969 C 13.191406 16.1875 13.160156 15.65625 13.160156 15.277344 L 13.15625 13.117188 L 15.390625 13.121094 C 15.746094 13.121094 16.25 13.144531 16.589844 13.089844 C 17.070312 13.011719 17.460938 12.496094 17.484375 12.011719 C 17.5 11.6875 17.386719 11.367188 17.167969 11.125 C 17.023438 10.964844 16.835938 10.851562 16.628906 10.792969 C 16.40625 10.734375 16.082031 10.753906 15.847656 10.75 C 15.464844 10.746094 15.0625 10.765625 14.679688 10.746094 C 14.648438 10.722656 14.234375 10.734375 14.160156 10.734375 C 14.144531 10.714844 14.152344 10.722656 14.148438 10.691406 C 14.175781 10.65625 14.183594 10.664062 14.234375 10.644531 C 14.253906 10.617188 14.25 10.59375 14.253906 10.558594 L 14.253906 10.542969 C 14.265625 10.519531 14.339844 10.410156 14.34375 10.398438 C 14.375 10.289062 14.375 10.175781 14.445312 10.074219 C 14.546875 9.925781 14.722656 9.878906 14.851562 9.765625 C 14.90625 9.71875 14.933594 9.496094 14.980469 9.433594 C 14.996094 9.410156 15.136719 9.378906 15.1875 9.34375 C 15.199219 9.300781 15.203125 9.273438 15.207031 9.226562 C 15.433594 9.078125 15.28125 9.121094 15.351562 8.953125 C 15.457031 8.820312 15.421875 8.699219 15.53125 8.574219 C 15.679688 8.398438 15.789062 8.148438 15.953125 7.992188 C 15.984375 7.917969 15.898438 7.910156 15.96875 7.835938 C 16.191406 7.597656 16.332031 7.574219 16.34375 7.242188 C 16.453125 7.128906 16.410156 7.152344 16.472656 7.023438 C 16.476562 7.011719 16.574219 6.957031 16.585938 6.941406 C 16.636719 6.882812 16.730469 6.765625 16.765625 6.703125 C 16.90625 6.457031 16.800781 6.507812 16.738281 6.320312 C 16.722656 6.261719 16.886719 6.046875 16.929688 5.984375 L 16.894531 5.894531 C 16.902344 5.882812 16.910156 5.867188 16.921875 5.859375 C 17.011719 5.777344 17.019531 5.691406 17.070312 5.59375 C 17.074219 5.585938 17.109375 5.570312 17.117188 5.566406 C 17.25 5.535156 17.148438 5.429688 17.191406 5.386719 C 17.320312 5.269531 17.445312 5.15625 17.535156 5.003906 C 17.570312 4.945312 17.605469 4.898438 17.664062 4.859375 C 17.664062 4.859375 17.6875 4.730469 17.703125 4.71875 C 17.757812 4.679688 17.828125 4.6875 17.859375 4.613281 C 17.882812 4.5625 17.914062 4.539062 17.964844 4.53125 C 17.992188 4.527344 17.960938 4.472656 17.976562 4.429688 C 18.007812 4.441406 18.003906 4.441406 18.027344 4.464844 L 18.039062 4.457031 C 17.988281 4.359375 18.003906 4.363281 18.019531 4.253906 C 18.019531 4.253906 17.953125 4.148438 17.945312 4.132812 Z M 17.945312 4.132812 "/>
<path style=" stroke:none;fill-rule:nonzero;fill:url(#linear2);" d="M 10.851562 10.753906 L 10.855469 8.488281 C 10.855469 8.222656 10.835938 7.472656 10.882812 7.246094 C 10.929688 7.03125 11.039062 6.832031 11.191406 6.671875 C 11.402344 6.457031 11.691406 6.332031 11.992188 6.332031 C 12.304688 6.328125 12.582031 6.4375 12.804688 6.660156 C 12.96875 6.820312 13.082031 7.027344 13.132812 7.253906 C 13.167969 7.421875 13.160156 7.636719 13.160156 7.8125 L 13.160156 10.753906 C 13.65625 10.742188 14.191406 10.773438 14.679688 10.746094 C 15.0625 10.765625 15.464844 10.746094 15.847656 10.75 C 16.082031 10.753906 16.40625 10.734375 16.628906 10.792969 C 16.835938 10.851562 17.023438 10.964844 17.167969 11.125 C 17.386719 11.367188 17.5 11.6875 17.484375 12.011719 C 17.460938 12.496094 17.070312 13.011719 16.589844 13.089844 C 16.25 13.144531 15.746094 13.121094 15.390625 13.121094 L 13.15625 13.117188 L 13.160156 15.277344 C 13.160156 15.65625 13.191406 16.1875 13.121094 16.542969 C 13.023438 17.0625 12.496094 17.421875 11.988281 17.414062 C 11.683594 17.414062 11.390625 17.285156 11.179688 17.066406 C 10.789062 16.65625 10.882812 16.316406 10.851562 15.839844 C 10.867188 15.636719 10.855469 15.179688 10.855469 14.953125 L 10.855469 13.117188 C 10.738281 13.121094 10.613281 13.121094 10.496094 13.121094 C 9.566406 13.121094 8.636719 13.121094 7.707031 13.121094 C 7.375 13.121094 7.070312 12.996094 6.839844 12.75 C 6.628906 12.523438 6.515625 12.21875 6.527344 11.90625 C 6.539062 11.582031 6.679688 11.273438 6.917969 11.050781 C 7.070312 10.910156 7.257812 10.816406 7.460938 10.777344 C 7.625 10.742188 7.878906 10.75 8.054688 10.75 L 10.089844 10.75 C 10.335938 10.75 10.609375 10.746094 10.851562 10.753906 Z M 10.851562 10.753906 "/>
</g>
</svg>
