<?xml version="1.0" encoding="utf-8" ?><svg xmlns="http://www.w3.org/2000/svg" xmlns:xlink="http://www.w3.org/1999/xlink" width="24" height="24" viewBox="0 0 754 739"><clipPath id="cl_a"><rect y="-3.0517578e-05" width="24" height="24"/></clipPath><g clip-path="url(#cl_a)"><defs><linearGradient id="gradient_0" gradientUnits="userSpaceOnUse" x1="635.49902" y1="568.76373" x2="958.35974" y2="762.83276"><stop offset="0" stop-color="#FF5C1C"/><stop offset="1" stop-color="#D10569"/></linearGradient></defs><path fill="url(#gradient_0)" transform="translate(-265 -258)" d="M916.608 393.297C928.46 393.49 937.946 397.946 943.713 408.766C946.36 413.731 946.9 420.731 947.079 426.325C947.714 446.151 947.155 466.021 947.126 485.859L947.175 594.282L947.192 703.233C947.204 729.191 949.711 764.306 942.322 788.523C928.215 834.758 872.987 864.069 826.645 848.186C807.425 841.591 791.655 827.56 782.87 809.238C773.865 790.501 773.008 770.334 780.064 750.775C788.692 727.249 806.378 708.155 829.175 697.752C854.367 686.168 876.925 687.478 902.261 696.999C903.446 652.652 901.747 607.508 902.377 563.074C902.627 545.42 903.136 524.589 901.492 507.297C895.572 507.041 889.867 508.103 884.125 509.437C871.577 512.353 740.588 548.182 738.589 550.205C734.092 554.757 735.284 565.268 735.286 571.269L735.343 739.614L735.395 791.323C735.449 810.362 736.827 832.444 731.797 850.705C719.492 895.376 668.584 923.495 624.167 909.998C605.491 904.256 589.862 891.328 580.72 874.059C570.791 855.347 569.482 833.587 575.746 813.474C582.913 790.702 598.819 771.703 619.975 760.642C645.061 747.542 665.848 748.749 691.84 756.845L691.687 564.899L691.616 515.107C691.528 503.396 690.78 491.549 692.137 479.908C695.516 450.926 719.392 448.523 741.855 442.128L800.94 425.461L873.182 404.699C884.981 401.298 905.343 394.781 916.608 393.297Z"/><defs><linearGradient id="gradient_1" gradientUnits="userSpaceOnUse" x1="376.9158" y1="490.47095" x2="647.20514" y2="661.56665"><stop offset="0" stop-color="#FF6A18"/><stop offset="1" stop-color="#FF2445"/></linearGradient></defs><path fill="url(#gradient_1)" transform="translate(-265 -258)" d="M358.838 504.623C381.385 504.209 404.687 504.578 427.289 504.602L549.701 504.657L621.503 504.697C626.701 504.714 632.187 504.807 637.359 504.741C657.931 504.477 672.371 503.195 672.492 528.817L672.411 587.715C672.417 595.621 673.773 623.284 670.189 628.527C663.391 631.945 622.218 630.498 611.689 630.495L509.345 630.444L402.124 630.429C386.193 630.442 369.714 630.541 353.804 630.696C318.162 631.044 314.521 607.127 317.237 577.58C317.214 577.161 317.198 576.742 317.189 576.323C316.992 566.457 316.272 534.301 318.345 526.162C319.531 521.382 322.013 517.021 325.517 513.559C335.267 503.804 346.445 504.409 358.838 504.623ZM387.281 587.325C394.27 585.942 399.964 580.886 402.165 574.11C404.365 567.334 402.728 559.897 397.885 554.672C393.042 549.447 385.751 547.251 378.827 548.931C368.434 551.453 361.963 561.821 364.263 572.266C366.563 582.71 376.79 589.401 387.281 587.325Z"/><path fill="#FE6C15" transform="translate(-265 -258)" d="M317.237 577.58C317.214 577.161 317.198 576.742 317.189 576.323C316.992 566.457 316.272 534.301 318.345 526.162C319.531 521.382 322.013 517.021 325.517 513.559C335.267 503.804 346.445 504.409 358.838 504.623C361.733 506.719 365.803 506.174 369.304 506.121L369.202 506.567L367.834 506.723C367.835 511.573 369.172 512.858 365.558 517.347C354.097 531.587 345.711 548.975 335.083 563.978C333.433 566.308 333.98 569.573 331.601 571.652C329.025 570.062 331.067 568.211 328.866 568.596C324.808 574.168 322.851 579.658 322.89 586.566C321.269 588.616 320.988 588.72 320.026 591.111C319.093 582.45 319.003 576.188 318.313 568.09C317.374 572.397 317.825 574.058 317.237 577.58Z"/><defs><linearGradient id="gradient_2" gradientUnits="userSpaceOnUse" x1="374.02304" y1="602.48425" x2="607.62262" y2="801.19617"><stop offset="0" stop-color="#FF641E"/><stop offset="1" stop-color="#FC1B4F"/></linearGradient></defs><path fill="url(#gradient_2)" transform="translate(-265 -258)" d="M652.584 649.315C662.08 648.533 672.581 648.648 672.482 660.925C672.309 682.261 672.761 703.995 672.307 725.303C672.29 726.091 671.182 729.435 670.444 729.7C662.951 732.397 654.274 731.408 646.19 732.434C641.4 733.07 636.646 733.952 631.947 735.075C617.829 738.434 603.151 746.8 592.248 756.394C586.05 761.848 579.748 771.073 571.137 771.173C555.117 771.358 539.153 771.307 523.161 771.306L432.043 771.317L378.223 771.404C366.296 771.443 350.088 772.207 338.928 770.016C327.325 766.846 318.039 757.366 317.483 745.239C316.693 727.979 317.138 710.039 317.093 692.739C317.458 682.249 316.428 668.976 323.513 660.451C334.879 646.776 356.25 649.59 372.306 649.649L417.551 649.75L570.824 649.792L620.293 649.805C630.638 649.802 642.402 650.055 652.584 649.315ZM386.666 728.619C397.435 726.832 404.696 716.629 402.858 705.87C401.02 695.11 390.783 687.896 380.033 689.785C369.353 691.662 362.198 701.816 364.024 712.504C365.85 723.192 375.97 730.395 386.666 728.619Z"/><defs><linearGradient id="gradient_3" gradientUnits="userSpaceOnUse" x1="354.83057" y1="767.42773" x2="546.88306" y2="941.68488"><stop offset="0" stop-color="#FF4F2D"/><stop offset="1" stop-color="#EC135A"/></linearGradient></defs><path fill="url(#gradient_3)" transform="translate(-265 -258)" d="M341.738 790.588C356.236 789.833 374.215 790.296 388.875 790.309L472.243 790.377L523.984 790.368C534.437 790.37 551.864 789.755 561.545 791.921C560.254 799.798 556.701 808.926 554.871 817.115C549.317 841.956 553.163 867.362 566.526 889.149C569.868 894.598 576.737 900.754 578.948 906.698C579.576 908.385 578.717 909.149 577.908 910.186C573.463 912.435 568.653 911.803 563.626 911.706C512.701 910.906 460.614 911.633 409.55 911.538C397.463 911.483 385.375 911.515 373.289 911.636C364.546 911.721 356.138 912.007 347.406 911.419C308.963 909.027 317.54 872.315 317.177 845.651C316.855 821.935 312.109 797.454 341.738 790.588ZM387.289 868.871C394.202 867.476 399.83 862.469 402.021 855.765C404.212 849.062 402.628 841.698 397.873 836.489C393.119 831.279 385.93 829.03 379.055 830.602C368.611 832.988 362.025 843.328 364.279 853.801C366.532 864.275 376.787 870.991 387.289 868.871Z"/><defs><linearGradient id="gradient_4" gradientUnits="userSpaceOnUse" x1="470.79184" y1="292.27716" x2="621.58459" y2="420.83978"><stop offset="0" stop-color="#FF6819"/><stop offset="1" stop-color="#FF393B"/></linearGradient></defs><path fill="url(#gradient_4)" transform="translate(-265 -258)" d="M534.135 294.767C539.473 294.34 545.677 294.35 551.08 294.517C587.951 295.527 623.491 308.513 652.328 331.513C660.214 337.799 674.192 347.835 673.616 358.854C673.192 366.963 662.185 374.49 654.73 371.232C648.941 368.703 642.756 361.859 637.759 357.654C615.274 338.727 590.167 328.488 561.013 325.313C525.899 320.908 487.342 332.378 459.27 353.732C449.779 360.951 438.254 378.559 424.831 368.843C421.744 366.644 419.716 363.257 419.237 359.498C417.843 347.749 433.202 336.82 441.301 330.24C468.556 308.099 499.698 298.542 534.135 294.767Z"/><defs><linearGradient id="gradient_5" gradientUnits="userSpaceOnUse" x1="498.08896" y1="360.75226" x2="594.25269" y2="444.87781"><stop offset="0" stop-color="#FF5628"/><stop offset="1" stop-color="#FF343B"/></linearGradient></defs><path fill="url(#gradient_5)" transform="translate(-265 -258)" d="M537.287 359.634C566.405 355.332 604.056 371.062 623.404 392.459C630.208 399.983 629.417 410.801 621.014 416.498C608.899 424.711 595.608 404.205 585.712 399.655C574.6 393.99 567.859 391.699 555.504 389.6C528.417 387.343 508.45 395.349 489.399 413.519C486.28 416.495 482.971 417.471 478.856 418.396C464.509 415.172 459.931 403.057 469.223 392.506C486.57 372.81 512.482 362.558 537.287 359.634Z"/><path fill="#FE3938" transform="translate(-265 -258)" d="M544.589 422.051C558.451 421.114 570.469 431.543 571.493 445.398C572.517 459.253 562.163 471.336 548.314 472.447C534.343 473.567 522.129 463.101 521.096 449.123C520.063 435.145 530.605 422.997 544.589 422.051Z"/></g></svg>