<svg xmlns="http://www.w3.org/2000/svg" width="24" height="24" viewBox="0 0 24 24">
<circle cx="12" cy="11" r="9" fill="#000"/><circle cx="12" cy="11" r="7.5" fill="#0085FF"/>
<circle cx="12" cy="11" r="3.2" fill="#000"/><circle cx="12" cy="11" r="2.2" fill="#FEFEFE"/>
<circle cx="11.9" cy="10" r=".7" fill="#000"/><circle cx="11.9" cy="9.7" r=".4" fill="#FEFEFE"/>
<path fill="#000" d="M20.8 13.3c.9 0 .5 1 .3 1.5-.4 1.5-1.2 2.8-2.3 3.9-1.8 1.8-4.2 2.8-6.7 2.8-.8 0-.6-.9-.2-.9 1.2 0 2.2-.2 3.4-.7 1.9-.8 3.7-2.4 4.6-4.4.1-.3.3-.7.4-1.1.1-.3.2-.6.3-.9zm0 0"/>
<path fill="#000" d="M11.3 2.5c.2 0 .5 0 .8.1.5.1.5.8 0 .9-.6.1-1.2.1-1.8.2-2.7.5-5 2.4-6.2 4.9l-.6 1.8c-.1.3-.5.5-.7.3-.4-.3-.1-1 0-1.3.3-1.2 1-2.5 1.8-3.4 1.7-2 4-3.2 6.6-3.4zm0 0"/>
<path fill="#000" d="M18.8 11.5c.3 0 .4.1.5.4v.1c0 4.1-3.2 7.3-7.3 7.4-.6 0-.7-.8-.1-1 .3-.1.7 0 1.1-.1 2.9-.4 5.2-3 5.4-5.9 0-.4 0-.7.5-.9zm0 0"/>
<path fill="#000" d="M11.5 4.7l.6.1c.3.1.5.4.3.7-.3.4-1.1.3-1.5.4-2.6.4-4.6 2.4-5.2 5-.1.5 0 1.2-.2 1.6h-.3c-.8 0-.5-1.1-.5-1.6.2-1 .6-2 1.2-3 1.3-2 3.2-3 5.6-3.2zm0 0"/>
<path fill="#000" d="M21 11.5c.5 0 .7.5.5.9-.1.3-.2.3-.4.4-.6 0-.8-1 0-1.3zm0 0M2.8 11.3c.7 0 .9.9.2 1.2-.4.1-.7-.4-.5-.8zm0 0"/>
</svg>