<?xml version="1.0" encoding="utf-8" ?><svg xmlns="http://www.w3.org/2000/svg" xmlns:xlink="http://www.w3.org/1999/xlink" width="806" height="810" viewBox="0 0 806 810"><clipPath id="cl_21"><rect width="806" height="810"/></clipPath><g clip-path="url(#cl_21)"><defs><linearGradient id="gradient_0" gradientUnits="userSpaceOnUse" x1="585.75702" y1="564.35083" x2="957.95831" y2="981.95007"><stop offset="0" stop-color="#FF6E20"/><stop offset="1" stop-color="#FD0679"/></linearGradient></defs><path fill="url(#gradient_0)" transform="translate(-218 -205)" d="M397.712 749.882C387.41 731.678 378.199 701.188 374.049 680.876C359.775 608.187 374.817 532.803 415.894 471.158C455.385 411.559 517.033 370.189 587.154 356.234C655.197 342.525 729.243 354.844 787.409 393.413C845.693 430.005 889.249 495.446 904.538 562.217C921.83 634.973 908.968 711.63 868.876 774.757C864.732 781.33 860.24 787.677 855.418 793.769L940.132 880.619L963.524 904.593C975.178 916.563 984.176 924.667 983.743 942.717C983.472 954.062 979.346 964.688 971.052 972.582C963.386 979.827 953.127 983.685 942.586 983.285C922.444 982.612 912.814 969.492 900.079 955.926L877.124 931.559C853.444 906.563 828.622 881.438 805.415 856.137C803.186 853.706 800.994 851.242 798.837 848.747C741.275 891.147 669.091 908.639 598.505 897.293C526.733 885.676 462.514 846.029 419.969 787.071C413.771 778.452 401.724 759.603 397.712 749.882ZM727.935 431.477C672.73 408.646 615.891 405.622 559.941 428.828C507.494 450.94 466.017 493.035 444.683 545.804C428.104 586.479 424.419 637.444 435.345 679.983C437.058 686.651 438.868 692.87 441.064 699.345C442.089 702.367 447.743 714.954 448.032 716.865C452.908 725.063 456.467 733.177 462.024 741.994C482.112 774.179 510.442 800.406 544.078 817.957C593.685 843.629 651.474 848.485 704.67 831.453C758.415 813.976 803.008 775.849 828.621 725.471C854.667 673.835 859.214 613.988 841.27 559.009C821.761 500.026 782.83 458.935 727.935 431.477Z"/><defs><linearGradient id="gradient_1" gradientUnits="userSpaceOnUse" x1="571.80157" y1="546.51831" x2="703.52905" y2="683.22046"><stop offset="0" stop-color="#FF8012"/><stop offset="1" stop-color="#FF4A40"/></linearGradient></defs><path fill="url(#gradient_1)" transform="translate(-218 -205)" d="M739.772 477.203C769.178 474.301 760.795 512.302 762.171 528.929C764.778 560.428 745.017 559.516 721.821 564.326C697.041 569.465 671.428 573.533 646.807 578.799C647.283 584.757 646.912 596.832 646.911 603.162L646.911 652.051L646.971 693.185C647.015 711.268 648.217 728.913 638.681 745.04C618.455 779.249 573.871 786.28 540.988 767.141C517.527 752.997 506.276 723.867 515.56 697.837C521.219 681.566 533.226 668.28 548.843 661.006C569.863 651.07 586.968 652.763 608.032 660.191L608.081 564.897C608.086 549.325 607.666 533.55 608.562 518.035C609.113 508.501 616.562 499.601 625.979 497.793C663.584 490.573 701.893 482.827 739.772 477.203Z"/><defs><linearGradient id="gradient_2" gradientUnits="userSpaceOnUse" x1="453.49139" y1="427.32944" x2="597.21448" y2="577.20111"><stop offset="0" stop-color="#FF9D00"/><stop offset="1" stop-color="#FF6F1B"/></linearGradient></defs><path fill="url(#gradient_2)" transform="translate(-218 -205)" d="M397.712 749.882C387.41 731.678 378.199 701.188 374.049 680.876C359.775 608.187 374.817 532.803 415.894 471.158C455.385 411.559 517.033 370.189 587.154 356.234C655.197 342.525 729.243 354.844 787.409 393.413L786.265 395.483C779.269 394.89 759.106 409.773 753.917 415.702C749.643 420.585 752.356 422.787 744.556 424.507L743.693 425.531L743.866 426.39C744.33 428.782 745.02 430.897 743.343 432.883C742.362 434.038 740.909 434.684 739.394 434.638C734.941 434.458 732.81 430.991 727.935 431.477C672.73 408.646 615.891 405.622 559.941 428.828C507.494 450.94 466.017 493.035 444.683 545.804C428.104 586.479 424.419 637.444 435.345 679.983C437.058 686.651 438.868 692.87 441.064 699.345C442.089 702.367 447.743 714.954 448.032 716.865C448.05 718.154 448.089 719.442 448.148 720.729C444.979 722.533 446.083 720.204 442.882 721.898L442.581 724.491C437.598 727.591 440.539 727.028 438.313 728.382L437.545 728.16C429.061 725.796 428.054 734.926 421.122 738.734C418.272 740.299 414.398 744.324 411.28 745.974C408.908 746.847 408.042 744.778 406.204 750.153C405.636 751.814 404.891 753.602 402.69 753.385L397.712 749.882Z"/><defs><linearGradient id="gradient_3" gradientUnits="userSpaceOnUse" x1="290.2666" y1="290.34424" x2="379.05624" y2="405.16025"><stop offset="0" stop-color="#FFA000"/><stop offset="1" stop-color="#FF552F"/></linearGradient></defs><path fill="url(#gradient_3)" transform="translate(-218 -205)" d="M327.478 429.593C326.61 428.252 324.191 418.585 323.405 416.395C313.93 389.99 291.364 372.506 263.905 367.965C260.946 367.476 257.841 366.768 254.881 366.058C244.812 363.644 243.029 351.063 251.226 345.354C254.414 343.23 261.999 342.628 266.249 341.563C272.085 340.068 277.771 338.042 283.239 335.512C305.997 324.821 319.21 305.858 325.81 281.905C327.926 274.224 328.517 263.997 332.356 257.087C334.464 253.293 341.863 252.381 345.639 254.314C350.389 256.746 351.449 261.067 352.271 266.012C355.609 285.158 361.336 304.102 374.672 318.801C386.158 331.462 403.086 339.413 419.655 342.781C430.116 344.907 431.983 344.422 434.905 355.246C431.241 368.31 425.697 365.241 414.745 367.83C383.142 375.302 367.167 391.293 356.509 421.034C353.836 431.426 353.618 454.547 340.236 453.648C328.388 452.853 329.299 438.317 327.478 429.593Z"/><path fill="#FE4B38" transform="translate(-218 -205)" d="M327.478 429.593C329.564 432.125 328.897 433.138 331.563 434.384C336.091 433.925 350.28 428.016 353.57 425.489C354.498 423.192 354.668 422.673 356.509 421.034C353.836 431.426 353.618 454.547 340.236 453.648C328.388 452.853 329.299 438.317 327.478 429.593Z"/><defs><linearGradient id="gradient_4" gradientUnits="userSpaceOnUse" x1="467.24905" y1="251.91066" x2="508.80228" y2="296.10321"><stop offset="0" stop-color="#FF9100"/><stop offset="1" stop-color="#FF6526"/></linearGradient></defs><path fill="url(#gradient_4)" transform="translate(-218 -205)" d="M484.808 235.17C506.81 233.87 494.504 255.884 499.742 263.107C505.259 265.287 529.248 260.586 527.276 274.817C525.094 290.569 506.31 281.968 500.228 286.043C494.505 296.96 504.914 306.085 491.509 313.945C471.302 316.121 480.169 295.447 476.987 286.258C472.313 281.876 453.677 288.612 451.138 279.884C444.869 258.342 469.675 265.905 475.732 263.273C479.102 259.544 477.278 248.293 478.392 241.143C480.557 237.904 481.509 237.164 484.808 235.17Z"/><defs><linearGradient id="gradient_5" gradientUnits="userSpaceOnUse" x1="262.98859" y1="488.50775" x2="304.44034" y2="531.18719"><stop offset="0" stop-color="#FF8905"/><stop offset="1" stop-color="#FF612C"/></linearGradient></defs><path fill="url(#gradient_5)" transform="translate(-218 -205)" d="M280.447 471.511C298.953 470.544 293.813 486.163 294.68 499.341C302.406 500.164 320.097 496.623 321.722 507.518C324.292 524.759 306.647 520.134 296.577 521.322C288.741 526.038 302.553 541.474 286.755 549.486C268.378 552.462 275.034 531.52 273.198 523.048C272.507 519.865 246.616 523.779 245.473 513.095C244.566 504.628 251.561 499.074 259.565 499.567C263.645 499.807 268.58 499.629 272.786 499.322C274.445 488.375 269.884 477.705 280.447 471.511Z"/></g></svg>