<svg xmlns="http://www.w3.org/2000/svg" xmlns:xlink="http://www.w3.org/1999/xlink" width="972" height="847" viewBox="0 0 972 847"><clipPath id="cl_3"><rect x="-0.00012207031" width="972" height="847"/></clipPath><g clip-path="url(#cl_3)"><path fill="#FEFEFE" transform="translate(-140 -246)" d="M205.277 708.23C204.445 662.144 208.898 626.712 223.738 582.508C226.589 573.949 229.643 565.459 232.9 557.046C234.032 554.142 240.317 539.042 240.193 536.996C239.467 525.058 236.615 511.108 235.381 499.058C232.836 475.778 231.334 452.396 230.88 428.982C230.321 390.917 236.607 286.905 263.889 259.262C270.518 252.545 278.816 250.191 287.993 250.177C328.85 250.117 400.932 302.949 431.161 328.71C452.268 346.699 471.547 366.245 491.245 385.714C504.128 379.981 532.412 373.129 546.554 370.58C619.295 357.264 694.224 362.596 764.346 386.079C780.053 371.427 795.4 356.401 811.541 342.214C845.537 312.333 919.46 251.397 965.305 250.289C974.643 250.063 984.1 252.062 990.973 258.876C1016.97 284.646 1021.03 383.856 1020.5 419.37C1020.29 456.66 1014.92 496.64 1007.91 533.358C1033.88 598.664 1043.59 638.207 1043.49 708.227C1055.54 708.692 1066.04 709.774 1078.09 711.622C1093.8 714.03 1109.69 718.453 1108.65 738.133C1108.3 744.744 1105.72 749.98 1100.61 754.4C1097.96 756.721 1094.81 758.405 1091.4 759.324C1086.93 760.518 1081.06 760.727 1076.43 760.789C1064.11 760.957 1051.84 762.229 1039.55 762.657L1037.82 773.311C1054.84 777.632 1087.43 784.427 1097.68 799.951C1104.66 810.516 1098.57 827.048 1087.2 832.829C1083.75 834.607 1079.92 835.52 1076.04 835.49C1069.33 835.393 1054.23 831.132 1047.05 829.442C1036.7 827.005 1028.94 825.552 1018.34 823.977C1016.45 828.764 1015.44 831.023 1014.58 836.046C1039.42 862.066 1053.21 884.762 1052.48 922.126C1051.78 954.547 1038.26 985.368 1014.88 1007.85C1003.33 1018.77 989.962 1027.61 975.383 1033.96C960.855 1040.41 944.648 1045.68 929.47 1050.34C887.803 1063.12 845.16 1072.63 802.848 1083.01C797.448 1084.34 774.504 1092.02 777.587 1078.36C780.393 1065.93 800.544 1052.1 791.48 1037.65C784.38 1027.32 758.953 1014 746.639 1011.94C735.484 1010.07 716.076 1015.14 704.333 1016.73C691.581 1018.45 679.239 1020.25 666.275 1021.26C574.977 1028.35 480.837 1014.85 397.46 976.126C386.965 971.251 362.636 959.126 353.34 952.396C349.755 951.015 334.946 940.702 331.46 938.278C288.606 908.48 255.026 871.792 232.629 824.406C224.912 825.757 217.235 827.322 209.606 829.101C200.152 831.343 177.108 839.058 167.042 832.981C149.472 822.375 148.355 798.092 168.959 788.854C182.492 782.786 197.725 777.496 212.988 773.588C211.998 769.324 211.486 766.855 211.004 762.526C196.67 762.049 182.229 760.266 167.763 760.324C154.531 759.674 147.007 750.483 145.374 738.259C141.74 711.05 185.515 709.222 205.277 708.23Z"/><defs><linearGradient id="gradient_0" gradientUnits="userSpaceOnUse" x1="255.29813" y1="270.43808" x2="751.28967" y2="692.93567"><stop offset="0" stop-color="#FF8400"/><stop offset="1" stop-color="#FF3621"/></linearGradient></defs><path fill="url(#gradient_0)" transform="translate(-140 -246)" d="M205.277 708.23C204.445 662.144 208.898 626.712 223.738 582.508C226.589 573.949 229.643 565.459 232.9 557.046C234.032 554.142 240.317 539.042 240.193 536.996C239.467 525.058 236.615 511.108 235.381 499.058C232.836 475.778 231.334 452.396 230.88 428.982C230.321 390.917 236.607 286.905 263.889 259.262C270.518 252.545 278.816 250.191 287.993 250.177C328.85 250.117 400.932 302.949 431.161 328.71C452.268 346.699 471.547 366.245 491.245 385.714C504.128 379.981 532.412 373.129 546.554 370.58C619.295 357.264 694.224 362.596 764.346 386.079C780.053 371.427 795.4 356.401 811.541 342.214C845.537 312.333 919.46 251.397 965.305 250.289C974.643 250.063 984.1 252.062 990.973 258.876C1016.97 284.646 1021.03 383.856 1020.5 419.37C1017.49 415.047 1021.07 388.419 1018.51 380.146C1016.87 381.489 1014.52 381.31 1012.64 380.393L1012.42 379.898C1012.32 382.564 1012.76 381.997 1011.32 383.374L1007.36 384.23C1006.99 385.35 1006.82 385.75 1006.2 386.791C1000.7 387.378 1001.62 382.931 998.523 385.484C996.284 394.304 991.45 390.145 987.237 394.11L987.133 395.553L986.025 396.135C984.548 395.313 984.639 395.189 983.676 393.748L982.684 396.533L981.696 396.648L980.507 394.864C979.167 395.103 979.78 394.862 978.66 395.567C977.306 394.477 977.435 394.453 976.772 392.806C976.477 397.152 976.742 419.976 975.488 421.675C974.796 448.841 972.995 466.811 970.186 493.736C956.55 480.348 921.156 448.592 904.598 439.895C901.209 437.175 896.328 434.305 892.589 432.104L892.457 433.226C888.625 434.329 891.269 432.054 888.054 433.463C887.243 437.074 884.296 442.14 881.051 443.859C868.747 442.317 869.992 442.188 858.056 446.196C853.246 447.812 837.068 456.251 833.873 456.218C832.784 454.334 832.001 452.107 830.391 451.372C826.808 454.049 822.389 461.2 819.239 464.464C818.211 465.528 807.87 468.162 806.302 469.287C804.676 470.453 803.364 479.206 802.368 480.296C799.839 483.063 795.312 486.815 792.431 489.377C789.977 488.786 789.628 488.255 787.639 488.917C787.546 489.106 785.673 493.257 785.95 493.121C780.441 495.836 775.654 499.782 770.632 502.989C768.979 502.786 767.323 502.609 765.665 502.459C760.947 507.692 762.443 504.453 758.022 506.716C755.637 510.383 756.558 513.594 756.257 517.523C756.246 517.659 749.679 522.844 748.846 524.813C747.781 527.327 741.224 528.241 738.789 530.496C738.259 532.22 738.463 532.763 738.634 534.564C736.191 538.48 728.666 536.596 725.031 535.309C723.614 532.807 725.095 533.775 724.834 530.837C718.415 539.679 712.022 535.22 703.665 543.676C696.244 551.186 698.947 561.405 690.987 565.85C687.049 566.09 684.575 568.52 683.87 572.505C684.233 574.405 684.232 574.348 685.128 576.072C682.587 579.069 678.185 576.284 681.338 585.893C680.26 590.328 661.342 592.478 657.108 595.767C651.819 599.874 648.72 606.155 646.26 611.896C643.045 613.229 642.984 613.109 640.299 615.277C639.966 619.202 643.309 620.53 643.208 623.986L642.65 623.987C641.124 623.999 640.501 623.886 639.11 624.544C638.725 628.453 642.986 629.088 640.507 631.274C636.494 632.068 635.523 630.823 630.874 632.499L630.106 632.557C612.133 633.762 581.472 627.005 566.262 617.601C530.127 595.261 504.931 573.545 459.336 572.488C442.354 572.122 425.434 574.664 409.308 580.002C361.758 595.685 327.387 629.482 310.74 676.879C303.103 698.624 302.04 717.352 303.42 740.077C261.95 729.224 208.31 719.382 166.27 730.584C159.841 732.298 157.416 744.082 169.601 744.393C217.56 745.615 259.761 745.94 306.359 759.75C307.979 767.863 310.188 775.37 312.748 783.235C272.179 783.031 210.57 786.182 172.277 805.306C170.829 806.029 169.62 809.303 169.579 811.009C169.511 813.374 170.469 815.652 172.205 817.26C174.33 819.192 177.399 819.646 180.096 819.182C193.713 816.836 208.124 812.221 221.667 809.637C253.268 803.607 288.366 800.678 320.457 802.533C340.969 843.987 368.949 873.031 407.866 898.256C418.681 905.266 428.052 909.55 438.497 915.679C430.558 914.919 434.256 920.429 427.721 917.309C427.63 920.175 429.957 919.788 428.541 921.725C427.043 921.2 427.042 921.008 425.865 919.886C422.584 920.504 422.105 923.307 418.113 922.676L417.215 921.045C415.452 921.65 415.019 923.766 413.724 925.202C413.724 925.202 410.268 925.049 410.267 925.049C402.99 929.548 395.105 935.166 387.16 938.264C386.421 938.552 385.72 938.797 385.01 939.041C383.569 941.468 383.437 942.625 381.212 943.76C379.426 943.556 379.182 943.432 377.371 943.602L376.914 944.318C375.858 945.95 375.427 947.077 373.712 947.84C362.627 946.741 368.915 947.888 361.64 954.239L361.35 954.122C362.519 951.689 362.615 952.45 362.052 950.399L361.246 950.375C359.846 952.254 360.125 952.565 358.31 953.142C356.385 952.756 355.307 952.422 353.34 952.396C349.755 951.015 334.946 940.702 331.46 938.278C288.606 908.48 255.026 871.792 232.629 824.406C224.912 825.757 217.235 827.322 209.606 829.101C200.152 831.343 177.108 839.058 167.042 832.981C149.472 822.375 148.355 798.092 168.959 788.854C182.492 782.786 197.725 777.496 212.988 773.588C211.998 769.324 211.486 766.855 211.004 762.526C196.67 762.049 182.229 760.266 167.763 760.324C154.531 759.674 147.007 750.483 145.374 738.259C141.74 711.05 185.515 709.222 205.277 708.23Z"/><path fill="#FEFEFE" transform="translate(-140 -246)" d="M855.433 411.527C872.193 385.521 917.492 327.881 950.611 323.677C976.111 320.441 975.197 404.053 975.488 421.675C974.796 448.841 972.995 466.811 970.186 493.736C956.55 480.348 921.156 448.592 904.598 439.895C901.209 437.175 896.328 434.305 892.589 432.104C884.275 425.717 864.654 416.106 855.433 411.527Z"/><path fill="#FEFEFE" transform="translate(-140 -246)" d="M690.987 565.85C680.164 563.134 684.545 551.987 678.046 544.663C673.191 538.425 661.223 537.715 656.88 531.846C651.874 525.081 666.638 521.413 669.803 520.419C679.744 517.3 680.798 507.282 684.544 499.135C688.381 490.787 695.343 494.424 696.854 501.961C698.202 506.417 699.768 510.173 702.056 514.154C708.285 524.987 721.699 518.39 724.834 530.837C718.415 539.679 712.022 535.22 703.665 543.676C696.244 551.186 698.947 561.405 690.987 565.85Z"/><path fill="#FEFEFE" transform="translate(-140 -246)" d="M297.619 324.044C308.434 322.638 319.222 330.181 327.656 336.175C355.733 356.129 378.245 382.343 396.334 411.495C371.966 423.358 353.877 435.019 332.255 450.804C314.598 464.012 297.944 478.511 282.431 494.181C273.801 455.947 274.162 377.881 285.974 340.368C288.203 333.289 290.765 327.606 297.619 324.044Z"/><path fill="#FEFEFE" transform="translate(-140 -246)" d="M568.964 410.793C579.491 410.636 578.022 418.597 580.194 426.616C587.011 451.786 603.572 473.296 629.292 480.738C632.65 482.154 641.465 481.863 643.636 485.198C651.013 496.527 636.672 498.602 630.345 499.927C605.723 505.115 588.083 527.11 581.536 550.505C579.681 557.131 579.258 563.992 573.751 568.215C564.967 568.945 563.934 564.23 562.386 556.816C556.748 529.799 539.275 506.939 511.935 499.526C504.558 497.525 496.663 499.619 496.98 488.88C499.105 483.996 505.407 482.279 510.291 481.078C536.993 474.511 552.322 457.755 560.524 431.882C562.998 424.078 562.927 415.267 568.964 410.793Z"/><path fill="#FE5013" transform="translate(-140 -246)" d="M571.087 452.846C572.871 454.425 575.83 460.871 577.482 463.442C585.876 476.51 594.471 483.237 607.766 490.496C589.131 500.228 581.133 510.036 571.581 528.563C571.274 528.187 566.054 519.387 565.387 518.365C556.401 504.595 549.193 497.422 534.379 490.669C552.27 481.557 562.197 470.918 571.087 452.846Z"/><defs><linearGradient id="gradient_1" gradientUnits="userSpaceOnUse" x1="634.88794" y1="611.06219" x2="1013.3901" y2="1006.6571"><stop offset="0" stop-color="#FF3B19"/><stop offset="1" stop-color="#EF0065"/></linearGradient></defs><path fill="url(#gradient_1)" transform="translate(-140 -246)" d="M975.488 421.675C976.742 419.976 976.477 397.152 976.772 392.806C977.435 394.453 977.306 394.477 978.66 395.567C979.78 394.862 979.167 395.103 980.507 394.864L981.696 396.648L982.684 396.533L983.676 393.748C984.639 395.189 984.548 395.313 986.025 396.135L987.133 395.553L987.237 394.11C991.45 390.145 996.284 394.304 998.523 385.484C1001.62 382.931 1000.7 387.378 1006.2 386.791C1006.82 385.75 1006.99 385.35 1007.36 384.23L1011.32 383.374C1012.76 381.997 1012.32 382.564 1012.42 379.898L1012.64 380.393C1014.52 381.31 1016.87 381.489 1018.51 380.146C1021.07 388.419 1017.49 415.047 1020.5 419.37C1020.29 456.66 1014.92 496.64 1007.91 533.358C1033.88 598.664 1043.59 638.207 1043.49 708.227C1055.54 708.692 1066.04 709.774 1078.09 711.622C1093.8 714.03 1109.69 718.453 1108.65 738.133C1108.3 744.744 1105.72 749.98 1100.61 754.4C1097.96 756.721 1094.81 758.405 1091.4 759.324C1086.93 760.518 1081.06 760.727 1076.43 760.789C1064.11 760.957 1051.84 762.229 1039.55 762.657L1037.82 773.311C1054.84 777.632 1087.43 784.427 1097.68 799.951C1104.66 810.516 1098.57 827.048 1087.2 832.829C1083.75 834.607 1079.92 835.52 1076.04 835.49C1069.33 835.393 1054.23 831.132 1047.05 829.442C1036.7 827.005 1028.94 825.552 1018.34 823.977C1016.45 828.764 1015.44 831.023 1014.58 836.046C1039.42 862.066 1053.21 884.762 1052.48 922.126C1051.78 954.547 1038.26 985.368 1014.88 1007.85C1003.33 1018.77 989.962 1027.61 975.383 1033.96C960.855 1040.41 944.648 1045.68 929.47 1050.34C887.803 1063.12 845.16 1072.63 802.848 1083.01C797.448 1084.34 774.504 1092.02 777.587 1078.36C780.393 1065.93 800.544 1052.1 791.48 1037.65C784.38 1027.32 758.953 1014 746.639 1011.94C735.484 1010.07 716.076 1015.14 704.333 1016.73C691.581 1018.45 679.239 1020.25 666.275 1021.26C574.977 1028.35 480.837 1014.85 397.46 976.126C386.965 971.251 362.636 959.126 353.34 952.396C355.307 952.422 356.385 952.756 358.31 953.142C360.125 952.565 359.846 952.254 361.246 950.375L362.052 950.399C362.615 952.45 362.519 951.689 361.35 954.122L361.64 954.239C368.915 947.888 362.627 946.741 373.712 947.84C375.427 947.077 375.858 945.95 376.914 944.318L377.371 943.602C379.182 943.432 379.426 943.556 381.212 943.76C383.437 942.625 383.569 941.468 385.01 939.041C385.72 938.797 386.421 938.552 387.16 938.264C395.105 935.166 402.99 929.548 410.267 925.049C410.268 925.049 413.724 925.202 413.724 925.202C415.019 923.766 415.452 921.65 417.215 921.045L418.113 922.676C422.105 923.307 422.584 920.504 425.865 919.886C427.042 921.008 427.043 921.2 428.541 921.725C429.957 919.788 427.63 920.175 427.721 917.309C434.256 920.429 430.558 914.919 438.497 915.679C443.766 917.33 455.188 923.418 461.381 925.853C473.934 930.789 486.303 935.433 499.36 939.115C585.758 963.476 676.187 962.553 762.14 936.821C779.772 931.543 794.117 924.958 810.432 917.073C864.479 890.953 902.083 856.684 930.189 803.301C965.181 800.95 1000.33 803.214 1034.73 810.036C1047.04 812.518 1058.91 815.601 1071.01 818.76C1077.09 820.213 1083.66 819.29 1084.63 812.055C1085.88 804.591 1074.06 800.833 1068.3 798.988C1028.16 786.141 979.998 782.4 938.524 783.719C941.583 775.453 943.578 768.355 945.833 759.908C973.192 753.116 1000.43 747.761 1028.69 746.554C1047.65 745.564 1066.62 745.4 1085.57 744.304C1092.45 743.906 1095.77 734.332 1089.2 730.891C1084.62 728.569 1079.17 728.204 1074.21 727.323C1055.79 724.056 1037.72 725.623 1019.27 727.54C995.638 729.993 971.918 734.366 948.976 740.619C955.073 696.489 940.13 654.057 909.192 622.333C888.987 601.838 863.926 586.787 836.341 578.581C819.274 573.48 801.409 571.588 783.652 573C767.325 574.389 751.43 578.967 736.866 586.476C699.828 605.352 678.48 633.2 630.874 632.499C635.523 630.823 636.494 632.068 640.507 631.274C642.986 629.088 638.725 628.453 639.11 624.544C640.501 623.886 641.124 623.999 642.65 623.987L643.208 623.986C643.309 620.53 639.966 619.202 640.299 615.277C642.984 613.109 643.045 613.229 646.26 611.896C648.72 606.155 651.819 599.874 657.108 595.767C661.342 592.478 680.26 590.328 681.338 585.893C678.185 576.284 682.587 579.069 685.128 576.072C684.232 574.348 684.233 574.405 683.87 572.505C684.575 568.52 687.049 566.09 690.987 565.85C698.947 561.405 696.244 551.186 703.665 543.676C712.022 535.22 718.415 539.679 724.834 530.837C725.095 533.775 723.614 532.807 725.031 535.309C728.666 536.596 736.191 538.48 738.634 534.564C738.463 532.763 738.259 532.22 738.789 530.496C741.224 528.241 747.781 527.327 748.846 524.813C749.679 522.844 756.246 517.659 756.257 517.523C756.558 513.594 755.637 510.383 758.022 506.716C762.443 504.453 760.947 507.692 765.665 502.459C767.323 502.609 768.979 502.786 770.632 502.989C775.654 499.782 780.441 495.836 785.95 493.121C785.673 493.257 787.546 489.106 787.639 488.917C789.628 488.255 789.977 488.786 792.431 489.377C795.312 486.815 799.839 483.063 802.368 480.296C803.364 479.206 804.676 470.453 806.302 469.287C807.87 468.162 818.211 465.528 819.239 464.464C822.389 461.2 826.808 454.049 830.391 451.372C832.001 452.107 832.784 454.334 833.873 456.218C837.068 456.251 853.246 447.812 858.056 446.196C869.992 442.188 868.747 442.317 881.051 443.859C884.296 442.14 887.243 437.074 888.054 433.463C891.269 432.054 888.625 434.329 892.457 433.226L892.589 432.104C896.328 434.305 901.209 437.175 904.598 439.895C921.156 448.592 956.55 480.348 970.186 493.736C972.995 466.811 974.796 448.841 975.488 421.675Z"/><path fill="#FD272E" transform="translate(-140 -246)" d="M892.589 432.104C896.328 434.305 901.209 437.175 904.598 439.895C902.557 440.129 902.333 439.155 900.793 439.057C895.005 438.688 895.527 436.256 892.457 433.226L892.589 432.104Z"/><path fill="#FEFEFE" transform="translate(-140 -246)" d="M957.153 854.678C959.081 854.778 961.71 855.07 962.686 856.815C967.74 865.86 968.867 876.154 975.06 885.2C982.256 895.712 994.708 895.696 1004.72 901.619C1006.31 902.561 1006.7 903.889 1006.87 905.514C1004.73 911.756 986.984 914.846 978.985 921.336C968.075 930.188 967.431 950.354 960.128 955.412C958.875 955.304 956.475 955.119 955.753 954.185C949.837 946.534 949.862 936.622 943.483 927.673C935.211 916.069 925.067 915.715 913.507 909.499C912.043 908.712 910.775 907.149 910.485 905.387C912.475 898.482 931.5 896.176 939.424 888.641C950.089 878.5 949.061 861.103 957.153 854.678Z"/><path fill="#FEFEFE" transform="translate(-140 -246)" d="M863.233 924.383C870.297 924.085 870.385 928.466 872.378 934.089C874.569 940.527 876.253 947.921 881.682 952.441C887.058 956.916 900.887 957.447 903.619 963.531C902.619 970.45 888.383 970.44 881.411 976.544C871.671 985.072 874.078 997.44 867.469 1004.42C859.593 1004.66 859.176 995.32 856.964 988.911C852.508 975.994 844.882 974.059 833.19 969.271C830.63 968.223 828.319 966.791 827.342 964.048C828.065 961.217 829.947 960.064 832.681 958.908C838.409 956.487 843.823 955.051 849.116 951.629C858.148 945.792 857.467 930.618 863.233 924.383Z"/><path fill="#FEFEFE" transform="translate(-140 -246)" d="M950.85 968.991C957.513 971.12 956.346 978.02 961.072 984.72C965.401 986.162 971.264 987.444 973.769 991.178C972.793 995.78 963.414 996.378 960.15 1000.67C955.546 1006.72 958.916 1009.3 952.774 1014.91C946.432 1013.64 947.037 1008.24 944.835 1002.94C941.64 995.246 932.563 999.265 929.869 992.517C930.468 985.133 939.499 987.545 942.969 984.03C947.529 979.409 945.205 974.657 950.85 968.991Z"/><path fill="#FD272E" transform="translate(-140 -246)" d="M781.122 663.25C848.148 656.454 863.516 768.969 795.238 784.769C783.85 786.755 772.135 784.265 762.539 777.82C749.35 769.109 740.091 753.48 736.977 738.186C733.211 719.976 736.882 701.015 747.173 685.526C755.644 673.037 766.396 666.072 781.122 663.25Z"/><path fill="#FEFEFE" transform="translate(-140 -246)" d="M769.397 683.728C778.857 681.451 788.375 687.265 790.669 696.721C792.963 706.177 787.168 715.705 777.716 718.017C768.239 720.335 758.681 714.521 756.38 705.04C754.08 695.559 759.912 686.011 769.397 683.728Z"/><path fill="#FE5013" transform="translate(-140 -246)" d="M465.025 662.774C526.742 665.202 534.962 761.771 480.643 782.553C475.624 784.473 470.563 785.092 465.249 785.625C454.042 785.31 443.276 781.192 434.72 773.947C396.43 741.55 409.885 666.851 465.025 662.774Z"/><path fill="#FEFEFE" transform="translate(-140 -246)" d="M477.214 683.199C486.921 682.043 495.738 688.948 496.942 698.65C498.146 708.351 491.284 717.202 481.589 718.454C471.825 719.715 462.898 712.795 461.686 703.025C460.474 693.255 467.438 684.362 477.214 683.199Z"/><path fill="#FD272E" transform="translate(-140 -246)" d="M619.925 765.01C630.441 763.829 655.82 765.196 661.376 775.477C669.475 790.464 647.721 804.779 637.495 810.327C637.172 822.754 638.652 833.193 649.532 841.216C655.955 845.948 664.002 847.918 671.885 846.686C691.434 843.663 690.947 826.543 701.539 825.572C704.316 825.294 707.079 826.209 709.14 828.09C711.268 830.021 712.499 832.748 712.541 835.62C712.66 841.708 706.822 848.649 702.708 852.861C693.435 862.338 680.792 867.768 667.534 867.967C652.963 868.093 640.209 862.236 629.895 852.157L626.541 848.588C580.949 896.001 528.179 844.004 542.998 828.494C544.879 826.502 547.525 825.413 550.264 825.504C558.034 825.786 560.636 834.132 565.263 838.94C576.06 850.158 596.541 849.252 607.081 838.083C615.233 829.444 616.003 821.694 615.757 810.724C603.191 804.766 592.06 796.199 588.824 782.055C592.17 767.175 607.063 766.232 619.925 765.01Z"/></g></svg>