<svg xmlns="http://www.w3.org/2000/svg" xmlns:xlink="http://www.w3.org/1999/xlink" width="741" height="704" viewBox="0 0 741 704"><clipPath id="cl_3"><rect width="741" height="704"/></clipPath><g clip-path="url(#cl_3)"><defs><linearGradient id="gradient_0" gradientUnits="userSpaceOnUse" x1="438.94669" y1="607.20343" x2="727.29053" y2="908.27161"><stop offset="0" stop-color="#FF8719"/><stop offset="1" stop-color="#F92453"/></linearGradient></defs><path fill="url(#gradient_0)" transform="translate(-258 -275)" d="M701.885 897.872C700.933 872.742 702.51 845.516 701.88 820.188C701.48 804.137 695.275 790.344 683.706 779.331C668.409 764.768 650.801 763.912 630.893 764.392C625.236 764.528 617.856 764.217 611.945 764.249C584.251 764.399 560.415 784.051 555.935 811.423C554.458 820.45 555.254 840.082 555.283 850.1L555.225 915.469C555.215 931.896 558.632 951.637 546.273 964.238C542.007 968.525 536.589 971.483 530.677 972.755C522.408 974.61 504.174 973.835 495.049 973.58C451.862 972.37 414.158 982.26 380.773 947.777C369.693 936.234 362.023 921.849 358.614 906.215C355.676 892.949 356.354 879.964 356.38 866.457L356.473 826.989C356.528 792.769 356.424 758.365 356.502 724.293C356.321 699.115 367.443 673.641 386.13 656.716C401.072 643.182 416.411 629.822 431.489 616.342L523.911 533.494L577.77 485.232C584.215 479.514 598.354 466.438 605.014 461.996C612.451 457.061 621.238 454.561 630.158 454.84C646.92 455.346 655.826 464.578 667.508 475.063C672.676 479.702 677.97 484.351 683.168 488.972L749.115 548.077L830.855 620.961C869.106 655.043 902.415 674.641 900.628 731.298C901.221 765.81 900.574 801.573 900.738 836.165C900.819 853.181 901.797 893.154 898.475 907.525C894.827 922.807 887.091 936.808 876.097 948.031C860.768 964.095 839.646 973.355 817.445 973.743C805.133 973.902 789.411 974.398 776.769 973.658C751.975 972.207 711.692 982.756 703.201 950.655C700.476 937.842 701.841 911.923 701.885 897.872Z"/><defs><linearGradient id="gradient_1" gradientUnits="userSpaceOnUse" x1="780.86536" y1="824.50299" x2="888.68359" y2="933.0423"><stop offset="0" stop-color="#F72D51"/><stop offset="1" stop-color="#F40575"/></linearGradient></defs><path fill="url(#gradient_1)" transform="translate(-258 -275)" d="M721.717 902.55C726.702 896.555 733.881 886.414 739.536 881.591C743.5 878.21 748.337 876.292 751.878 872.273C754.824 868.928 756.765 864.682 759.592 861.214C762.439 857.722 766.285 855.25 769.234 851.892C775.617 844.626 781.126 836.722 787.943 829.77C791.613 826.026 795.73 822.331 799.856 819.101C804.795 815.234 808.841 812.908 812.337 807.544C817.504 799.618 845.637 777.665 854.987 768.969C861.16 763.227 866.442 756.353 872.758 750.853C876.175 747.877 890.546 735.865 892.136 732.929C892.834 731.641 892.75 731.51 894.052 730.68C895.99 732.759 896.995 736.319 897.551 739.046L898.58 743.974L899.034 743.928C900.045 739.455 899.259 735.401 900.628 731.298C901.221 765.81 900.574 801.573 900.738 836.165C900.819 853.181 901.797 893.154 898.475 907.525C894.827 922.807 887.091 936.808 876.097 948.031C860.768 964.095 839.646 973.355 817.445 973.743C805.133 973.902 789.411 974.398 776.769 973.658C751.975 972.207 711.692 982.756 703.201 950.655C700.476 937.842 701.841 911.923 701.885 897.872C702.856 901.082 702.714 901.712 703.293 904.814C704.394 910.712 706.158 905.782 710.235 908.717C711.827 908.681 713.525 907.048 714.741 905.93C717.15 903.715 718.545 903.41 721.717 902.55Z"/><defs><linearGradient id="gradient_2" gradientUnits="userSpaceOnUse" x1="451.02512" y1="376.6763" x2="844.86499" y2="712.48438"><stop offset="0" stop-color="#FF881B"/><stop offset="1" stop-color="#FA3049"/></linearGradient></defs><path fill="url(#gradient_2)" transform="translate(-258 -275)" d="M899.766 620.451L737.21 477.002L677.296 424.171C667.002 415.139 656.795 405.208 645.847 397.027C637.504 390.793 627.722 388.887 617.958 393.048C607.853 397.355 571.435 431.399 560.01 441.489L405.346 578.471L356.592 621.862C341.74 635.098 327.768 651.797 306.851 653.805C269.814 657.361 248.593 613.668 271.635 585.953C280.489 575.303 296.599 562.522 307.348 552.794L375.036 490.989C428.225 442.08 481.775 393.564 535.681 345.447C549.972 332.513 564.342 319.666 578.791 306.908C585.905 300.607 593.142 294.264 600.417 288.186C612.391 278.111 637.454 275.877 650.68 284.685C665.168 294.333 681.46 310.114 694.983 322.137L773.559 392.46C784.55 402.209 796.108 412.879 807.376 422.201C807.197 409.979 807.121 397.756 807.147 385.533C807.16 367.579 804.494 350.051 817.456 335.478C830.567 320.738 847.332 320.406 865.791 322.104C880.288 323.383 896.595 336.959 899.357 351.387C901.734 363.801 900.799 379.804 900.796 392.737L900.799 468.551C900.812 475.163 899.48 504.069 902.582 508.165C906.497 513.334 918.859 524.175 924.382 529.197L969.198 569.686C982.437 581.625 994.88 591.036 995.945 610.348C996.54 621.48 992.659 632.388 985.167 640.643C977.342 649.285 967.752 653.057 956.201 653.804C933.377 655.281 916.167 635.149 899.766 620.451Z"/><path fill="#F8304C" transform="translate(-258 -275)" d="M899.766 620.451C902.544 617.715 902.983 610.938 905.188 607.992C907.827 604.466 916.256 602.727 918.787 599.617C922.566 594.974 926.142 588.998 929.25 583.788C931.444 580.283 933.165 574.755 935.985 571.778C938.771 568.837 941.204 567.447 941.423 562.981C946.649 562.923 948.412 565.879 952.81 567.98C952.907 566.5 952.728 567.017 953.392 565.737C960.811 571.498 959.955 571.485 969.198 569.686C982.437 581.625 994.88 591.036 995.945 610.348C996.54 621.48 992.659 632.388 985.167 640.643C977.342 649.285 967.752 653.057 956.201 653.804C933.377 655.281 916.167 635.149 899.766 620.451Z"/></g></svg>