<?xml version="1.0" encoding="utf-8" ?><svg xmlns="http://www.w3.org/2000/svg" xmlns:xlink="http://www.w3.org/1999/xlink" width="24" height="24" viewBox="0 0 762 668"><clipPath id="cl_c"><rect width="24" height="24"/></clipPath><g clip-path="url(#cl_c)"><defs><linearGradient id="gradient_0" gradientUnits="userSpaceOnUse" x1="436.95486" y1="455.6521" x2="842.60291" y2="810.52191"><stop offset="0" stop-color="#FF6C1B"/><stop offset="1" stop-color="#DC095E"/></linearGradient></defs><path fill="url(#gradient_0)" transform="translate(-250 -280)" d="M829.076 330.874C842.667 329.291 853.01 333.607 860.306 345.606C863.072 350.156 864.257 357.073 864.347 362.447C864.697 383.463 864.479 404.528 864.46 425.554L864.405 548.78L864.313 680.355L864.288 725.29C864.274 743.303 865.243 762.711 860.341 780.029C853.736 802.899 838.298 822.198 817.435 833.661C796.75 845.099 772.35 847.789 749.669 841.133C726.739 834.468 707.402 818.956 695.923 798.016C684.361 776.291 681.851 750.877 688.94 727.31C695.898 704.194 711.786 684.806 733.084 673.44C755.202 661.694 780.521 660.072 804.077 667.828C806.264 668.548 808.9 669.449 811.015 668.333C813.167 662.07 811.869 567.263 811.867 554.52L811.911 492.926C811.926 483.744 812.935 456.881 810.264 449.796C809.692 449.29 809.47 448.9 808.694 448.788C798.291 447.29 732.594 462.707 717.98 465.74L587.804 492.685C574.824 495.373 561.831 497.995 548.824 500.55C540.656 502.114 528.538 502.961 521.533 507.562C517.426 510.26 517.378 514.132 516.941 518.652C516.197 544.825 517.138 575.554 517.099 602.201L516.989 803.021C516.948 832.109 512.721 855.142 490.836 876.731C473.981 893.392 451.148 902.597 427.451 902.285C404.031 902.052 381.692 892.397 365.473 875.5C348.827 858.326 339.79 835.176 340.396 811.266C340.889 787.264 350.872 764.435 368.161 747.778C388.62 728.275 417.182 719.747 444.985 724.841C451.044 725.943 458.272 728.768 464.346 729.377C464.393 729.382 465.637 729.129 465.684 728.94C467.488 721.759 466.725 699.991 466.698 693.398L466.631 515.27L466.545 463.583C466.449 444.841 462.931 419.658 479.085 406.785C488.801 399.043 502.64 397.719 514.484 395.304C522.607 393.647 530.818 392.117 538.944 390.497L623.671 372.93L759.157 344.825L801.142 336.204C810.014 334.381 820.185 332.044 829.076 330.874Z"/><path fill="#FE6031" transform="translate(-250 -280)" d="M562.325 464.768C565.06 464.881 565.503 464.81 568.028 465.689C562.894 466.424 562.198 465.761 558.417 469.661C557.738 471.345 557.728 472.283 556.5 473.115C556.17 469.468 559.38 466.376 562.325 464.768Z"/></g></svg>