<svg xmlns="http://www.w3.org/2000/svg" width="24" height="24" viewBox="0 0 24 24">
<defs>
<linearGradient id="g0" x1="591.63" y1="344.95" x2="702.3" y2="571.29" gradientTransform="scale(0.01914)">
<stop offset="0" stop-color="#FF6616"/><stop offset="1" stop-color="#F7112D"/>
</linearGradient>
<linearGradient id="g1" x1="571.3" y1="524.54" x2="629.9" y2="691" gradientTransform="scale(0.01914)">
<stop offset="0" stop-color="#FF3326"/><stop offset="1" stop-color="#E7163E"/>
</linearGradient>
<linearGradient id="g2" x1="564.93" y1="684.22" x2="606.89" y2="829.25" gradientTransform="scale(0.01914)">
<stop offset="0" stop-color="#F22142"/><stop offset="1" stop-color="#AF1D53"/>
</linearGradient>
<linearGradient id="g3" x1="863.89" y1="630.69" x2="914.96" y2="781.56" gradientTransform="scale(0.01914)">
<stop offset="0" stop-color="#EE264D"/><stop offset="1" stop-color="#9E1C56"/>
</linearGradient>
</defs>
<path fill="url(#g0)" d="M9.4 8.1c1.6 0 3.2 0 4.7 0h1.5c.3 0 .6 0 .9 0 .5.1.7.8.4 1.2-.1.1-.2.2-.3.2-.2 0-.9 0-1.1 0l-6.3.1c-.3 0-.7 0-.9-.1-.5-.1-.6-.8-.3-1.2l.3-.2c.2 0 .4 0 .6 0zm-1 2.8c.2 0 .7 0 1 0h2.8l2.2-.1c.3 0 .7 0 1.1.1.2 0 .3.1.4.2.1.1.2.3.2.5 0 .2 0 .4-.1.5-.2.2-.3.2-.5.3-.2 0-.7 0-.8 0l-5 .1H8.3c-.1 0-.3 0-.3-.1-.2-.1-.3-.3-.3-.5 0-.4.3-.7.7-.8zm0 2.9c.2 0 .7 0 1 0h3.9c.3 0 .7 0 1 0 .2.1.3.1.4.2.5.3.4 1.1-.2 1.3-.2 0-.6 0-.8 0l-3.8.1H8.4c-.8 0-.9-1.2-.1-1.3z"/>
<path fill="url(#g3)" d="M15.8 12.2c0-.3.3-.5.6-.4.1 0 .2.1.3.2.4.2.8.5 1.2.8.2.1.7.4.8.6 0 .3-.1.5-.3.6-.6.4-1.2.8-1.8 1.2l-.3.1c-.5.1-.5-.5-.5-.8v-1.7z"/>
<path fill="#F12B33" d="M15.8 12.2c0-.3.3-.5.6-.4l.3.2c0 .1 0 0 0 0 0 0-.3.1-.3.1-.2.1-.4.1-.5.2l-.1-.1zm0 0z"/>
<circle cx="6" cy="8" r="1.7" fill="#FE6512"/><circle cx="6" cy="13.8" r="1.7" fill="#F12B33"/><circle cx="6" cy="10.9" r="1.7" fill="#F12B33"/>
</svg>