<?xml version="1.0" encoding="utf-8" ?><svg xmlns="http://www.w3.org/2000/svg" xmlns:xlink="http://www.w3.org/1999/xlink" width="24" height="24" viewBox="0 0 702 626"><clipPath id="cl_8"><rect y="3.0517578e-05" width="24" height="24"/></clipPath><g clip-path="url(#cl_8)"><defs><linearGradient id="gradient_0" gradientUnits="userSpaceOnUse" x1="613.38959" y1="314.98492" x2="631.02295" y2="652.64807"><stop offset="0" stop-color="#FF9D00"/><stop offset="1" stop-color="#FA371C"/></linearGradient></defs><path fill="url(#gradient_0)" transform="translate(-272 -272)" d="M767.708 327.014C770.244 316.974 773.752 308.435 784.405 304.213C805.817 295.727 826.292 318.644 815.614 338.898C807.833 353.658 792.717 356.268 778.489 348.056C774.657 349.75 770.032 351.965 766.074 353.05C751.538 359.71 734.891 366.15 719.992 372.347L633.76 408.11L574.589 432.244C561.761 437.578 544.85 445.186 532.028 449.528C549.771 448.166 577.667 449.015 596.046 449.009L717.695 449.022L809.31 449.163C839.597 449.201 864.66 444.242 889.194 465.227C917.238 489.214 912.812 518.877 912.827 551.654L912.78 621.345C912.963 643.64 912.985 665.936 912.846 688.231C912.907 717.486 912.82 746.766 912.794 776.046C912.826 794.496 905.291 811.837 892.141 824.582C874.713 841.475 855.679 844.127 832.518 843.108C824.238 842.744 814.519 843.085 806.086 843.081L708.415 843.105L507.433 843.127C473.622 843.137 439.844 843.179 405.999 843.112C375.688 843.052 349.172 820.48 342.602 791.171C340.477 781.691 341.067 769.658 341.059 759.826L341.059 723.559C341.064 690.401 340.27 654.12 341.139 621.234C340.256 600.233 341.454 575.941 341.083 554.526C340.903 544.122 340.459 513.815 341.938 504.989C343.664 495.237 347.432 485.96 352.995 477.766C362.958 463.325 378.219 453.4 395.46 450.149C401.512 448.652 417.507 449.043 424.768 449.028C434.345 448.598 466.001 450.345 473.23 448.453C483.017 445.891 509.609 433.824 520.289 429.405L625.72 385.755C640.814 379.495 666.056 368.024 680.795 363.308C684.828 360.857 699.559 355.448 704.764 353.141C724.578 344.358 748.4 336.252 767.708 327.014ZM681.979 621.418C666.409 552.498 604.274 504.211 533.643 506.14C463.013 508.069 403.607 559.677 391.822 629.345C381.852 688.288 408.337 747.439 458.947 779.256C509.556 811.074 574.342 809.304 623.139 774.771C671.936 740.238 695.153 679.729 681.979 621.418ZM830.848 631.983C824.692 614.531 808.268 602.801 789.762 602.642C771.257 602.483 754.633 613.928 748.178 631.272C741.408 649.464 747.368 669.942 762.843 681.66C778.317 693.378 799.645 693.561 815.319 682.111C830.993 670.662 837.304 650.289 830.848 631.983ZM783.867 713.774C759.789 716.855 742.768 738.869 745.845 762.947C748.923 787.024 770.934 804.049 795.012 800.975C819.095 797.9 836.124 775.883 833.046 751.801C829.968 727.719 807.948 710.693 783.867 713.774ZM768.902 563.648L830.102 563.712C839.419 563.715 851.486 564.356 860.606 563.163C875.859 561.167 870.456 538.681 871.342 529.062C873.726 503.2 859.165 506.069 838.875 506.117L808.901 506.063C788.707 506.204 768.512 506.229 748.317 506.136C739.407 506.127 728.21 505.563 719.224 506.581C706.864 507.983 707.807 521.479 707.753 530.64C707.57 561.416 705.995 563.799 738.039 563.734L768.902 563.648Z"/><path fill="#F82C26" transform="translate(-272 -272)" d="M428.946 628.519L566.008 628.703C591.987 628.738 618.064 628.557 644.045 628.605C646.347 628.673 648.002 628.689 650.186 629.552C657.218 632.333 659.876 642.898 656.513 649.234C654.701 652.648 650.817 654.193 647.133 655.131C601.501 655.702 554.717 655.188 508.982 655.22L457.784 655.268C448.07 655.276 438.145 655.411 428.444 655.016C425.453 654.893 424.44 654.672 421.947 652.93C415.597 648.494 416.455 638.484 420.322 632.749C422.228 629.922 425.599 628.97 428.946 628.519Z"/><path fill="#F82C26" transform="translate(-272 -272)" d="M430.745 675.504C444.192 674.767 462.703 675.36 476.752 675.359L565.245 675.324L618.496 675.307C626.474 675.307 635.478 674.988 643.127 675.56C650.647 676.122 655.357 684.83 652.53 691.609C650.145 697.326 648.97 698.155 644.072 701.235C636.47 702.224 614.611 701.692 605.795 701.692L528.725 701.675L462.613 701.686C452.538 701.686 441.78 702.015 431.737 701.096C429.472 700.888 425.755 697.575 424.638 695.537C419.905 686.903 422.021 679.924 430.745 675.504Z"/><path fill="#FB4D11" transform="translate(-272 -272)" d="M442.763 582.444C450.885 581.631 463.301 582.189 471.946 582.204L528.019 582.208L593.639 582.199C605.631 582.176 617.639 581.973 629.619 582.401C643.362 582.893 649.623 605.901 633.153 608.156L490.01 608.244C476.684 608.249 463.385 608.361 450.036 608.441C444.555 608.474 436.08 608.792 433.243 602.607C429.605 594.675 435.857 586.332 442.763 582.444Z"/><path fill="#ED1A3F" transform="translate(-272 -272)" d="M519.895 722.219C541.899 722.466 563.944 722.241 585.95 722.141C596.353 722.094 607.377 721.293 617.731 722.224C620.101 722.437 622.765 722.71 624.663 724.273C626.645 725.905 628.113 727.938 628.182 730.595C628.264 733.769 625.688 736.801 623.6 738.901C620.552 741.968 617.335 745.297 613.227 746.834C604.891 749.955 569.993 748.263 558.575 748.224C528.773 748.271 492.514 749.31 463.24 748.141C458.216 745.21 447.892 736.583 447.818 730.495C447.683 719.355 471.521 722.177 479.337 722.209L519.895 722.219Z"/><path fill="#FB4D11" transform="translate(-272 -272)" d="M526.985 533.556C553.158 531.77 577.332 537.339 600.441 549.674C607.543 553.464 607.915 560.887 599.229 561.767C592.998 562.398 585.969 561.959 579.641 561.847C569.831 561.666 560.018 561.617 550.206 561.701C540.596 561.646 476.106 563.005 471.763 560.596C470.063 559.654 469.546 558.764 469.029 556.938C470.635 548.588 492.687 541.615 499.764 539.109C508.052 536.175 518.251 534.528 526.985 533.556Z"/><path fill="#ED1A3F" transform="translate(-272 -272)" d="M561.555 768.117C565.783 768.036 569.414 767.757 573.465 768.922L573.801 769.712C571.185 771.624 566.921 772.502 563.77 773.252C547.874 777.035 533.386 777.13 517.302 774.399C509.952 772.901 504.449 771.807 497.632 768.745C514.254 767.366 543.691 768.419 561.555 768.117Z"/><path fill="#F82C26" transform="translate(-272 -272)" d="M785.272 628.587C795.357 626.244 805.442 632.482 807.848 642.552C810.255 652.622 804.08 662.745 794.025 665.215C783.881 667.706 773.647 661.464 771.22 651.305C768.792 641.145 775.098 630.951 785.272 628.587Z"/><defs><linearGradient id="gradient_1" gradientUnits="userSpaceOnUse" x1="625.17749" y1="624.5174" x2="629.02509" y2="845.22089"><stop offset="0" stop-color="#FF3619"/><stop offset="1" stop-color="#DD0166"/></linearGradient></defs><path fill="url(#gradient_1)" transform="translate(-272 -272)" d="M341.139 621.234C341.916 617.987 341.931 614.664 342.033 611.343C342.108 617.739 341.948 625.458 343.429 631.651C344.074 634.344 348.842 640.286 350.728 642.872C351.9 643.303 361.536 643.71 364.002 643.574C371.25 643.172 386.312 642.978 389.819 635.185C390.667 633.299 389.868 629.874 391.354 627.757L391.822 629.345C381.852 688.288 408.337 747.439 458.947 779.256C509.556 811.074 574.342 809.304 623.139 774.771C671.936 740.238 695.153 679.729 681.979 621.418L682.985 621.3C684.596 625.594 685.377 629.481 687.237 633.408L687.251 633.001C688.257 634.607 691.215 638.893 693.202 639.093C702.457 640.025 711.614 638.025 720.796 637.176C724.656 636.809 727.399 638.923 731.092 638.632C733.394 638.451 736.827 635.542 738.99 635.548L740.676 637.338L740.385 637.022L741.138 636.477L741.541 635.561C742.84 636.277 742.738 636.294 743.564 637.555C745.419 636.582 745.754 635.235 746.361 633.233C746.482 632.832 746.597 632.43 746.708 632.027C747.316 631.66 747.518 631.452 748.178 631.272C741.408 649.464 747.368 669.942 762.843 681.66C778.317 693.378 799.645 693.561 815.319 682.111C830.993 670.662 837.304 650.289 830.848 631.983C850.821 641.318 878.873 634.281 900.12 638.141C903.559 638.765 902.854 634.077 910.508 637.784L911.219 638.138C912.1 636.384 911.62 624.468 911.925 620.937L912.78 621.345C912.963 643.64 912.985 665.936 912.846 688.231C912.907 717.486 912.82 746.766 912.794 776.046C912.826 794.496 905.291 811.837 892.141 824.582C874.713 841.475 855.679 844.127 832.518 843.108C824.238 842.744 814.519 843.085 806.086 843.081L708.415 843.105L507.433 843.127C473.622 843.137 439.844 843.179 405.999 843.112C375.688 843.052 349.172 820.48 342.602 791.171C340.477 781.691 341.067 769.658 341.059 759.826L341.059 723.559C341.064 690.401 340.27 654.12 341.139 621.234ZM795.012 800.975C819.095 797.9 836.124 775.883 833.046 751.801C829.968 727.719 807.948 710.693 783.867 713.774C759.789 716.855 742.768 738.869 745.845 762.947C748.923 787.024 770.934 804.049 795.012 800.975Z"/><path fill="#ED1A3F" transform="translate(-272 -272)" d="M785.653 738.803C795.932 736.624 806.02 743.233 808.127 753.528C810.233 763.822 803.553 773.863 793.244 775.897C783.037 777.912 773.117 771.312 771.031 761.119C768.945 750.926 775.475 740.96 785.653 738.803Z"/><path fill="#FC8202" transform="translate(-272 -272)" d="M767.708 327.014C770.244 316.974 773.752 308.435 784.405 304.213C805.817 295.727 826.292 318.644 815.614 338.898C807.833 353.658 792.717 356.268 778.489 348.056C774.657 349.75 770.032 351.965 766.074 353.05C767.256 350.358 778.188 346.002 781.741 348.075C798.791 358.025 817.719 344.596 816.944 325.738C811.418 324.165 803.621 321.802 798.224 320.084C794.661 318.95 785.494 322.102 782.554 315.718C780.693 312.391 783.813 308.668 782.919 306.276C779.731 307.051 775.58 311.464 773.71 314.22C771.305 317.763 771.138 325.233 768.147 327.793C765.597 329.974 689.806 361.272 681.821 363.929L680.795 363.308C684.828 360.857 699.559 355.448 704.764 353.141C724.578 344.358 748.4 336.252 767.708 327.014Z"/><path fill="#FC8202" transform="translate(-272 -272)" d="M395.46 450.149C401.512 448.652 417.507 449.043 424.768 449.028L424.311 449.951L417.887 450.383C420.659 450.271 422.515 451.054 425.123 451.865L425.699 452.499C423.209 455.261 408.802 457.08 404.579 457.493C401.256 457.819 399.418 457.689 396.928 455.585L396.574 454.211L398.398 451.497L398.151 450.739L395.46 450.149Z"/><path fill="#FC8202" transform="translate(-272 -272)" d="M816.368 450.857C819.065 450.26 825.252 449.02 826.308 452.355L825.921 452.214L825.589 452.625C821.818 452.399 819.697 456.112 816.368 450.857Z"/><path fill="#FC8202" transform="translate(-272 -272)" d="M776.018 316.826C777.945 318.211 779.148 318.965 778.453 321.461L777.515 321.972C775.722 321.208 775.579 321.812 774.245 320.403L776.018 316.826Z"/><path fill="#FC8202" transform="translate(-272 -272)" d="M783.825 319.852L785.255 320.898C785.757 323.077 785.796 321.942 784.477 324.36L782.938 323.775C782.341 322.118 782.87 322.052 783.825 319.852Z"/><path fill="#FC8202" transform="translate(-272 -272)" d="M644.329 450.719C646.118 450.43 648.081 449.937 649.369 451.286L648.816 452.103C646.767 452.757 646.904 452.684 644.793 452.163L644.329 450.719Z"/></g></svg>