<?xml version="1.0" encoding="utf-8" ?><svg xmlns="http://www.w3.org/2000/svg" xmlns:xlink="http://www.w3.org/1999/xlink" width="739" height="731" viewBox="0 0 739 731"><clipPath id="cl_3"><rect width="739" height="731"/></clipPath><g clip-path="url(#cl_3)"><path fill="#FEFEFE" transform="translate(-265 -250)" d="M610.659 289.967C616.398 289.381 625.945 289.429 631.857 289.477C674.462 290.154 716.501 299.349 755.499 316.52C762.058 319.31 768.487 322.397 774.765 325.774C787.056 332.392 799.349 341.317 813.9 333.504C820.221 330.109 825.128 324.503 831.198 320.82C840.729 315.036 851.936 311.709 862.981 310.819C878.199 309.468 893.317 314.318 904.909 324.27C912.789 331.083 918.824 340.418 922.337 350.187C937.895 393.45 899.326 412.477 900.788 434.467C901.622 447.006 918.876 474.087 924.576 488.34C939.033 524.487 947.732 561.344 950.007 600.23C952.786 647.705 943.283 696.793 925.45 740.757C922.122 748.961 918.257 757.002 914.229 764.882C909.062 774.988 901.045 785.781 900.931 797.591C900.818 809.211 911.404 819.56 916.759 829.174C921.994 838.573 925.228 848.548 925.886 859.309C926.872 875.418 922.061 890.219 911.232 902.288C892.25 923.442 861.606 926.967 836.78 914.242C824.203 907.796 815.03 893.553 799.403 894.491C787.459 895.208 773.728 905.145 762.805 910.18C754.957 913.736 746.987 917.017 738.91 920.018C710.765 930.646 673.936 937.999 643.994 939.464C594.935 944.166 534.316 929.57 490.063 908.818C479.09 903.672 468.694 895.638 456.297 894.837C441.191 893.861 431.963 906.146 420.151 913.043C362.855 943.571 306.982 890.299 335.799 831.765C342.212 818.934 353.992 812.031 352.406 795.928C351.046 782.108 341.696 771.208 336.3 758.688C332.885 750.765 329.322 743.076 326.177 735.053C313.174 702.059 305.69 667.15 304.027 631.725C301.288 581.718 314.639 509.269 339.678 466.341C372.945 409.308 330.87 420.14 328.238 372.87C327.257 356.747 332.846 340.914 343.729 328.979C362.753 307.91 393.255 305.279 417.652 318.119C429.405 324.304 442.65 337.383 454.332 336.318C463.871 335.448 480.969 324.614 490.861 320.001C499.634 315.883 508.585 312.157 517.689 308.836C547.601 298.074 578.919 291.718 610.659 289.967ZM645.619 886.362C795.676 875.962 908.813 745.76 898.168 595.719C887.523 445.678 757.136 332.754 607.113 343.645C457.436 354.511 344.83 484.531 355.451 634.225C366.072 783.919 495.907 896.738 645.619 886.362ZM386.01 890.166C394.516 888.749 401.584 882.832 404.475 874.708C407.366 866.584 405.625 857.531 399.927 851.06C394.228 844.588 385.469 841.715 377.044 843.555C364.46 846.302 356.363 858.584 358.796 871.233C361.229 883.882 373.304 892.283 386.01 890.166ZM877.524 387.603C890.219 384.362 897.861 371.421 894.571 358.739C891.281 346.057 878.312 338.463 865.642 341.801C853.041 345.121 845.496 358.007 848.769 370.621C852.041 383.235 864.898 390.828 877.524 387.603ZM386.673 387.832C399.542 385.381 407.956 372.922 405.422 360.069C402.889 347.215 390.376 338.881 377.54 341.497C364.819 344.089 356.576 356.464 359.087 369.202C361.597 381.939 373.919 390.261 386.673 387.832ZM875.27 890.054C883.679 888.749 890.735 883.02 893.738 875.058C896.741 867.097 895.227 858.135 889.775 851.602C884.323 845.069 875.777 841.976 867.407 843.506C854.704 845.828 846.224 857.926 848.375 870.659C850.527 883.392 862.51 892.033 875.27 890.054Z"/><path fill="#FEFEFE" transform="translate(-265 -250)" d="M619.001 473.14C697.147 468.623 764.15 528.33 768.633 606.478C773.116 684.626 713.381 751.603 635.231 756.052C557.128 760.499 490.201 700.808 485.72 622.708C481.24 544.607 540.902 477.654 619.001 473.14ZM634.655 690.732C676.508 686.628 707.051 649.284 702.77 607.448C698.489 565.613 661.015 535.229 619.198 539.688C577.632 544.12 547.469 581.321 551.724 622.906C555.98 664.491 593.053 694.811 634.655 690.732Z"/></g></svg>